SplineFontDB: 3.2
FontName: KoreeneSans-Black
FullName: Koreene Sans Black
FamilyName: Koreene Sans Black
Weight: Black
Copyright: (C) Copyright HanYang I&C Co.,Ltd. All rights reserved.
Version: 2.52
ItalicAngle: 0
UnderlinePosition: -244
UnderlineWidth: 90
Ascent: 1638
Descent: 410
InvalidEm: 0
sfntRevision: 0x00020147
LayerCount: 2
Layer: 0 1 "Back" 1
Layer: 1 1 "Fore" 0
XUID: [1021 531 -1996577725 14098825]
StyleMap: 0x0040
FSType: 0
OS2Version: 4
OS2_WeightWidthSlopeOnly: 0
OS2_UseTypoMetrics: 1
CreationTime: 1068260456
ModificationTime: 1706984363
PfmFamily: 81
TTFWeight: 900
TTFWidth: 5
LineGap: 512
VLineGap: 0
Panose: 0 0 0 0 0 0 0 0 0 0
OS2TypoAscent: 1940
OS2TypoAOffset: 0
OS2TypoDescent: -470
OS2TypoDOffset: 0
OS2TypoLinegap: 512
OS2WinAscent: 2196
OS2WinAOffset: 0
OS2WinDescent: 726
OS2WinDOffset: 0
HheadAscent: 1940
HheadAOffset: 0
HheadDescent: -470
HheadDOffset: 0
OS2SubXSize: 410
OS2SubYSize: 410
OS2SubXOff: 0
OS2SubYOff: 574
OS2SupXSize: 410
OS2SupYSize: 410
OS2SupXOff: 0
OS2SupYOff: 1926
OS2StrikeYSize: 204
OS2StrikeYPos: 1024
OS2CapHeight: 1470
OS2XHeight: 1080
OS2Vendor: 'HY  '
OS2CodePages: 2000019f.00000000
OS2UnicodeRanges: e10002ff.4000001b.00000000.00000000
Lookup: 1 0 0 "'aalt' Access All Alternates lookup 0" { "'aalt' Access All Alternates lookup 0 subtable"  } ['aalt' ('DFLT' <'dflt' > 'cyrl' <'dflt' > 'grek' <'dflt' > 'hang' <'dflt' > 'jamo' <'dflt' > 'latn' <'dflt' > ) ]
Lookup: 3 0 0 "'aalt' Access All Alternates lookup 1" { "'aalt' Access All Alternates lookup 1 subtable"  } ['aalt' ('DFLT' <'dflt' > 'cyrl' <'dflt' > 'grek' <'dflt' > 'hang' <'dflt' > 'jamo' <'dflt' > 'latn' <'dflt' > ) ]
Lookup: 1 0 0 "'locl' Localized Forms in Latin lookup 2" { "'locl' Localized Forms in Latin lookup 2 subtable"  } ['locl' ('latn' <'MOL ' > ) ]
Lookup: 1 0 0 "'locl' Localized Forms in Latin lookup 3" { "'locl' Localized Forms in Latin lookup 3 subtable"  } ['locl' ('latn' <'ROM ' > ) ]

StartChar: exclam
Encoding: 33 33 4
Width: 622
GlyphClass: 2
Flags: W
LayerCount: 2
Fore
SplineSet
132 -4 m 1,0,-1
 132 312 l 1,1,-1
 488 312 l 1,2,-1
 488 -4 l 1,3,-1
 132 -4 l 1,0,-1
452 422 m 1,4,-1
 170 422 l 1,5,-1
 152 1482 l 1,6,-1
 466 1482 l 1,7,-1
 452 422 l 1,4,-1
EndSplineSet
EndChar

StartChar: quotedbl
Encoding: 34 34 5
Width: 1190
GlyphClass: 2
Flags: W
LayerCount: 2
Fore
SplineSet
608 1006 m 1,0,-1
 798 1624 l 1,1,-1
 1100 1624 l 1,2,-1
 840 1006 l 1,3,-1
 608 1006 l 1,0,-1
132 1006 m 1,4,-1
 324 1624 l 1,5,-1
 626 1624 l 1,6,-1
 364 1006 l 1,7,-1
 132 1006 l 1,4,-1
EndSplineSet
EndChar

StartChar: numbersign
Encoding: 35 35 6
Width: 1496
GlyphClass: 2
Flags: W
LayerCount: 2
Fore
SplineSet
102 344 m 1,0,-1
 102 568 l 1,1,-1
 338 568 l 1,2,-1
 376 866 l 1,3,-1
 162 866 l 1,4,-1
 162 1088 l 1,5,-1
 406 1088 l 1,6,-1
 452 1434 l 1,7,-1
 716 1434 l 1,8,-1
 672 1088 l 1,9,-1
 926 1088 l 1,10,-1
 970 1434 l 1,11,-1
 1234 1434 l 1,12,-1
 1190 1088 l 1,13,-1
 1396 1088 l 1,14,-1
 1396 866 l 1,15,-1
 1162 866 l 1,16,-1
 1124 568 l 1,17,-1
 1338 568 l 1,18,-1
 1338 344 l 1,19,-1
 1094 344 l 1,20,-1
 1050 6 l 1,21,-1
 784 6 l 1,22,-1
 830 344 l 1,23,-1
 574 344 l 1,24,-1
 528 6 l 1,25,-1
 264 6 l 1,26,-1
 310 344 l 1,27,-1
 102 344 l 1,0,-1
604 568 m 1,28,-1
 858 568 l 1,29,-1
 898 866 l 1,30,-1
 640 866 l 1,31,-1
 604 568 l 1,28,-1
EndSplineSet
EndChar

StartChar: dollar
Encoding: 36 36 7
Width: 1162
GlyphClass: 2
Flags: W
LayerCount: 2
Fore
SplineSet
68 330 m 1,0,-1
 284 430 l 1,1,2
 398 246 398 246 598 246 c 0,3,4
 674 246 674 246 728 293 c 128,-1,5
 782 340 782 340 782 418 c 0,6,7
 782 474 782 474 746 513 c 128,-1,8
 710 552 710 552 664 573 c 128,-1,9
 618 594 618 594 517 636 c 128,-1,10
 416 678 416 678 342 718 c 0,11,12
 118 836 118 836 118 1070 c 0,13,14
 118 1144 118 1144 148 1216 c 128,-1,15
 178 1288 178 1288 258 1357 c 128,-1,16
 338 1426 338 1426 454 1452 c 1,17,-1
 454 1614 l 1,18,-1
 724 1614 l 1,19,-1
 724 1448 l 1,20,21
 830 1436 830 1436 930 1350 c 128,-1,22
 1030 1264 1030 1264 1068 1172 c 1,23,-1
 848 1064 l 1,24,25
 748 1220 748 1220 588 1220 c 0,26,27
 512 1220 512 1220 463 1177 c 128,-1,28
 414 1134 414 1134 414 1068 c 0,29,30
 414 1034 414 1034 428 1007 c 128,-1,31
 442 980 442 980 461 962 c 128,-1,32
 480 944 480 944 520 924 c 128,-1,33
 560 904 560 904 597 890 c 128,-1,34
 634 876 634 876 699 850 c 128,-1,35
 764 824 764 824 818 800 c 0,36,37
 1082 682 1082 682 1082 444 c 0,38,39
 1082 278 1082 278 985 164 c 128,-1,40
 888 50 888 50 724 14 c 1,41,-1
 724 -136 l 1,42,-1
 454 -136 l 1,43,-1
 454 18 l 1,44,45
 342 30 342 30 228 124 c 128,-1,46
 114 218 114 218 68 330 c 1,0,-1
EndSplineSet
EndChar

StartChar: percent
Encoding: 37 37 8
Width: 2038
GlyphClass: 2
Flags: W
LayerCount: 2
Fore
SplineSet
1364 350 m 0,0,1
 1364 270 1364 270 1407 226 c 128,-1,2
 1450 182 1450 182 1510 182 c 256,3,4
 1570 182 1570 182 1612 226 c 128,-1,5
 1654 270 1654 270 1654 350 c 0,6,7
 1654 428 1654 428 1613 474 c 128,-1,8
 1572 520 1572 520 1510 520 c 0,9,10
 1446 520 1446 520 1405 474 c 128,-1,11
 1364 428 1364 428 1364 350 c 0,0,1
384 1118 m 256,12,13
 384 1038 384 1038 427 994 c 128,-1,14
 470 950 470 950 530 950 c 0,15,16
 592 950 592 950 633 995 c 128,-1,17
 674 1040 674 1040 674 1118 c 0,18,19
 674 1198 674 1198 633 1243 c 128,-1,20
 592 1288 592 1288 530 1288 c 0,21,22
 466 1288 466 1288 425 1243 c 128,-1,23
 384 1198 384 1198 384 1118 c 256,12,13
360 -16 m 1,24,-1
 1386 1486 l 1,25,-1
 1684 1486 l 1,26,-1
 654 -16 l 1,27,-1
 360 -16 l 1,24,-1
1094 350 m 0,28,29
 1094 512 1094 512 1207 624 c 128,-1,30
 1320 736 1320 736 1510 736 c 0,31,32
 1694 736 1694 736 1809 625 c 128,-1,33
 1924 514 1924 514 1924 350 c 0,34,35
 1924 182 1924 182 1807 75 c 128,-1,36
 1690 -32 1690 -32 1510 -32 c 0,37,38
 1322 -32 1322 -32 1208 77 c 128,-1,39
 1094 186 1094 186 1094 350 c 0,28,29
114 1118 m 0,40,41
 114 1280 114 1280 228 1391 c 128,-1,42
 342 1502 342 1502 530 1502 c 0,43,44
 716 1502 716 1502 830 1392 c 128,-1,45
 944 1282 944 1282 944 1118 c 0,46,47
 944 952 944 952 828 843 c 128,-1,48
 712 734 712 734 530 734 c 0,49,50
 344 734 344 734 229 844 c 128,-1,51
 114 954 114 954 114 1118 c 0,40,41
EndSplineSet
EndChar

StartChar: ampersand
Encoding: 38 38 9
Width: 1396
GlyphClass: 2
Flags: W
LayerCount: 2
Fore
SplineSet
372 406 m 0,0,1
 372 316 372 316 429 263 c 128,-1,2
 486 210 486 210 578 210 c 0,3,4
 694 210 694 210 794 304 c 1,5,-1
 512 662 l 1,6,7
 372 544 372 544 372 406 c 0,0,1
76 400 m 0,8,9
 76 664 76 664 374 862 c 1,10,11
 254 1010 254 1010 254 1116 c 0,12,13
 254 1276 254 1276 365 1368 c 128,-1,14
 476 1460 476 1460 660 1460 c 0,15,16
 826 1460 826 1460 940 1375 c 128,-1,17
 1054 1290 1054 1290 1100 1168 c 1,18,-1
 890 1076 l 1,19,20
 806 1216 806 1216 688 1216 c 0,21,22
 550 1216 550 1216 550 1108 c 0,23,24
 550 1084 550 1084 567 1048 c 128,-1,25
 584 1012 584 1012 626 953 c 128,-1,26
 668 894 668 894 704 847 c 128,-1,27
 740 800 740 800 816 704 c 128,-1,28
 892 608 892 608 936 552 c 1,29,30
 966 632 966 632 986 758 c 1,31,-1
 1246 710 l 1,32,33
 1228 590 1228 590 1188 483 c 128,-1,34
 1148 376 1148 376 1112 320 c 1,35,-1
 1370 0 l 1,36,-1
 1024 0 l 1,37,-1
 948 96 l 1,38,39
 782 -34 782 -34 578 -34 c 0,40,41
 342 -34 342 -34 209 92 c 128,-1,42
 76 218 76 218 76 400 c 0,8,9
EndSplineSet
EndChar

StartChar: quotesingle
Encoding: 39 39 10
Width: 744
GlyphClass: 2
Flags: W
LayerCount: 2
Fore
SplineSet
172 1006 m 1,0,-1
 362 1624 l 1,1,-1
 666 1624 l 1,2,-1
 404 1006 l 1,3,-1
 172 1006 l 1,0,-1
EndSplineSet
EndChar

StartChar: parenleft
Encoding: 40 40 11
Width: 882
GlyphClass: 2
Flags: W
LayerCount: 2
Fore
SplineSet
220 708 m 0,0,1
 220 1248 220 1248 558 1704 c 1,2,-1
 772 1580 l 1,3,4
 766 1572 766 1572 736 1520 c 128,-1,5
 706 1468 706 1468 696 1451 c 128,-1,6
 686 1434 686 1434 657 1381 c 128,-1,7
 628 1328 628 1328 616 1297 c 128,-1,8
 604 1266 604 1266 583 1209 c 128,-1,9
 562 1152 562 1152 551 1103 c 128,-1,10
 540 1054 540 1054 528 989 c 128,-1,11
 516 924 516 924 511 854 c 128,-1,12
 506 784 506 784 506 708 c 0,13,14
 506 444 506 444 571 247 c 128,-1,15
 636 50 636 50 772 -164 c 1,16,-1
 558 -288 l 1,17,18
 388 -52 388 -52 304 187 c 128,-1,19
 220 426 220 426 220 708 c 0,0,1
EndSplineSet
Substitution2: "'sups' Superscript lookup 5 subtable" uni207D
Substitution2: "'aalt' Access All Alternates lookup 0 subtable" uni207D
EndChar

StartChar: parenright
Encoding: 41 41 12
Width: 882
GlyphClass: 2
Flags: W
LayerCount: 2
Fore
SplineSet
112 -164 m 1,0,1
 256 60 256 60 316 262 c 128,-1,2
 376 464 376 464 376 708 c 0,3,4
 376 990 376 990 309 1180 c 128,-1,5
 242 1370 242 1370 112 1580 c 1,6,-1
 324 1704 l 1,7,8
 480 1488 480 1488 571 1251 c 128,-1,9
 662 1014 662 1014 662 708 c 0,10,11
 662 416 662 416 575 178 c 128,-1,12
 488 -60 488 -60 324 -288 c 1,13,-1
 112 -164 l 1,0,1
EndSplineSet
Substitution2: "'sups' Superscript lookup 5 subtable" uni207E
Substitution2: "'aalt' Access All Alternates lookup 0 subtable" uni207E
EndChar

StartChar: asterisk
Encoding: 42 42 13
Width: 1112
GlyphClass: 2
Flags: W
LayerCount: 2
Fore
SplineSet
28 784 m 1,0,-1
 128 1018 l 1,1,-1
 440 896 l 1,2,-1
 428 1234 l 1,3,-1
 686 1234 l 1,4,-1
 676 896 l 1,5,-1
 988 1018 l 1,6,-1
 1084 784 l 1,7,-1
 726 688 l 1,8,-1
 1006 394 l 1,9,-1
 782 230 l 1,10,-1
 558 560 l 1,11,-1
 328 230 l 1,12,-1
 110 394 l 1,13,-1
 390 688 l 1,14,-1
 28 784 l 1,0,-1
EndSplineSet
EndChar

StartChar: plus
Encoding: 43 43 14
Width: 1112
GlyphClass: 2
Flags: W
LayerCount: 2
Fore
SplineSet
52 596 m 1,0,-1
 52 850 l 1,1,-1
 412 850 l 1,2,-1
 412 1220 l 1,3,-1
 698 1220 l 1,4,-1
 698 850 l 1,5,-1
 1060 850 l 1,6,-1
 1060 596 l 1,7,-1
 698 596 l 1,8,-1
 698 212 l 1,9,-1
 412 212 l 1,10,-1
 412 596 l 1,11,-1
 52 596 l 1,0,-1
EndSplineSet
Substitution2: "'sups' Superscript lookup 5 subtable" uni207A
Substitution2: "'aalt' Access All Alternates lookup 0 subtable" uni207A
EndChar

StartChar: comma
Encoding: 44 44 15
Width: 550
GlyphClass: 2
Flags: W
LayerCount: 2
Fore
SplineSet
-8 -296 m 1,0,-1
 184 322 l 1,1,-1
 486 322 l 1,2,-1
 224 -296 l 1,3,-1
 -8 -296 l 1,0,-1
EndSplineSet
EndChar

StartChar: hyphen
Encoding: 45 45 16
Width: 778
GlyphClass: 2
Flags: W
LayerCount: 2
Fore
SplineSet
68 596 m 1,0,-1
 68 850 l 1,1,-1
 712 850 l 1,2,-1
 712 596 l 1,3,-1
 68 596 l 1,0,-1
EndSplineSet
EndChar

StartChar: period
Encoding: 46 46 17
Width: 550
GlyphClass: 2
Flags: W
LayerCount: 2
Fore
SplineSet
100 0 m 1,0,-1
 100 320 l 1,1,-1
 452 320 l 1,2,-1
 452 0 l 1,3,-1
 100 0 l 1,0,-1
EndSplineSet
EndChar

StartChar: slash
Encoding: 47 47 18
Width: 800
GlyphClass: 2
Flags: W
LayerCount: 2
Fore
SplineSet
-32 -104 m 1,0,-1
 534 1566 l 1,1,-1
 834 1566 l 1,2,-1
 266 -104 l 1,3,-1
 -32 -104 l 1,0,-1
EndSplineSet
EndChar

StartChar: zero
Encoding: 48 48 19
Width: 1100
GlyphClass: 2
Flags: W
LayerCount: 2
Fore
SplineSet
362 734 m 0,0,1
 362 210 362 210 552 210 c 0,2,3
 738 210 738 210 738 734 c 0,4,5
 738 1256 738 1256 550 1256 c 256,6,7
 362 1256 362 1256 362 734 c 0,0,1
56 734 m 0,8,9
 56 916 56 916 88 1056 c 128,-1,10
 120 1196 120 1196 169 1278 c 128,-1,11
 218 1360 218 1360 287 1412 c 128,-1,12
 356 1464 356 1464 419 1483 c 128,-1,13
 482 1502 482 1502 550 1502 c 0,14,15
 792 1502 792 1502 921 1296 c 128,-1,16
 1050 1090 1050 1090 1050 734 c 0,17,18
 1050 376 1050 376 920 171 c 128,-1,19
 790 -34 790 -34 552 -34 c 0,20,21
 490 -34 490 -34 429 -18 c 128,-1,22
 368 -2 368 -2 298 49 c 128,-1,23
 228 100 228 100 176 181 c 128,-1,24
 124 262 124 262 90 405 c 128,-1,25
 56 548 56 548 56 734 c 0,8,9
EndSplineSet
EndChar

StartChar: one
Encoding: 49 49 20
Width: 1100
GlyphClass: 2
Flags: W
LayerCount: 2
Fore
SplineSet
128 984 m 1,0,-1
 128 1208 l 1,1,-1
 200 1208 l 2,2,3
 364 1208 364 1208 437 1276 c 128,-1,4
 510 1344 510 1344 510 1446 c 2,5,-1
 510 1470 l 1,6,-1
 772 1470 l 1,7,-1
 772 0 l 1,8,-1
 464 0 l 1,9,-1
 464 984 l 1,10,-1
 128 984 l 1,0,-1
EndSplineSet
Substitution2: "'subs' Subscript lookup 6 subtable" uni2081
Substitution2: "'sups' Superscript lookup 5 subtable" onesuperior
Substitution2: "'sinf' Scientific Inferiors lookup 4 subtable" uni2081
AlternateSubs2: "'aalt' Access All Alternates lookup 1 subtable" uni2081 onesuperior
EndChar

StartChar: two
Encoding: 50 50 21
Width: 1100
GlyphClass: 2
Flags: W
LayerCount: 2
Fore
SplineSet
68 1088 m 1,0,1
 108 1280 108 1280 229 1391 c 128,-1,2
 350 1502 350 1502 542 1502 c 0,3,4
 746 1502 746 1502 877 1384 c 128,-1,5
 1008 1266 1008 1266 1008 1068 c 0,6,7
 1008 938 1008 938 950 836 c 128,-1,8
 892 734 892 734 784 630 c 0,9,10
 766 612 766 612 686 536 c 128,-1,11
 606 460 606 460 549 392 c 128,-1,12
 492 324 492 324 448 244 c 1,13,-1
 1000 244 l 1,14,-1
 1000 0 l 1,15,-1
 86 0 l 1,16,17
 86 96 86 96 114 190 c 128,-1,18
 142 284 142 284 179 353 c 128,-1,19
 216 422 216 422 284 503 c 128,-1,20
 352 584 352 584 397 630 c 128,-1,21
 442 676 442 676 520 748 c 0,22,23
 542 768 542 768 552 778 c 0,24,25
 700 918 700 918 700 1076 c 0,26,27
 700 1160 700 1160 656 1208 c 128,-1,28
 612 1256 612 1256 540 1256 c 0,29,30
 374 1256 374 1256 318 1012 c 1,31,-1
 68 1088 l 1,0,1
EndSplineSet
Substitution2: "'subs' Subscript lookup 6 subtable" uni2082
Substitution2: "'sups' Superscript lookup 5 subtable" twosuperior
Substitution2: "'sinf' Scientific Inferiors lookup 4 subtable" uni2082
AlternateSubs2: "'aalt' Access All Alternates lookup 1 subtable" uni2082 twosuperior
EndChar

StartChar: three
Encoding: 51 51 22
Width: 1100
GlyphClass: 2
Flags: W
LayerCount: 2
Fore
SplineSet
38 324 m 1,0,-1
 276 410 l 1,1,2
 352 212 352 212 528 212 c 0,3,4
 616 212 616 212 677 270 c 128,-1,5
 738 328 738 328 738 428 c 0,6,7
 738 516 738 516 672 577 c 128,-1,8
 606 638 606 638 496 638 c 0,9,10
 424 638 424 638 352 632 c 1,11,-1
 352 874 l 1,12,13
 406 870 406 870 490 870 c 0,14,15
 570 870 570 870 629 923 c 128,-1,16
 688 976 688 976 688 1072 c 0,17,18
 688 1154 688 1154 639 1205 c 128,-1,19
 590 1256 590 1256 516 1256 c 0,20,21
 374 1256 374 1256 312 1054 c 1,22,-1
 70 1128 l 1,23,24
 108 1296 108 1296 230 1399 c 128,-1,25
 352 1502 352 1502 534 1502 c 0,26,27
 744 1502 744 1502 870 1389 c 128,-1,28
 996 1276 996 1276 996 1100 c 0,29,30
 996 992 996 992 945 905 c 128,-1,31
 894 818 894 818 814 772 c 1,32,33
 908 736 908 736 978 646 c 128,-1,34
 1048 556 1048 556 1048 428 c 0,35,36
 1048 214 1048 214 908 91 c 128,-1,37
 768 -32 768 -32 532 -32 c 0,38,39
 340 -32 340 -32 207 72 c 128,-1,40
 74 176 74 176 38 324 c 1,0,-1
EndSplineSet
Substitution2: "'subs' Subscript lookup 6 subtable" uni2083
Substitution2: "'sups' Superscript lookup 5 subtable" threesuperior
Substitution2: "'sinf' Scientific Inferiors lookup 4 subtable" uni2083
AlternateSubs2: "'aalt' Access All Alternates lookup 1 subtable" uni2083 threesuperior
EndChar

StartChar: four
Encoding: 52 52 23
Width: 1100
GlyphClass: 2
Flags: W
LayerCount: 2
Fore
SplineSet
32 532 m 1,0,-1
 660 1468 l 5,1,-1
 912 1468 l 5,2,-1
 912 534 l 1,3,-1
 1074 534 l 1,4,-1
 1074 290 l 1,5,-1
 912 290 l 1,6,-1
 912 -8 l 1,7,-1
 616 -8 l 1,8,-1
 616 290 l 1,9,-1
 32 290 l 1,10,-1
 32 532 l 1,0,-1
310 534 m 1,11,-1
 616 534 l 1,12,-1
 616 848 l 6,13,14
 616 938 616 938 624 1018 c 5,15,-1
 616 1018 l 5,16,17
 558 914 558 914 532 874 c 6,18,-1
 310 534 l 1,11,-1
EndSplineSet
Substitution2: "'subs' Subscript lookup 6 subtable" uni2084
Substitution2: "'sups' Superscript lookup 5 subtable" uni2074
Substitution2: "'sinf' Scientific Inferiors lookup 4 subtable" uni2084
AlternateSubs2: "'aalt' Access All Alternates lookup 1 subtable" uni2084 uni2074
EndChar

StartChar: five
Encoding: 53 53 24
Width: 1100
GlyphClass: 2
Flags: W
LayerCount: 2
Fore
SplineSet
56 294 m 1,0,-1
 302 382 l 1,1,2
 330 310 330 310 387 261 c 128,-1,3
 444 212 444 212 510 212 c 0,4,5
 608 212 608 212 667 280 c 128,-1,6
 726 348 726 348 726 468 c 0,7,8
 726 580 726 580 664 653 c 128,-1,9
 602 726 602 726 510 726 c 0,10,11
 384 726 384 726 296 588 c 1,12,-1
 106 660 l 1,13,-1
 184 1470 l 1,14,-1
 958 1470 l 1,15,-1
 958 1224 l 1,16,-1
 458 1224 l 1,17,-1
 422 912 l 1,18,19
 498 968 498 968 612 968 c 0,20,21
 800 968 800 968 917 834 c 128,-1,22
 1034 700 1034 700 1034 474 c 0,23,24
 1034 378 1034 378 1006 292 c 128,-1,25
 978 206 978 206 919 132 c 128,-1,26
 860 58 860 58 758 13 c 128,-1,27
 656 -32 656 -32 524 -32 c 0,28,29
 346 -32 346 -32 228 58 c 128,-1,30
 110 148 110 148 56 294 c 1,0,-1
EndSplineSet
EndChar

StartChar: six
Encoding: 54 54 25
Width: 1100
GlyphClass: 2
Flags: W
LayerCount: 2
Fore
SplineSet
370 476 m 0,0,1
 370 348 370 348 423 280 c 128,-1,2
 476 212 476 212 560 212 c 0,3,4
 642 212 642 212 693 279 c 128,-1,5
 744 346 744 346 744 476 c 256,6,7
 744 606 744 606 694 672 c 128,-1,8
 644 738 644 738 560 738 c 0,9,10
 474 738 474 738 422 670 c 128,-1,11
 370 602 370 602 370 476 c 0,0,1
64 674 m 0,12,13
 64 908 64 908 118 1089 c 128,-1,14
 172 1270 172 1270 297 1386 c 128,-1,15
 422 1502 422 1502 602 1502 c 0,16,17
 918 1502 918 1502 1046 1174 c 1,18,-1
 812 1094 l 1,19,20
 732 1256 732 1256 604 1256 c 0,21,22
 462 1256 462 1256 400 1046 c 0,23,24
 374 964 374 964 368 884 c 1,25,26
 454 982 454 982 600 982 c 0,27,28
 800 982 800 982 925 840 c 128,-1,29
 1050 698 1050 698 1050 478 c 0,30,31
 1050 254 1050 254 922 111 c 128,-1,32
 794 -32 794 -32 566 -32 c 0,33,34
 458 -32 458 -32 364 9 c 128,-1,35
 270 50 270 50 212 126 c 0,36,37
 64 310 64 310 64 674 c 0,12,13
EndSplineSet
EndChar

StartChar: seven
Encoding: 55 55 26
Width: 1100
GlyphClass: 2
Flags: W
LayerCount: 2
Fore
SplineSet
80 1216 m 1,0,-1
 80 1470 l 1,1,-1
 1032 1470 l 1,2,-1
 1032 1268 l 1,3,4
 708 760 708 760 532 0 c 5,5,-1
 224 0 l 5,6,7
 340 624 340 624 684 1216 c 1,8,-1
 80 1216 l 1,0,-1
EndSplineSet
EndChar

StartChar: eight
Encoding: 56 56 27
Width: 1100
GlyphClass: 2
Flags: W
LayerCount: 2
Fore
SplineSet
400 1074 m 0,0,1
 400 990 400 990 442 938 c 128,-1,2
 484 886 484 886 552 886 c 256,3,4
 620 886 620 886 661 939 c 128,-1,5
 702 992 702 992 702 1074 c 0,6,7
 702 1150 702 1150 662 1203 c 128,-1,8
 622 1256 622 1256 552 1256 c 256,9,10
 482 1256 482 1256 441 1204 c 128,-1,11
 400 1152 400 1152 400 1074 c 0,0,1
50 412 m 0,12,13
 50 510 50 510 95 590 c 128,-1,14
 140 670 140 670 186 707 c 128,-1,15
 232 744 232 744 288 770 c 1,16,17
 92 890 92 890 92 1086 c 0,18,19
 92 1268 92 1268 224 1385 c 128,-1,20
 356 1502 356 1502 552 1502 c 0,21,22
 750 1502 750 1502 880 1385 c 128,-1,23
 1010 1268 1010 1268 1010 1086 c 0,24,25
 1010 890 1010 890 812 770 c 1,26,27
 912 724 912 724 983 635 c 128,-1,28
 1054 546 1054 546 1054 412 c 0,29,30
 1054 212 1054 212 914 90 c 128,-1,31
 774 -32 774 -32 552 -32 c 0,32,33
 344 -32 344 -32 197 84 c 128,-1,34
 50 200 50 200 50 412 c 0,12,13
356 428 m 0,35,36
 356 336 356 336 410 274 c 128,-1,37
 464 212 464 212 552 212 c 0,38,39
 638 212 638 212 691 274 c 128,-1,40
 744 336 744 336 744 428 c 0,41,42
 744 512 744 512 692 578 c 128,-1,43
 640 644 640 644 552 644 c 256,44,45
 464 644 464 644 410 580 c 128,-1,46
 356 516 356 516 356 428 c 0,35,36
EndSplineSet
EndChar

StartChar: nine
Encoding: 57 57 28
Width: 1100
GlyphClass: 2
Flags: W
LayerCount: 2
Fore
SplineSet
356 1000 m 0,0,1
 356 882 356 882 404 813 c 128,-1,2
 452 744 452 744 538 744 c 0,3,4
 622 744 622 744 671 814 c 128,-1,5
 720 884 720 884 720 1002 c 0,6,7
 720 1112 720 1112 672 1184 c 128,-1,8
 624 1256 624 1256 538 1256 c 256,9,10
 452 1256 452 1256 404 1183 c 128,-1,11
 356 1110 356 1110 356 1000 c 0,0,1
46 292 m 1,12,-1
 286 370 l 1,13,14
 370 212 370 212 490 212 c 0,15,16
 554 212 554 212 602 249 c 128,-1,17
 650 286 650 286 676 347 c 128,-1,18
 702 408 702 408 715 470 c 128,-1,19
 728 532 728 532 732 598 c 1,20,21
 640 498 640 498 496 498 c 0,22,23
 308 498 308 498 182 635 c 128,-1,24
 56 772 56 772 56 998 c 0,25,26
 56 1220 56 1220 188 1361 c 128,-1,27
 320 1502 320 1502 536 1502 c 0,28,29
 716 1502 716 1502 836 1388 c 128,-1,30
 956 1274 956 1274 1000 1084 c 0,31,32
 1028 958 1028 958 1028 800 c 0,33,34
 1028 394 1028 394 891 181 c 128,-1,35
 754 -32 754 -32 488 -32 c 0,36,37
 326 -32 326 -32 208 67 c 128,-1,38
 90 166 90 166 46 292 c 1,12,-1
EndSplineSet
EndChar

StartChar: colon
Encoding: 58 58 29
Width: 550
GlyphClass: 2
Flags: W
LayerCount: 2
Fore
SplineSet
100 0 m 1,0,-1
 100 324 l 1,1,-1
 452 324 l 1,2,-1
 452 0 l 1,3,-1
 100 0 l 1,0,-1
100 792 m 1,4,-1
 100 1118 l 1,5,-1
 452 1118 l 1,6,-1
 452 792 l 1,7,-1
 100 792 l 1,4,-1
EndSplineSet
EndChar

StartChar: semicolon
Encoding: 59 59 30
Width: 550
GlyphClass: 2
Flags: W
LayerCount: 2
Fore
SplineSet
-8 -294 m 1,0,-1
 184 324 l 1,1,-1
 486 324 l 1,2,-1
 224 -294 l 1,3,-1
 -8 -294 l 1,0,-1
116 792 m 1,4,-1
 116 1118 l 1,5,-1
 470 1118 l 1,6,-1
 470 792 l 1,7,-1
 116 792 l 1,4,-1
EndSplineSet
EndChar

StartChar: less
Encoding: 60 60 31
Width: 1112
GlyphClass: 2
Flags: W
LayerCount: 2
Fore
SplineSet
64 580 m 1,0,-1
 64 846 l 1,1,-1
 866 1446 l 1,2,-1
 1022 1232 l 1,3,-1
 346 714 l 1,4,-1
 1022 196 l 1,5,-1
 866 -22 l 1,6,-1
 64 580 l 1,0,-1
EndSplineSet
EndChar

StartChar: equal
Encoding: 61 61 32
Width: 1112
GlyphClass: 2
Flags: W
LayerCount: 2
Fore
SplineSet
96 386 m 1,0,-1
 96 638 l 1,1,-1
 1018 638 l 1,2,-1
 1018 386 l 1,3,-1
 96 386 l 1,0,-1
96 808 m 1,4,-1
 96 1062 l 1,5,-1
 1018 1062 l 1,6,-1
 1018 808 l 1,7,-1
 96 808 l 1,4,-1
EndSplineSet
Substitution2: "'sups' Superscript lookup 5 subtable" uni207C
Substitution2: "'aalt' Access All Alternates lookup 0 subtable" uni207C
EndChar

StartChar: greater
Encoding: 62 62 33
Width: 1112
GlyphClass: 2
Flags: W
LayerCount: 2
Fore
SplineSet
246 -22 m 1,0,-1
 90 196 l 1,1,-1
 764 714 l 1,2,-1
 90 1232 l 1,3,-1
 246 1446 l 1,4,-1
 1048 846 l 1,5,-1
 1048 580 l 1,6,-1
 246 -22 l 1,0,-1
EndSplineSet
EndChar

StartChar: question
Encoding: 63 63 34
Width: 1164
GlyphClass: 2
Flags: W
LayerCount: 2
Fore
SplineSet
114 1134 m 1,0,1
 152 1290 152 1290 278 1402 c 128,-1,2
 404 1514 404 1514 596 1514 c 0,3,4
 796 1514 796 1514 925 1396 c 128,-1,5
 1054 1278 1054 1278 1054 1086 c 0,6,7
 1054 998 1054 998 1021 929 c 128,-1,8
 988 860 988 860 940 813 c 128,-1,9
 892 766 892 766 844 723 c 128,-1,10
 796 680 796 680 763 622 c 128,-1,11
 730 564 730 564 730 492 c 2,12,-1
 730 420 l 1,13,-1
 428 420 l 1,14,-1
 428 516 l 2,15,16
 428 590 428 590 452 654 c 128,-1,17
 476 718 476 718 512 759 c 128,-1,18
 548 800 548 800 588 842 c 128,-1,19
 628 884 628 884 664 919 c 128,-1,20
 700 954 700 954 723 1001 c 128,-1,21
 746 1048 746 1048 746 1100 c 0,22,23
 746 1172 746 1172 706 1216 c 128,-1,24
 666 1260 666 1260 600 1260 c 0,25,26
 456 1260 456 1260 380 1048 c 1,27,-1
 114 1134 l 1,0,1
402 -4 m 1,28,-1
 402 312 l 1,29,-1
 758 312 l 1,30,-1
 758 -4 l 1,31,-1
 402 -4 l 1,28,-1
EndSplineSet
EndChar

StartChar: at
Encoding: 64 64 35
Width: 1854
GlyphClass: 2
Flags: W
LayerCount: 2
Fore
SplineSet
86 690 m 0,0,1
 86 1064 86 1064 332 1307 c 128,-1,2
 578 1550 578 1550 964 1550 c 0,3,4
 1316 1550 1316 1550 1543 1334 c 128,-1,5
 1770 1118 1770 1118 1770 796 c 0,6,7
 1770 642 1770 642 1727 526 c 128,-1,8
 1684 410 1684 410 1614 347 c 128,-1,9
 1544 284 1544 284 1468 254 c 128,-1,10
 1392 224 1392 224 1314 224 c 256,11,12
 1236 224 1236 224 1178 264 c 128,-1,13
 1120 304 1120 304 1100 366 c 1,14,-1
 1098 366 l 1,15,16
 1074 312 1074 312 1003 269 c 128,-1,17
 932 226 932 226 848 226 c 0,18,19
 704 226 704 226 603 338 c 128,-1,20
 502 450 502 450 502 632 c 0,21,22
 502 876 502 876 624 1013 c 128,-1,23
 746 1150 746 1150 918 1150 c 0,24,25
 974 1150 974 1150 1024 1126 c 128,-1,26
 1074 1102 1074 1102 1098 1074 c 1,27,-1
 1102 1138 l 1,28,-1
 1320 1138 l 1,29,-1
 1288 536 l 2,30,31
 1288 528 1288 528 1288 522 c 0,32,33
 1288 440 1288 440 1332 440 c 0,34,35
 1400 440 1400 440 1459 533 c 128,-1,36
 1518 626 1518 626 1518 784 c 0,37,38
 1518 1030 1518 1030 1366 1185 c 128,-1,39
 1214 1340 1214 1340 962 1340 c 0,40,41
 688 1340 688 1340 514 1154 c 128,-1,42
 340 968 340 968 340 690 c 0,43,44
 340 392 340 392 509 218 c 128,-1,45
 678 44 678 44 948 44 c 0,46,47
 1152 44 1152 44 1348 100 c 1,48,-1
 1390 -94 l 1,49,50
 1200 -164 1200 -164 948 -164 c 0,51,52
 554 -164 554 -164 320 72 c 128,-1,53
 86 308 86 308 86 690 c 0,0,1
770 636 m 0,54,55
 770 568 770 568 801 512 c 128,-1,56
 832 456 832 456 888 456 c 0,57,58
 954 456 954 456 1005 536 c 128,-1,59
 1056 616 1056 616 1056 796 c 0,60,61
 1056 864 1056 864 1027 900 c 128,-1,62
 998 936 998 936 944 936 c 0,63,64
 880 936 880 936 825 851 c 128,-1,65
 770 766 770 766 770 636 c 0,54,55
EndSplineSet
EndChar

StartChar: A
Encoding: 65 65 36
Width: 1340
GlyphClass: 2
Flags: W
LayerCount: 2
Fore
SplineSet
484 568 m 1,0,-1
 854 568 l 1,1,-1
 760 880 l 2,2,3
 706 1066 706 1066 674 1180 c 1,4,-1
 664 1180 l 1,5,6
 622 1024 622 1024 580 880 c 2,7,-1
 484 568 l 1,0,-1
-8 0 m 1,8,-1
 512 1470 l 1,9,-1
 830 1470 l 1,10,-1
 1348 0 l 1,11,-1
 1034 0 l 1,12,-1
 930 328 l 1,13,-1
 412 328 l 1,14,-1
 306 0 l 1,15,-1
 -8 0 l 1,8,-1
EndSplineSet
Substitution2: "Single Substitution lookup 12 subtable" ordfeminine
EndChar

StartChar: B
Encoding: 66 66 37
Width: 1320
GlyphClass: 2
Flags: W
LayerCount: 2
Fore
SplineSet
142 0 m 1,0,-1
 142 1470 l 1,1,-1
 710 1470 l 2,2,3
 958 1470 958 1470 1078 1365 c 128,-1,4
 1198 1260 1198 1260 1198 1076 c 0,5,6
 1198 976 1198 976 1153 900 c 128,-1,7
 1108 824 1108 824 1034 780 c 1,8,9
 1116 746 1116 746 1183 657 c 128,-1,10
 1250 568 1250 568 1250 438 c 0,11,12
 1250 246 1250 246 1126 123 c 128,-1,13
 1002 0 1002 0 782 0 c 2,14,-1
 142 0 l 1,0,-1
440 254 m 1,15,-1
 740 254 l 2,16,17
 818 254 818 254 878 301 c 128,-1,18
 938 348 938 348 938 438 c 0,19,20
 938 520 938 520 885 575 c 128,-1,21
 832 630 832 630 732 630 c 2,22,-1
 440 630 l 1,23,-1
 440 254 l 1,15,-1
440 882 m 1,24,-1
 688 882 l 2,25,26
 778 882 778 882 833 925 c 128,-1,27
 888 968 888 968 888 1052 c 0,28,29
 888 1214 888 1214 692 1214 c 2,30,-1
 440 1214 l 1,31,-1
 440 882 l 1,24,-1
EndSplineSet
EndChar

StartChar: C
Encoding: 67 67 38
Width: 1342
GlyphClass: 2
Flags: W
LayerCount: 2
Fore
SplineSet
64 736 m 0,0,1
 64 1086 64 1086 250 1294 c 128,-1,2
 436 1502 436 1502 728 1502 c 0,3,4
 924 1502 924 1502 1066 1395 c 128,-1,5
 1208 1288 1208 1288 1274 1128 c 1,6,-1
 1018 1044 l 1,7,8
 968 1134 968 1134 901 1190 c 128,-1,9
 834 1246 834 1246 726 1246 c 0,10,11
 564 1246 564 1246 468 1107 c 128,-1,12
 372 968 372 968 372 736 c 0,13,14
 372 500 372 500 469 361 c 128,-1,15
 566 222 566 222 726 222 c 0,16,17
 834 222 834 222 920 292 c 128,-1,18
 1006 362 1006 362 1040 462 c 1,19,-1
 1310 376 l 1,20,21
 1288 324 1288 324 1258 271 c 128,-1,22
 1228 218 1228 218 1177 162 c 128,-1,23
 1126 106 1126 106 1064 64 c 128,-1,24
 1002 22 1002 22 915 -5 c 128,-1,25
 828 -32 828 -32 728 -32 c 0,26,27
 442 -32 442 -32 253 172 c 128,-1,28
 64 376 64 376 64 736 c 0,0,1
EndSplineSet
EndChar

StartChar: D
Encoding: 68 68 39
Width: 1366
GlyphClass: 2
Flags: W
LayerCount: 2
Fore
SplineSet
142 0 m 1,0,-1
 142 1470 l 1,1,-1
 602 1470 l 2,2,3
 944 1470 944 1470 1124 1279 c 128,-1,4
 1304 1088 1304 1088 1304 736 c 0,5,6
 1304 622 1304 622 1285 524 c 128,-1,7
 1266 426 1266 426 1216 327 c 128,-1,8
 1166 228 1166 228 1090 158 c 128,-1,9
 1014 88 1014 88 888 44 c 128,-1,10
 762 0 762 0 602 0 c 2,11,-1
 142 0 l 1,0,-1
440 252 m 1,12,-1
 572 252 l 2,13,14
 782 252 782 252 886 367 c 128,-1,15
 990 482 990 482 990 736 c 0,16,17
 990 998 990 998 883 1107 c 128,-1,18
 776 1216 776 1216 576 1216 c 2,19,-1
 440 1216 l 1,20,-1
 440 252 l 1,12,-1
EndSplineSet
EndChar

StartChar: E
Encoding: 69 69 40
Width: 1200
GlyphClass: 2
Flags: W
LayerCount: 2
Fore
SplineSet
142 0 m 1,0,-1
 142 1470 l 1,1,-1
 1134 1470 l 1,2,-1
 1134 1214 l 1,3,-1
 440 1214 l 1,4,-1
 440 884 l 1,5,-1
 1064 884 l 1,6,-1
 1064 634 l 1,7,-1
 440 634 l 1,8,-1
 440 254 l 1,9,-1
 1154 254 l 1,10,-1
 1154 0 l 1,11,-1
 142 0 l 1,0,-1
EndSplineSet
EndChar

StartChar: F
Encoding: 70 70 41
Width: 1130
GlyphClass: 2
Flags: W
LayerCount: 2
Fore
SplineSet
142 0 m 1,0,-1
 142 1470 l 1,1,-1
 1106 1470 l 1,2,-1
 1106 1214 l 1,3,-1
 440 1214 l 1,4,-1
 440 862 l 1,5,-1
 1036 862 l 1,6,-1
 1036 608 l 1,7,-1
 440 608 l 1,8,-1
 440 0 l 1,9,-1
 142 0 l 1,0,-1
EndSplineSet
EndChar

StartChar: G
Encoding: 71 71 42
Width: 1414
GlyphClass: 2
Flags: W
LayerCount: 2
Fore
SplineSet
64 736 m 0,0,1
 64 1072 64 1072 248 1287 c 128,-1,2
 432 1502 432 1502 742 1502 c 0,3,4
 862 1502 862 1502 964 1462 c 128,-1,5
 1066 1422 1066 1422 1132 1357 c 128,-1,6
 1198 1292 1198 1292 1237 1236 c 128,-1,7
 1276 1180 1276 1180 1298 1128 c 1,8,-1
 1040 1046 l 1,9,10
 1012 1090 1012 1090 992 1115 c 128,-1,11
 972 1140 972 1140 935 1176 c 128,-1,12
 898 1212 898 1212 850 1229 c 128,-1,13
 802 1246 802 1246 744 1246 c 0,14,15
 568 1246 568 1246 470 1108 c 128,-1,16
 372 970 372 970 372 736 c 256,17,18
 372 502 372 502 474 362 c 128,-1,19
 576 222 576 222 732 222 c 0,20,21
 864 222 864 222 942 290 c 128,-1,22
 1020 358 1020 358 1036 474 c 0,23,24
 1042 520 1042 520 1042 584 c 1,25,-1
 716 584 l 1,26,-1
 716 838 l 1,27,-1
 1332 838 l 1,28,-1
 1332 0 l 5,29,-1
 1128 0 l 1,30,-1
 1102 112 l 1,31,32
 982 -32 982 -32 722 -32 c 0,33,34
 444 -32 444 -32 254 177 c 128,-1,35
 64 386 64 386 64 736 c 0,0,1
EndSplineSet
EndChar

StartChar: H
Encoding: 72 72 43
Width: 1390
GlyphClass: 2
Flags: W
LayerCount: 2
Fore
SplineSet
142 0 m 1,0,-1
 142 1470 l 1,1,-1
 438 1470 l 1,2,-1
 438 882 l 1,3,-1
 954 882 l 1,4,-1
 954 1470 l 1,5,-1
 1250 1470 l 1,6,-1
 1250 0 l 1,7,-1
 954 0 l 1,8,-1
 954 628 l 1,9,-1
 438 628 l 1,10,-1
 438 0 l 1,11,-1
 142 0 l 1,0,-1
EndSplineSet
EndChar

StartChar: I
Encoding: 73 73 44
Width: 580
GlyphClass: 2
Flags: W
LayerCount: 2
Fore
SplineSet
142 0 m 1,0,-1
 142 1470 l 1,1,-1
 440 1470 l 5,2,-1
 440 0 l 1,3,-1
 142 0 l 1,0,-1
EndSplineSet
EndChar

StartChar: J
Encoding: 74 74 45
Width: 1046
GlyphClass: 2
Flags: W
LayerCount: 2
Fore
SplineSet
12 296 m 1,0,-1
 254 394 l 1,1,2
 270 328 270 328 319 275 c 128,-1,3
 368 222 368 222 440 222 c 0,4,5
 606 222 606 222 606 464 c 2,6,-1
 606 1470 l 1,7,-1
 906 1470 l 1,8,-1
 906 428 l 2,9,10
 906 212 906 212 785 90 c 128,-1,11
 664 -32 664 -32 446 -32 c 0,12,13
 268 -32 268 -32 158 67 c 128,-1,14
 48 166 48 166 12 296 c 1,0,-1
EndSplineSet
EndChar

StartChar: K
Encoding: 75 75 46
Width: 1320
GlyphClass: 2
Flags: W
LayerCount: 2
Fore
SplineSet
142 0 m 1,0,-1
 142 1470 l 1,1,-1
 440 1470 l 1,2,-1
 440 874 l 1,3,-1
 446 874 l 1,4,-1
 956 1470 l 1,5,-1
 1330 1470 l 1,6,-1
 754 824 l 1,7,-1
 1334 0 l 1,8,-1
 978 0 l 1,9,-1
 568 614 l 1,10,-1
 440 470 l 1,11,-1
 440 0 l 1,12,-1
 142 0 l 1,0,-1
EndSplineSet
EndChar

StartChar: L
Encoding: 76 76 47
Width: 1106
GlyphClass: 2
Flags: W
LayerCount: 2
Fore
SplineSet
142 0 m 1,0,-1
 142 1470 l 1,1,-1
 440 1470 l 1,2,-1
 440 254 l 1,3,-1
 1086 254 l 1,4,-1
 1086 0 l 1,5,-1
 142 0 l 1,0,-1
EndSplineSet
EndChar

StartChar: M
Encoding: 77 77 48
Width: 1682
GlyphClass: 2
Flags: W
LayerCount: 2
Fore
SplineSet
142 0 m 1,0,-1
 142 1470 l 1,1,-1
 500 1470 l 1,2,-1
 718 850 l 2,3,4
 744 778 744 778 783 647 c 128,-1,5
 822 516 822 516 836 472 c 1,6,-1
 844 472 l 1,7,8
 940 768 940 768 970 850 c 2,9,-1
 1180 1470 l 1,10,-1
 1542 1470 l 1,11,-1
 1542 0 l 1,12,-1
 1246 0 l 1,13,-1
 1246 568 l 2,14,15
 1246 708 1246 708 1278 1026 c 1,16,-1
 1268 1026 l 1,17,-1
 1144 642 l 1,18,-1
 946 68 l 1,19,-1
 738 68 l 1,20,-1
 542 642 l 1,21,-1
 414 1030 l 1,22,-1
 404 1030 l 1,23,24
 436 766 436 766 436 568 c 2,25,-1
 436 0 l 1,26,-1
 142 0 l 1,0,-1
EndSplineSet
EndChar

StartChar: N
Encoding: 78 78 49
Width: 1400
GlyphClass: 2
Flags: W
LayerCount: 2
Fore
SplineSet
142 0 m 1,0,-1
 142 1470 l 1,1,-1
 446 1470 l 1,2,-1
 984 450 l 1,3,-1
 990 450 l 1,4,5
 962 648 962 648 962 880 c 2,6,-1
 962 1470 l 1,7,-1
 1260 1470 l 1,8,-1
 1260 0 l 1,9,-1
 958 0 l 1,10,-1
 574 702 l 1,11,-1
 416 1012 l 1,12,-1
 408 1012 l 1,13,14
 440 792 440 792 440 582 c 2,15,-1
 440 0 l 1,16,-1
 142 0 l 1,0,-1
EndSplineSet
EndChar

StartChar: O
Encoding: 79 79 50
Width: 1414
GlyphClass: 2
Flags: W
LayerCount: 2
Fore
SplineSet
64 734 m 256,0,1
 64 1080 64 1080 241 1291 c 128,-1,2
 418 1502 418 1502 708 1502 c 0,3,4
 996 1502 996 1502 1173 1291 c 128,-1,5
 1350 1080 1350 1080 1350 734 c 256,6,7
 1350 388 1350 388 1173 178 c 128,-1,8
 996 -32 996 -32 708 -32 c 0,9,10
 416 -32 416 -32 240 178 c 128,-1,11
 64 388 64 388 64 734 c 256,0,1
374 734 m 0,12,13
 374 496 374 496 462 359 c 128,-1,14
 550 222 550 222 708 222 c 256,15,16
 866 222 866 222 953 360 c 128,-1,17
 1040 498 1040 498 1040 734 c 256,18,19
 1040 970 1040 970 953 1108 c 128,-1,20
 866 1246 866 1246 708 1246 c 256,21,22
 550 1246 550 1246 462 1108 c 128,-1,23
 374 970 374 970 374 734 c 0,12,13
EndSplineSet
Substitution2: "Single Substitution lookup 12 subtable" ordmasculine
EndChar

StartChar: P
Encoding: 80 80 51
Width: 1288
GlyphClass: 2
Flags: W
LayerCount: 2
Fore
SplineSet
142 0 m 1,0,-1
 142 1470 l 1,1,-1
 728 1470 l 2,2,3
 970 1470 970 1470 1102 1343 c 128,-1,4
 1234 1216 1234 1216 1234 1008 c 0,5,6
 1234 796 1234 796 1097 671 c 128,-1,7
 960 546 960 546 736 546 c 2,8,-1
 440 546 l 1,9,-1
 440 0 l 1,10,-1
 142 0 l 1,0,-1
440 802 m 1,11,-1
 694 802 l 2,12,13
 804 802 804 802 865 856 c 128,-1,14
 926 910 926 910 926 1008 c 0,15,16
 926 1214 926 1214 696 1214 c 2,17,-1
 440 1214 l 1,18,-1
 440 802 l 1,11,-1
EndSplineSet
EndChar

StartChar: Q
Encoding: 81 81 52
Width: 1414
GlyphClass: 2
Flags: W
LayerCount: 2
Fore
SplineSet
64 734 m 0,0,1
 64 1080 64 1080 241 1291 c 128,-1,2
 418 1502 418 1502 708 1502 c 0,3,4
 996 1502 996 1502 1173 1291 c 128,-1,5
 1350 1080 1350 1080 1350 734 c 0,6,7
 1350 410 1350 410 1194 206 c 1,8,-1
 1350 42 l 1,9,-1
 1188 -102 l 1,10,-1
 1036 56 l 1,11,12
 896 -32 896 -32 708 -32 c 0,13,14
 416 -32 416 -32 240 179 c 128,-1,15
 64 390 64 390 64 734 c 0,0,1
638 472 m 1,16,-1
 800 620 l 1,17,-1
 986 424 l 1,18,19
 1040 548 1040 548 1040 734 c 0,20,21
 1040 970 1040 970 953 1108 c 128,-1,22
 866 1246 866 1246 708 1246 c 256,23,24
 550 1246 550 1246 462 1108 c 128,-1,25
 374 970 374 970 374 734 c 256,26,27
 374 498 374 498 462 360 c 128,-1,28
 550 222 550 222 708 222 c 0,29,30
 786 222 786 222 846 256 c 1,31,-1
 638 472 l 1,16,-1
EndSplineSet
EndChar

StartChar: R
Encoding: 82 82 53
Width: 1338
GlyphClass: 2
Flags: W
LayerCount: 2
Fore
SplineSet
440 812 m 1,0,-1
 696 812 l 2,1,2
 926 812 926 812 926 1020 c 0,3,4
 926 1110 926 1110 865 1162 c 128,-1,5
 804 1214 804 1214 694 1214 c 2,6,-1
 440 1214 l 1,7,-1
 440 812 l 1,0,-1
142 0 m 1,8,-1
 142 1470 l 1,9,-1
 750 1470 l 2,10,11
 984 1470 984 1470 1109 1350 c 128,-1,12
 1234 1230 1234 1230 1234 1044 c 0,13,14
 1234 894 1234 894 1173 801 c 128,-1,15
 1112 708 1112 708 1030 672 c 1,16,17
 1094 622 1094 622 1120 573 c 128,-1,18
 1146 524 1146 524 1164 414 c 0,19,20
 1202 214 1202 214 1332 0 c 1,21,-1
 998 0 l 1,22,23
 896 166 896 166 850 394 c 0,24,25
 832 480 832 480 800 519 c 128,-1,26
 768 558 768 558 700 558 c 2,27,-1
 440 558 l 1,28,-1
 440 0 l 1,29,-1
 142 0 l 1,8,-1
EndSplineSet
EndChar

StartChar: S
Encoding: 83 83 54
Width: 1216
GlyphClass: 2
Flags: W
LayerCount: 2
Fore
SplineSet
32 336 m 1,0,-1
 290 424 l 1,1,2
 338 338 338 338 434 280 c 128,-1,3
 530 222 530 222 634 222 c 0,4,5
 736 222 736 222 798 272 c 128,-1,6
 860 322 860 322 860 396 c 0,7,8
 860 482 860 482 790 534 c 128,-1,9
 720 586 720 586 584 632 c 0,10,11
 372 702 372 702 300 740 c 0,12,13
 86 856 86 856 86 1084 c 0,14,15
 86 1270 86 1270 235 1386 c 128,-1,16
 384 1502 384 1502 618 1502 c 0,17,18
 818 1502 818 1502 957 1408 c 128,-1,19
 1096 1314 1096 1314 1164 1164 c 1,20,-1
 912 1082 l 1,21,22
 794 1246 794 1246 616 1246 c 0,23,24
 514 1246 514 1246 454 1202 c 128,-1,25
 394 1158 394 1158 394 1086 c 0,26,27
 394 1056 394 1056 403 1031 c 128,-1,28
 412 1006 412 1006 438 984 c 128,-1,29
 464 962 464 962 483 948 c 128,-1,30
 502 934 502 934 548 916 c 128,-1,31
 594 898 594 898 616 890 c 128,-1,32
 638 882 638 882 699 864 c 128,-1,33
 760 846 760 846 778 838 c 0,34,35
 860 812 860 812 924 779 c 128,-1,36
 988 746 988 746 1047 697 c 128,-1,37
 1106 648 1106 648 1138 574 c 128,-1,38
 1170 500 1170 500 1170 410 c 0,39,40
 1170 200 1170 200 1015 84 c 128,-1,41
 860 -32 860 -32 626 -32 c 0,42,43
 424 -32 424 -32 264 67 c 128,-1,44
 104 166 104 166 32 336 c 1,0,-1
EndSplineSet
EndChar

StartChar: T
Encoding: 84 84 55
Width: 1152
GlyphClass: 2
Flags: W
LayerCount: 2
Fore
SplineSet
18 1214 m 1,0,-1
 18 1470 l 1,1,-1
 1134 1470 l 1,2,-1
 1134 1214 l 1,3,-1
 726 1214 l 1,4,-1
 726 0 l 1,5,-1
 428 0 l 1,6,-1
 428 1214 l 1,7,-1
 18 1214 l 1,0,-1
EndSplineSet
EndChar

StartChar: U
Encoding: 85 85 56
Width: 1380
GlyphClass: 2
Flags: W
LayerCount: 2
Fore
SplineSet
132 560 m 2,0,-1
 132 1470 l 1,1,-1
 432 1470 l 1,2,-1
 432 558 l 2,3,4
 432 222 432 222 690 222 c 0,5,6
 950 222 950 222 950 558 c 2,7,-1
 950 1470 l 1,8,-1
 1250 1470 l 1,9,-1
 1250 560 l 2,10,11
 1250 272 1250 272 1110 120 c 128,-1,12
 970 -32 970 -32 690 -32 c 0,13,14
 424 -32 424 -32 278 114 c 128,-1,15
 132 260 132 260 132 560 c 2,0,-1
EndSplineSet
EndChar

StartChar: V
Encoding: 86 86 57
Width: 1258
GlyphClass: 2
Flags: W
LayerCount: 2
Fore
SplineSet
6 1470 m 1,0,-1
 328 1470 l 1,1,-1
 532 720 l 2,2,3
 580 520 580 520 626 318 c 1,4,-1
 634 316 l 1,5,6
 654 392 654 392 685 528 c 128,-1,7
 716 664 716 664 728 720 c 2,8,-1
 930 1470 l 1,9,-1
 1254 1470 l 1,10,-1
 792 0 l 1,11,-1
 466 0 l 1,12,-1
 6 1470 l 1,0,-1
EndSplineSet
EndChar

StartChar: W
Encoding: 87 87 58
Width: 1778
GlyphClass: 2
Flags: W
LayerCount: 2
Fore
SplineSet
26 1470 m 1,0,-1
 336 1470 l 1,1,-1
 452 772 l 2,2,3
 494 514 494 514 520 320 c 1,4,-1
 532 320 l 1,5,6
 552 456 552 456 610 772 c 2,7,-1
 742 1470 l 1,8,-1
 1038 1470 l 1,9,-1
 1170 772 l 2,10,11
 1198 636 1198 636 1250 320 c 1,12,-1
 1258 320 l 1,13,14
 1264 354 1264 354 1292 523 c 128,-1,15
 1320 692 1320 692 1332 772 c 2,16,-1
 1444 1470 l 1,17,-1
 1756 1470 l 1,18,-1
 1430 0 l 1,19,-1
 1094 0 l 1,20,-1
 968 688 l 2,21,22
 908 1024 908 1024 894 1112 c 1,23,-1
 884 1112 l 1,24,25
 882 1082 882 1082 814 688 c 2,26,-1
 686 0 l 1,27,-1
 350 0 l 1,28,-1
 26 1470 l 1,0,-1
EndSplineSet
EndChar

StartChar: X
Encoding: 88 88 59
Width: 1280
GlyphClass: 2
Flags: W
LayerCount: 2
Fore
SplineSet
8 0 m 1,0,-1
 472 754 l 1,1,-1
 34 1470 l 1,2,-1
 378 1470 l 1,3,-1
 534 1172 l 2,4,5
 542 1160 542 1160 582 1086 c 128,-1,6
 622 1012 622 1012 638 974 c 1,7,-1
 646 974 l 1,8,9
 684 1050 684 1050 750 1172 c 2,10,-1
 908 1470 l 1,11,-1
 1252 1470 l 1,12,-1
 814 754 l 1,13,-1
 1278 0 l 1,14,-1
 936 0 l 1,15,-1
 756 328 l 2,16,17
 732 368 732 368 694 438 c 128,-1,18
 656 508 656 508 646 528 c 1,19,-1
 638 528 l 1,20,21
 636 520 636 520 594 440 c 128,-1,22
 552 360 552 360 532 328 c 2,23,-1
 352 0 l 1,24,-1
 8 0 l 1,0,-1
EndSplineSet
EndChar

StartChar: Y
Encoding: 89 89 60
Width: 1298
GlyphClass: 2
Flags: W
LayerCount: 2
Fore
SplineSet
-2 1470 m 1,0,-1
 338 1470 l 1,1,-1
 546 1046 l 2,2,3
 570 996 570 996 646 828 c 1,4,-1
 656 828 l 1,5,6
 708 936 708 936 760 1046 c 2,7,-1
 966 1470 l 1,8,-1
 1306 1470 l 1,9,-1
 800 592 l 1,10,-1
 800 0 l 1,11,-1
 502 0 l 1,12,-1
 502 592 l 1,13,-1
 -2 1470 l 1,0,-1
EndSplineSet
EndChar

StartChar: Z
Encoding: 90 90 61
Width: 1198
GlyphClass: 2
Flags: W
LayerCount: 2
Fore
SplineSet
46 216 m 1,0,-1
 768 1214 l 1,1,-1
 106 1214 l 1,2,-1
 106 1470 l 1,3,-1
 1140 1470 l 1,4,-1
 1140 1250 l 1,5,-1
 418 254 l 1,6,-1
 1160 254 l 1,7,-1
 1160 0 l 1,8,-1
 46 0 l 1,9,-1
 46 216 l 1,0,-1
EndSplineSet
EndChar

StartChar: bracketleft
Encoding: 91 91 62
Width: 882
GlyphClass: 2
Flags: W
LayerCount: 2
Fore
SplineSet
218 -230 m 1,0,-1
 218 1646 l 1,1,-1
 728 1646 l 1,2,-1
 728 1408 l 1,3,-1
 506 1408 l 1,4,-1
 506 8 l 1,5,-1
 728 8 l 1,6,-1
 728 -230 l 1,7,-1
 218 -230 l 1,0,-1
EndSplineSet
EndChar

StartChar: backslash
Encoding: 92 92 63
Width: 776
GlyphClass: 2
Flags: W
LayerCount: 2
Fore
SplineSet
-32 1566 m 1,0,-1
 266 1566 l 1,1,-1
 808 -102 l 1,2,-1
 510 -102 l 1,3,-1
 -32 1566 l 1,0,-1
EndSplineSet
EndChar

StartChar: bracketright
Encoding: 93 93 64
Width: 882
GlyphClass: 2
Flags: W
LayerCount: 2
Fore
SplineSet
154 8 m 1,0,-1
 376 8 l 1,1,-1
 376 1408 l 1,2,-1
 154 1408 l 1,3,-1
 154 1646 l 1,4,-1
 666 1646 l 1,5,-1
 666 -230 l 1,6,-1
 154 -230 l 1,7,-1
 154 8 l 1,0,-1
EndSplineSet
EndChar

StartChar: asciicircum
Encoding: 94 94 65
Width: 1100
GlyphClass: 2
Flags: W
LayerCount: 2
Fore
SplineSet
14 900 m 1,0,-1
 416 1620 l 1,1,-1
 682 1620 l 1,2,-1
 1086 900 l 1,3,-1
 788 900 l 1,4,-1
 614 1256 l 1,5,-1
 552 1392 l 1,6,-1
 550 1392 l 1,7,-1
 484 1252 l 1,8,-1
 308 900 l 1,9,-1
 14 900 l 1,0,-1
EndSplineSet
EndChar

StartChar: underscore
Encoding: 95 95 66
Width: 1020
GlyphClass: 2
Flags: W
LayerCount: 2
Fore
SplineSet
10 -8 m 1,0,-1
 1012 -8 l 1,1,-1
 1012 -244 l 1,2,-1
 10 -244 l 1,3,-1
 10 -8 l 1,0,-1
EndSplineSet
EndChar

StartChar: grave
Encoding: 96 96 67
Width: 744
GlyphClass: 2
Flags: W
LayerCount: 2
Fore
SplineSet
340 1006 m 1,0,-1
 78 1624 l 1,1,-1
 382 1624 l 1,2,-1
 572 1006 l 1,3,-1
 340 1006 l 1,0,-1
EndSplineSet
EndChar

StartChar: a
Encoding: 97 97 68
Width: 1090
GlyphClass: 2
Flags: W
LayerCount: 2
Fore
SplineSet
344 320 m 0,0,1
 344 272 344 272 382 238 c 128,-1,2
 420 204 420 204 480 204 c 0,3,4
 574 204 574 204 641 269 c 128,-1,5
 708 334 708 334 708 442 c 2,6,-1
 708 514 l 1,7,8
 604 488 604 488 542 480 c 0,9,10
 344 450 344 450 344 320 c 0,0,1
54 294 m 0,11,12
 54 442 54 442 167 539 c 128,-1,13
 280 636 280 636 498 668 c 0,14,15
 678 696 678 696 708 706 c 1,16,-1
 708 760 l 2,17,18
 708 828 708 828 662 859 c 128,-1,19
 616 890 616 890 542 890 c 0,20,21
 374 890 374 890 252 758 c 1,22,-1
 82 902 l 1,23,24
 258 1112 258 1112 538 1112 c 0,25,26
 786 1112 786 1112 890 994 c 128,-1,27
 994 876 994 876 994 658 c 2,28,-1
 994 0 l 1,29,-1
 716 0 l 1,30,-1
 716 112 l 1,31,32
 684 50 684 50 609 9 c 128,-1,33
 534 -32 534 -32 436 -32 c 0,34,35
 260 -32 260 -32 157 58 c 128,-1,36
 54 148 54 148 54 294 c 0,11,12
EndSplineSet
Substitution2: "Single Substitution lookup 12 subtable" ordfeminine
EndChar

StartChar: b
Encoding: 98 98 69
Width: 1168
GlyphClass: 2
Flags: W
LayerCount: 2
Fore
SplineSet
122 0 m 1,0,-1
 122 1514 l 1,1,-1
 406 1514 l 1,2,-1
 406 1004 l 1,3,4
 512 1112 512 1112 654 1112 c 0,5,6
 850 1112 850 1112 982 961 c 128,-1,7
 1114 810 1114 810 1114 542 c 0,8,9
 1114 392 1114 392 1072 276 c 128,-1,10
 1030 160 1030 160 962 95 c 128,-1,11
 894 30 894 30 817 -1 c 128,-1,12
 740 -32 740 -32 658 -32 c 0,13,14
 574 -32 574 -32 502 9 c 128,-1,15
 430 50 430 50 398 106 c 1,16,-1
 398 0 l 5,17,-1
 122 0 l 1,0,-1
404 542 m 0,18,19
 404 388 404 388 459 300 c 128,-1,20
 514 212 514 212 612 212 c 0,21,22
 704 212 704 212 761 294 c 128,-1,23
 818 376 818 376 818 542 c 0,24,25
 818 694 818 694 764 781 c 128,-1,26
 710 868 710 868 612 868 c 0,27,28
 508 868 508 868 456 779 c 128,-1,29
 404 690 404 690 404 542 c 0,18,19
EndSplineSet
EndChar

StartChar: c
Encoding: 99 99 70
Width: 1044
GlyphClass: 2
Flags: W
LayerCount: 2
Fore
SplineSet
56 540 m 0,0,1
 56 806 56 806 199 959 c 128,-1,2
 342 1112 342 1112 566 1112 c 0,3,4
 738 1112 738 1112 851 1006 c 128,-1,5
 964 900 964 900 990 770 c 1,6,-1
 748 704 l 1,7,8
 730 770 730 770 685 819 c 128,-1,9
 640 868 640 868 570 868 c 0,10,11
 464 868 464 868 408 775 c 128,-1,12
 352 682 352 682 352 540 c 0,13,14
 352 380 352 380 414 296 c 128,-1,15
 476 212 476 212 570 212 c 0,16,17
 650 212 650 212 704 266 c 128,-1,18
 758 320 758 320 774 390 c 1,19,-1
 1016 324 l 1,20,21
 986 184 986 184 860 76 c 128,-1,22
 734 -32 734 -32 566 -32 c 0,23,24
 340 -32 340 -32 198 124 c 128,-1,25
 56 280 56 280 56 540 c 0,0,1
EndSplineSet
EndChar

StartChar: d
Encoding: 100 100 71
Width: 1168
GlyphClass: 2
Flags: W
LayerCount: 2
Fore
SplineSet
56 542 m 0,0,1
 56 810 56 810 186 961 c 128,-1,2
 316 1112 316 1112 520 1112 c 0,3,4
 672 1112 672 1112 762 1002 c 1,5,-1
 762 1514 l 1,6,-1
 1048 1514 l 1,7,-1
 1048 0 l 1,8,-1
 770 0 l 1,9,-1
 770 108 l 1,10,11
 738 52 738 52 668 10 c 128,-1,12
 598 -32 598 -32 518 -32 c 0,13,14
 432 -32 432 -32 352 0 c 128,-1,15
 272 32 272 32 204 97 c 128,-1,16
 136 162 136 162 96 277 c 128,-1,17
 56 392 56 392 56 542 c 0,0,1
350 542 m 0,18,19
 350 382 350 382 407 297 c 128,-1,20
 464 212 464 212 560 212 c 256,21,22
 656 212 656 212 710 300 c 128,-1,23
 764 388 764 388 764 542 c 0,24,25
 764 690 764 690 712 779 c 128,-1,26
 660 868 660 868 560 868 c 0,27,28
 456 868 456 868 403 779 c 128,-1,29
 350 690 350 690 350 542 c 0,18,19
EndSplineSet
EndChar

StartChar: e
Encoding: 101 101 72
Width: 1120
GlyphClass: 2
Flags: W
LayerCount: 2
Fore
SplineSet
56 544 m 256,0,1
 56 808 56 808 203 960 c 128,-1,2
 350 1112 350 1112 568 1112 c 0,3,4
 778 1112 778 1112 924 955 c 128,-1,5
 1070 798 1070 798 1070 544 c 0,6,7
 1070 492 1070 492 1064 440 c 1,8,-1
 346 440 l 1,9,10
 346 338 346 338 411 267 c 128,-1,11
 476 196 476 196 586 196 c 0,12,13
 666 196 666 196 726 236 c 128,-1,14
 786 276 786 276 816 340 c 1,15,-1
 1056 254 l 1,16,17
 1002 134 1002 134 880 51 c 128,-1,18
 758 -32 758 -32 576 -32 c 0,19,20
 348 -32 348 -32 202 124 c 128,-1,21
 56 280 56 280 56 544 c 256,0,1
348 636 m 1,22,-1
 778 636 l 1,23,24
 778 740 778 740 723 814 c 128,-1,25
 668 888 668 888 568 888 c 0,26,27
 464 888 464 888 406 813 c 128,-1,28
 348 738 348 738 348 636 c 1,22,-1
EndSplineSet
EndChar

StartChar: f
Encoding: 102 102 73
Width: 708
GlyphClass: 2
Flags: W
LayerCount: 2
Fore
SplineSet
44 838 m 1,0,-1
 44 1080 l 1,1,-1
 198 1080 l 1,2,-1
 198 1170 l 2,3,4
 198 1340 198 1340 282 1427 c 128,-1,5
 366 1514 366 1514 524 1514 c 2,6,-1
 714 1514 l 1,7,-1
 714 1268 l 1,8,-1
 568 1268 l 2,9,10
 524 1268 524 1268 504 1242 c 128,-1,11
 484 1216 484 1216 484 1152 c 2,12,-1
 484 1080 l 1,13,-1
 690 1080 l 1,14,-1
 690 838 l 1,15,-1
 484 838 l 1,16,-1
 484 0 l 1,17,-1
 198 0 l 1,18,-1
 198 838 l 1,19,-1
 44 838 l 1,0,-1
EndSplineSet
EndChar

StartChar: g
Encoding: 103 103 74
Width: 1134
GlyphClass: 2
Flags: W
LayerCount: 2
Fore
SplineSet
358 562 m 0,0,1
 358 412 358 412 411 334 c 128,-1,2
 464 256 464 256 552 256 c 256,3,4
 640 256 640 256 692 334 c 128,-1,5
 744 412 744 412 744 562 c 0,6,7
 744 710 744 710 691 789 c 128,-1,8
 638 868 638 868 552 868 c 0,9,10
 464 868 464 868 411 788 c 128,-1,11
 358 708 358 708 358 562 c 0,0,1
62 560 m 0,12,13
 62 814 62 814 191 963 c 128,-1,14
 320 1112 320 1112 516 1112 c 0,15,16
 600 1112 600 1112 659 1073 c 128,-1,17
 718 1034 718 1034 744 988 c 1,18,-1
 744 1080 l 1,19,-1
 1032 1080 l 1,20,-1
 1032 164 l 2,21,22
 1032 -142 1032 -142 907 -286 c 128,-1,23
 782 -430 782 -430 530 -430 c 0,24,25
 248 -430 248 -430 96 -216 c 1,26,-1
 282 -82 l 1,27,28
 380 -202 380 -202 534 -202 c 0,29,30
 616 -202 616 -202 676 -143 c 128,-1,31
 736 -84 736 -84 744 8 c 0,32,33
 748 74 748 74 748 114 c 1,34,35
 716 70 716 70 651 41 c 128,-1,36
 586 12 586 12 524 12 c 0,37,38
 320 12 320 12 191 161 c 128,-1,39
 62 310 62 310 62 560 c 0,12,13
EndSplineSet
EndChar

StartChar: h
Encoding: 104 104 75
Width: 1124
GlyphClass: 2
Flags: W
LayerCount: 2
Fore
SplineSet
122 0 m 1,0,-1
 122 1514 l 1,1,-1
 406 1514 l 1,2,-1
 406 1010 l 1,3,-1
 412 1010 l 1,4,5
 508 1112 508 1112 658 1112 c 0,6,7
 728 1112 728 1112 790 1091 c 128,-1,8
 852 1070 852 1070 907 1024 c 128,-1,9
 962 978 962 978 994 893 c 128,-1,10
 1026 808 1026 808 1026 692 c 2,11,-1
 1026 0 l 1,12,-1
 740 0 l 1,13,-1
 740 660 l 2,14,15
 740 868 740 868 606 868 c 0,16,17
 518 868 518 868 462 790 c 128,-1,18
 406 712 406 712 406 606 c 2,19,-1
 406 0 l 1,20,-1
 122 0 l 1,0,-1
EndSplineSet
Substitution2: "'sups' Superscript lookup 5 subtable" uni02B0
Substitution2: "'aalt' Access All Alternates lookup 0 subtable" uni02B0
EndChar

StartChar: i
Encoding: 105 105 76
Width: 534
GlyphClass: 2
Flags: W
LayerCount: 2
Fore
SplineSet
122 1196 m 1,0,-1
 122 1490 l 1,1,-1
 412 1490 l 1,2,-1
 412 1196 l 1,3,-1
 122 1196 l 1,0,-1
126 0 m 1,4,-1
 126 1080 l 1,5,-1
 410 1080 l 1,6,-1
 410 0 l 1,7,-1
 126 0 l 1,4,-1
EndSplineSet
EndChar

StartChar: j
Encoding: 106 106 77
Width: 546
GlyphClass: 2
Flags: W
LayerCount: 2
Fore
SplineSet
132 1196 m 1,0,-1
 132 1490 l 1,1,-1
 428 1490 l 1,2,-1
 428 1196 l 1,3,-1
 132 1196 l 1,0,-1
-24 -160 m 1,4,-1
 8 -160 l 2,5,6
 74 -160 74 -160 105 -116 c 128,-1,7
 136 -72 136 -72 136 26 c 2,8,-1
 136 1080 l 1,9,-1
 424 1080 l 1,10,-1
 424 16 l 2,11,12
 424 -194 424 -194 329 -301 c 128,-1,13
 234 -408 234 -408 54 -408 c 2,14,-1
 -24 -408 l 1,15,-1
 -24 -160 l 1,4,-1
EndSplineSet
Substitution2: "'sups' Superscript lookup 5 subtable" uni02B2
Substitution2: "'aalt' Access All Alternates lookup 0 subtable" uni02B2
EndChar

StartChar: k
Encoding: 107 107 78
Width: 1078
GlyphClass: 2
Flags: W
LayerCount: 2
Fore
SplineSet
122 0 m 1,0,-1
 122 1514 l 1,1,-1
 406 1514 l 1,2,-1
 406 718 l 1,3,-1
 738 1080 l 1,4,-1
 1092 1080 l 1,5,-1
 686 638 l 1,6,-1
 1106 0 l 1,7,-1
 774 0 l 1,8,-1
 500 436 l 1,9,-1
 406 332 l 1,10,-1
 406 0 l 1,11,-1
 122 0 l 1,0,-1
EndSplineSet
EndChar

StartChar: l
Encoding: 108 108 79
Width: 544
GlyphClass: 2
Flags: W
LayerCount: 2
Fore
SplineSet
130 0 m 1,0,-1
 130 1514 l 1,1,-1
 416 1514 l 1,2,-1
 416 0 l 1,3,-1
 130 0 l 1,0,-1
EndSplineSet
Substitution2: "'sups' Superscript lookup 5 subtable" uni02E1
Substitution2: "'aalt' Access All Alternates lookup 0 subtable" uni02E1
EndChar

StartChar: m
Encoding: 109 109 80
Width: 1652
GlyphClass: 2
Flags: W
LayerCount: 2
Fore
SplineSet
112 0 m 1,0,-1
 112 1080 l 1,1,-1
 386 1080 l 1,2,-1
 386 978 l 1,3,-1
 388 978 l 1,4,5
 406 1004 406 1004 434 1030 c 128,-1,6
 462 1056 462 1056 523 1084 c 128,-1,7
 584 1112 584 1112 648 1112 c 0,8,9
 816 1112 816 1112 900 952 c 1,10,11
 1004 1112 1004 1112 1214 1112 c 0,12,13
 1310 1112 1310 1112 1379 1078 c 128,-1,14
 1448 1044 1448 1044 1486 982 c 128,-1,15
 1524 920 1524 920 1540 849 c 128,-1,16
 1556 778 1556 778 1556 692 c 2,17,-1
 1556 0 l 1,18,-1
 1268 0 l 1,19,-1
 1268 688 l 2,20,21
 1268 778 1268 778 1242 823 c 128,-1,22
 1216 868 1216 868 1152 868 c 0,23,24
 1070 868 1070 868 1022 799 c 128,-1,25
 974 730 974 730 974 636 c 2,26,-1
 974 0 l 1,27,-1
 690 0 l 1,28,-1
 690 694 l 2,29,30
 690 776 690 776 661 822 c 128,-1,31
 632 868 632 868 574 868 c 0,32,33
 486 868 486 868 442 805 c 128,-1,34
 398 742 398 742 398 636 c 2,35,-1
 398 0 l 1,36,-1
 112 0 l 1,0,-1
EndSplineSet
EndChar

StartChar: n
Encoding: 110 110 81
Width: 1116
GlyphClass: 2
Flags: W
LayerCount: 2
Fore
SplineSet
112 0 m 1,0,-1
 112 1080 l 1,1,-1
 386 1080 l 1,2,-1
 386 974 l 1,3,-1
 388 974 l 1,4,5
 476 1112 476 1112 662 1112 c 0,6,7
 1020 1112 1020 1112 1020 692 c 2,8,-1
 1020 0 l 1,9,-1
 734 0 l 1,10,-1
 734 658 l 2,11,12
 734 774 734 774 702 821 c 128,-1,13
 670 868 670 868 600 868 c 0,14,15
 510 868 510 868 454 796 c 128,-1,16
 398 724 398 724 398 614 c 2,17,-1
 398 0 l 1,18,-1
 112 0 l 1,0,-1
EndSplineSet
Substitution2: "'sups' Superscript lookup 5 subtable" uni207F
Substitution2: "'aalt' Access All Alternates lookup 0 subtable" uni207F
EndChar

StartChar: o
Encoding: 111 111 82
Width: 1124
GlyphClass: 2
Flags: W
LayerCount: 2
Fore
SplineSet
350 540 m 0,0,1
 350 362 350 362 416 287 c 128,-1,2
 482 212 482 212 564 212 c 0,3,4
 598 212 598 212 631 227 c 128,-1,5
 664 242 664 242 698 275 c 128,-1,6
 732 308 732 308 754 377 c 128,-1,7
 776 446 776 446 776 540 c 0,8,9
 776 636 776 636 755 704 c 128,-1,10
 734 772 734 772 699 806 c 128,-1,11
 664 840 664 840 631 854 c 128,-1,12
 598 868 598 868 564 868 c 0,13,14
 482 868 482 868 416 794 c 128,-1,15
 350 720 350 720 350 540 c 0,0,1
56 540 m 0,16,17
 56 652 56 652 85 751 c 128,-1,18
 114 850 114 850 172 933 c 128,-1,19
 230 1016 230 1016 331 1064 c 128,-1,20
 432 1112 432 1112 564 1112 c 0,21,22
 694 1112 694 1112 795 1064 c 128,-1,23
 896 1016 896 1016 954 933 c 128,-1,24
 1012 850 1012 850 1041 751 c 128,-1,25
 1070 652 1070 652 1070 540 c 0,26,27
 1070 468 1070 468 1057 397 c 128,-1,28
 1044 326 1044 326 1009 246 c 128,-1,29
 974 166 974 166 920 106 c 128,-1,30
 866 46 866 46 774 7 c 128,-1,31
 682 -32 682 -32 564 -32 c 256,32,33
 446 -32 446 -32 355 6 c 128,-1,34
 264 44 264 44 208 102 c 128,-1,35
 152 160 152 160 117 238 c 128,-1,36
 82 316 82 316 69 390 c 128,-1,37
 56 464 56 464 56 540 c 0,16,17
EndSplineSet
Substitution2: "Single Substitution lookup 12 subtable" ordmasculine
EndChar

StartChar: p
Encoding: 112 112 83
Width: 1168
GlyphClass: 2
Flags: W
LayerCount: 2
Fore
SplineSet
404 542 m 0,0,1
 404 390 404 390 459 301 c 128,-1,2
 514 212 514 212 612 212 c 0,3,4
 708 212 708 212 764 297 c 128,-1,5
 820 382 820 382 820 542 c 0,6,7
 820 696 820 696 765 782 c 128,-1,8
 710 868 710 868 612 868 c 0,9,10
 510 868 510 868 457 779 c 128,-1,11
 404 690 404 690 404 542 c 0,0,1
122 -424 m 1,12,-1
 122 1080 l 1,13,-1
 396 1080 l 1,14,-1
 396 974 l 1,15,16
 496 1112 496 1112 654 1112 c 0,17,18
 852 1112 852 1112 983 960 c 128,-1,19
 1114 808 1114 808 1114 542 c 0,20,21
 1114 392 1114 392 1071 276 c 128,-1,22
 1028 160 1028 160 958 95 c 128,-1,23
 888 30 888 30 811 -1 c 128,-1,24
 734 -32 734 -32 654 -32 c 0,25,26
 558 -32 558 -32 497 6 c 128,-1,27
 436 44 436 44 408 90 c 1,28,-1
 408 -424 l 1,29,-1
 122 -424 l 1,12,-1
EndSplineSet
EndChar

StartChar: q
Encoding: 113 113 84
Width: 1166
GlyphClass: 2
Flags: W
LayerCount: 2
Fore
SplineSet
350 542 m 0,0,1
 350 382 350 382 406 297 c 128,-1,2
 462 212 462 212 556 212 c 0,3,4
 652 212 652 212 709 299 c 128,-1,5
 766 386 766 386 766 542 c 0,6,7
 766 688 766 688 712 778 c 128,-1,8
 658 868 658 868 558 868 c 256,9,10
 458 868 458 868 404 779 c 128,-1,11
 350 690 350 690 350 542 c 0,0,1
56 542 m 0,12,13
 56 808 56 808 187 960 c 128,-1,14
 318 1112 318 1112 516 1112 c 0,15,16
 670 1112 670 1112 772 974 c 1,17,-1
 772 1080 l 1,18,-1
 1048 1080 l 1,19,-1
 1048 -424 l 1,20,-1
 762 -424 l 1,21,-1
 762 92 l 1,22,23
 678 -32 678 -32 516 -32 c 0,24,25
 436 -32 436 -32 359 -1 c 128,-1,26
 282 30 282 30 212 94 c 128,-1,27
 142 158 142 158 99 274 c 128,-1,28
 56 390 56 390 56 542 c 0,12,13
EndSplineSet
EndChar

StartChar: r
Encoding: 114 114 85
Width: 756
GlyphClass: 2
Flags: W
LayerCount: 2
Fore
SplineSet
112 0 m 1,0,-1
 112 1080 l 1,1,-1
 386 1080 l 1,2,-1
 386 988 l 1,3,4
 420 1040 420 1040 484 1076 c 128,-1,5
 548 1112 548 1112 626 1112 c 0,6,7
 720 1112 720 1112 760 1094 c 1,8,-1
 760 830 l 1,9,10
 696 850 696 850 626 850 c 0,11,12
 512 850 512 850 455 761 c 128,-1,13
 398 672 398 672 398 520 c 2,14,-1
 398 0 l 1,15,-1
 112 0 l 1,0,-1
EndSplineSet
Substitution2: "'sups' Superscript lookup 5 subtable" uni02B3
Substitution2: "'aalt' Access All Alternates lookup 0 subtable" uni02B3
EndChar

StartChar: s
Encoding: 115 115 86
Width: 1000
GlyphClass: 2
Flags: W
LayerCount: 2
Fore
SplineSet
36 234 m 1,0,-1
 236 352 l 1,1,2
 346 198 346 198 512 198 c 0,3,4
 580 198 580 198 618 227 c 128,-1,5
 656 256 656 256 656 300 c 0,6,7
 656 314 656 314 652 328 c 128,-1,8
 648 342 648 342 638 354 c 128,-1,9
 628 366 628 366 617 375 c 128,-1,10
 606 384 606 384 587 394 c 128,-1,11
 568 404 568 404 554 410 c 128,-1,12
 540 416 540 416 516 425 c 128,-1,13
 492 434 492 434 476 439 c 128,-1,14
 460 444 460 444 431 453 c 128,-1,15
 402 462 402 462 388 466 c 0,16,17
 252 512 252 512 170 584 c 128,-1,18
 88 656 88 656 88 794 c 0,19,20
 88 940 88 940 215 1026 c 128,-1,21
 342 1112 342 1112 514 1112 c 0,22,23
 648 1112 648 1112 771 1041 c 128,-1,24
 894 970 894 970 954 856 c 1,25,-1
 766 744 l 1,26,27
 652 884 652 884 516 884 c 0,28,29
 452 884 452 884 415 857 c 128,-1,30
 378 830 378 830 378 788 c 0,31,32
 378 768 378 768 386 751 c 128,-1,33
 394 734 394 734 411 720 c 128,-1,34
 428 706 428 706 443 695 c 128,-1,35
 458 684 458 684 487 673 c 128,-1,36
 516 662 516 662 534 656 c 128,-1,37
 552 650 552 650 589 638 c 128,-1,38
 626 626 626 626 642 622 c 0,39,40
 952 516 952 516 952 296 c 0,41,42
 952 160 952 160 840 64 c 128,-1,43
 728 -32 728 -32 520 -32 c 0,44,45
 358 -32 358 -32 229 41 c 128,-1,46
 100 114 100 114 36 234 c 1,0,-1
EndSplineSet
Substitution2: "'hist' Historical Forms lookup 11 subtable" longs
Substitution2: "'sups' Superscript lookup 5 subtable" uni02E2
AlternateSubs2: "'aalt' Access All Alternates lookup 1 subtable" uni02E2 longs
EndChar

StartChar: t
Encoding: 116 116 87
Width: 746
GlyphClass: 2
Flags: W
LayerCount: 2
Fore
SplineSet
30 838 m 1,0,-1
 30 1080 l 1,1,-1
 184 1080 l 1,2,-1
 184 1388 l 1,3,-1
 468 1388 l 1,4,-1
 468 1080 l 1,5,-1
 692 1080 l 1,6,-1
 692 838 l 1,7,-1
 468 838 l 1,8,-1
 468 362 l 2,9,10
 468 244 468 244 572 244 c 2,11,-1
 694 244 l 1,12,-1
 694 0 l 1,13,-1
 536 0 l 2,14,15
 184 0 184 0 184 346 c 2,16,-1
 184 838 l 1,17,-1
 30 838 l 1,0,-1
EndSplineSet
EndChar

StartChar: u
Encoding: 117 117 88
Width: 1112
GlyphClass: 2
Flags: W
LayerCount: 2
Fore
SplineSet
96 398 m 2,0,-1
 96 1080 l 1,1,-1
 384 1080 l 1,2,-1
 384 428 l 2,3,4
 384 212 384 212 530 212 c 0,5,6
 616 212 616 212 665 292 c 128,-1,7
 714 372 714 372 714 482 c 2,8,-1
 714 1080 l 1,9,-1
 1002 1080 l 1,10,-1
 1002 0 l 1,11,-1
 726 0 l 1,12,-1
 726 96 l 1,13,-1
 722 96 l 1,14,15
 690 44 690 44 622 6 c 128,-1,16
 554 -32 554 -32 466 -32 c 0,17,18
 420 -32 420 -32 376 -24 c 128,-1,19
 332 -16 332 -16 279 12 c 128,-1,20
 226 40 226 40 187 85 c 128,-1,21
 148 130 148 130 122 211 c 128,-1,22
 96 292 96 292 96 398 c 2,0,-1
EndSplineSet
EndChar

StartChar: v
Encoding: 118 118 89
Width: 1072
GlyphClass: 2
Flags: W
LayerCount: 2
Fore
SplineSet
16 1080 m 1,0,-1
 326 1080 l 1,1,-1
 450 600 l 2,2,3
 504 372 504 372 534 240 c 1,4,-1
 538 240 l 1,5,6
 550 288 550 288 582 417 c 128,-1,7
 614 546 614 546 626 600 c 2,8,-1
 746 1080 l 1,9,-1
 1058 1080 l 1,10,-1
 696 0 l 1,11,-1
 376 0 l 1,12,-1
 16 1080 l 1,0,-1
EndSplineSet
EndChar

StartChar: w
Encoding: 119 119 90
Width: 1510
GlyphClass: 2
Flags: W
LayerCount: 2
Fore
SplineSet
18 1080 m 1,0,-1
 322 1080 l 1,1,-1
 406 614 l 2,2,3
 412 570 412 570 429 464 c 128,-1,4
 446 358 446 358 460 284 c 1,5,-1
 466 284 l 1,6,7
 476 340 476 340 500 471 c 128,-1,8
 524 602 524 602 526 614 c 2,9,-1
 612 1080 l 1,10,-1
 900 1080 l 1,11,-1
 986 612 l 2,12,13
 992 568 992 568 1014 454 c 128,-1,14
 1036 340 1036 340 1044 284 c 1,15,-1
 1052 284 l 1,16,17
 1076 436 1076 436 1106 614 c 2,18,-1
 1190 1080 l 1,19,-1
 1494 1080 l 1,20,-1
 1204 0 l 1,21,-1
 898 0 l 1,22,-1
 814 452 l 2,23,24
 804 502 804 502 786 612 c 128,-1,25
 768 722 768 722 760 770 c 1,26,-1
 752 770 l 1,27,28
 744 712 744 712 723 591 c 128,-1,29
 702 470 702 470 698 452 c 2,30,-1
 614 0 l 1,31,-1
 306 0 l 1,32,-1
 18 1080 l 1,0,-1
EndSplineSet
Substitution2: "'sups' Superscript lookup 5 subtable" uni02B7
Substitution2: "'aalt' Access All Alternates lookup 0 subtable" uni02B7
EndChar

StartChar: x
Encoding: 120 120 91
Width: 1124
GlyphClass: 2
Flags: W
LayerCount: 2
Fore
SplineSet
12 0 m 1,0,-1
 394 552 l 1,1,-1
 30 1080 l 1,2,-1
 378 1080 l 1,3,-1
 488 874 l 2,4,5
 536 778 536 778 558 744 c 1,6,-1
 564 744 l 2,7,8
 566 746 566 746 593 798 c 128,-1,9
 620 850 620 850 632 874 c 2,10,-1
 744 1080 l 1,11,-1
 1092 1080 l 1,12,-1
 726 552 l 1,13,-1
 1110 0 l 1,14,-1
 772 0 l 1,15,-1
 644 222 l 2,16,17
 600 304 600 304 564 366 c 1,18,-1
 558 366 l 1,19,20
 500 262 500 262 478 222 c 2,21,-1
 350 0 l 1,22,-1
 12 0 l 1,0,-1
EndSplineSet
Substitution2: "'sups' Superscript lookup 5 subtable" uni02E3
Substitution2: "'aalt' Access All Alternates lookup 0 subtable" uni02E3
EndChar

StartChar: y
Encoding: 121 121 92
Width: 1076
GlyphClass: 2
Flags: W
LayerCount: 2
Fore
SplineSet
10 1080 m 1,0,-1
 320 1080 l 1,1,-1
 482 570 l 2,2,3
 516 456 516 456 544 338 c 1,4,-1
 550 338 l 1,5,6
 574 442 574 442 608 570 c 2,7,-1
 754 1080 l 1,8,-1
 1062 1080 l 1,9,-1
 624 -118 l 2,10,11
 564 -288 564 -288 460 -356 c 128,-1,12
 356 -424 356 -424 200 -424 c 2,13,-1
 118 -424 l 1,14,-1
 118 -184 l 1,15,-1
 152 -184 l 2,16,17
 242 -184 242 -184 293 -153 c 128,-1,18
 344 -122 344 -122 372 -46 c 2,19,-1
 406 50 l 1,20,-1
 10 1080 l 1,0,-1
EndSplineSet
Substitution2: "'sups' Superscript lookup 5 subtable" uni02B8
Substitution2: "'aalt' Access All Alternates lookup 0 subtable" uni02B8
EndChar

StartChar: z
Encoding: 122 122 93
Width: 992
GlyphClass: 2
Flags: W
LayerCount: 2
Fore
SplineSet
40 0 m 1,0,-1
 40 188 l 1,1,-1
 554 838 l 1,2,-1
 78 838 l 1,3,-1
 78 1080 l 1,4,-1
 930 1080 l 1,5,-1
 930 902 l 1,6,-1
 410 244 l 1,7,-1
 954 244 l 1,8,-1
 954 0 l 1,9,-1
 40 0 l 1,0,-1
EndSplineSet
EndChar

StartChar: braceleft
Encoding: 123 123 94
Width: 882
GlyphClass: 2
Flags: W
LayerCount: 2
Fore
SplineSet
104 598 m 1,0,-1
 104 818 l 1,1,-1
 174 818 l 2,2,3
 254 818 254 818 254 1000 c 2,4,-1
 254 1348 l 2,5,6
 254 1490 254 1490 336 1568 c 128,-1,7
 418 1646 418 1646 558 1646 c 2,8,-1
 732 1646 l 1,9,-1
 732 1408 l 1,10,-1
 612 1408 l 2,11,12
 580 1408 580 1408 560 1382 c 128,-1,13
 540 1356 540 1356 540 1316 c 2,14,-1
 540 970 l 2,15,16
 540 806 540 806 402 708 c 1,17,18
 456 674 456 674 498 610 c 128,-1,19
 540 546 540 546 540 450 c 2,20,-1
 540 98 l 2,21,22
 540 8 540 8 616 8 c 2,23,-1
 732 8 l 1,24,-1
 732 -230 l 1,25,-1
 558 -230 l 2,26,27
 424 -230 424 -230 339 -156 c 128,-1,28
 254 -82 254 -82 254 66 c 2,29,-1
 254 418 l 2,30,31
 254 598 254 598 174 598 c 2,32,-1
 104 598 l 1,0,-1
EndSplineSet
EndChar

StartChar: bar
Encoding: 124 124 95
Width: 620
GlyphClass: 2
Flags: W
LayerCount: 2
Fore
SplineSet
166 -300 m 1,0,-1
 166 1712 l 1,1,-1
 454 1712 l 1,2,-1
 454 -300 l 1,3,-1
 166 -300 l 1,0,-1
EndSplineSet
EndChar

StartChar: braceright
Encoding: 125 125 96
Width: 882
GlyphClass: 2
Flags: W
LayerCount: 2
Fore
SplineSet
150 8 m 1,0,-1
 272 8 l 2,1,2
 344 8 344 8 344 98 c 2,3,-1
 344 450 l 2,4,5
 344 520 344 520 372 579 c 128,-1,6
 400 638 400 638 422 659 c 128,-1,7
 444 680 444 680 482 710 c 1,8,9
 344 802 344 802 344 970 c 2,10,-1
 344 1316 l 2,11,12
 344 1356 344 1356 325 1382 c 128,-1,13
 306 1408 306 1408 272 1408 c 2,14,-1
 150 1408 l 1,15,-1
 150 1646 l 1,16,-1
 324 1646 l 2,17,18
 464 1646 464 1646 548 1568 c 128,-1,19
 632 1490 632 1490 632 1348 c 2,20,-1
 632 1000 l 2,21,22
 632 818 632 818 710 818 c 2,23,-1
 778 818 l 1,24,-1
 778 598 l 1,25,-1
 710 598 l 2,26,27
 632 598 632 598 632 418 c 2,28,-1
 632 66 l 2,29,30
 632 -80 632 -80 546 -155 c 128,-1,31
 460 -230 460 -230 324 -230 c 2,32,-1
 150 -230 l 1,33,-1
 150 8 l 1,0,-1
EndSplineSet
EndChar

StartChar: asciitilde
Encoding: 126 126 97
Width: 1616
GlyphClass: 2
Flags: W
LayerCount: 2
Fore
SplineSet
120 588 m 1,0,1
 254 972 254 972 570 972 c 0,2,3
 640 972 640 972 701 946 c 128,-1,4
 762 920 762 920 805 883 c 128,-1,5
 848 846 848 846 886 808 c 128,-1,6
 924 770 924 770 964 744 c 128,-1,7
 1004 718 1004 718 1040 718 c 0,8,9
 1096 718 1096 718 1139 755 c 128,-1,10
 1182 792 1182 792 1202 830 c 128,-1,11
 1222 868 1222 868 1244 932 c 1,12,-1
 1496 824 l 1,13,14
 1370 444 1370 444 1048 444 c 0,15,16
 968 444 968 444 893 484 c 128,-1,17
 818 524 818 524 772 572 c 128,-1,18
 726 620 726 620 672 660 c 128,-1,19
 618 700 618 700 572 700 c 0,20,21
 504 700 504 700 453 638 c 128,-1,22
 402 576 402 576 372 486 c 1,23,-1
 120 588 l 1,0,1
EndSplineSet
EndChar

StartChar: exclamdown
Encoding: 161 161 99
Width: 622
GlyphClass: 2
Flags: W
LayerCount: 2
Fore
SplineSet
152 -396 m 1,0,-1
 170 664 l 1,1,-1
 452 664 l 1,2,-1
 466 -396 l 1,3,-1
 152 -396 l 1,0,-1
132 774 m 1,4,-1
 132 1090 l 1,5,-1
 488 1090 l 1,6,-1
 488 774 l 1,7,-1
 132 774 l 1,4,-1
EndSplineSet
EndChar

StartChar: cent
Encoding: 162 162 100
Width: 1044
GlyphClass: 2
Flags: W
LayerCount: 2
Fore
SplineSet
56 540 m 0,0,1
 56 744 56 744 150 896 c 128,-1,2
 244 1048 244 1048 420 1094 c 1,3,-1
 420 1248 l 1,4,-1
 680 1248 l 1,5,-1
 680 1098 l 1,6,7
 806 1068 806 1068 888 973 c 128,-1,8
 970 878 970 878 992 770 c 1,9,-1
 748 704 l 1,10,11
 696 868 696 868 572 868 c 0,12,13
 464 868 464 868 408 774 c 128,-1,14
 352 680 352 680 352 540 c 0,15,16
 352 390 352 390 410 301 c 128,-1,17
 468 212 468 212 568 212 c 0,18,19
 648 212 648 212 701 264 c 128,-1,20
 754 316 754 316 774 390 c 1,21,-1
 1016 324 l 1,22,23
 992 218 992 218 905 120 c 128,-1,24
 818 22 818 22 680 -18 c 1,25,-1
 680 -184 l 1,26,-1
 420 -184 l 1,27,-1
 420 -14 l 1,28,29
 260 26 260 26 158 174 c 128,-1,30
 56 322 56 322 56 540 c 0,0,1
EndSplineSet
EndChar

StartChar: sterling
Encoding: 163 163 101
Width: 1226
GlyphClass: 2
Flags: W
LayerCount: 2
Fore
SplineSet
78 594 m 1,0,-1
 78 848 l 1,1,-1
 286 848 l 1,2,-1
 286 1110 l 2,3,4
 286 1302 286 1302 416 1402 c 128,-1,5
 546 1502 546 1502 762 1502 c 0,6,7
 904 1502 904 1502 1015 1426 c 128,-1,8
 1126 1350 1126 1350 1174 1254 c 1,9,-1
 944 1144 l 1,10,11
 868 1240 868 1240 764 1240 c 0,12,13
 686 1240 686 1240 633 1202 c 128,-1,14
 580 1164 580 1164 580 1082 c 2,15,-1
 580 848 l 1,16,-1
 954 848 l 1,17,-1
 954 594 l 1,18,-1
 580 594 l 1,19,-1
 580 448 l 2,20,21
 580 340 580 340 552 286 c 1,22,23
 602 292 602 292 620 292 c 0,24,25
 678 292 678 292 770 257 c 128,-1,26
 862 222 862 222 930 222 c 0,27,28
 1034 222 1034 222 1140 278 c 1,29,-1
 1214 32 l 1,30,31
 1060 -32 1060 -32 930 -32 c 0,32,33
 862 -32 862 -32 725 4 c 128,-1,34
 588 40 588 40 524 40 c 0,35,36
 452 40 452 40 353 24 c 128,-1,37
 254 8 254 8 194 -8 c 2,38,-1
 132 -22 l 1,39,-1
 64 188 l 1,40,41
 168 210 168 210 227 262 c 128,-1,42
 286 314 286 314 286 432 c 2,43,-1
 286 594 l 1,44,-1
 78 594 l 1,0,-1
EndSplineSet
EndChar

StartChar: currency
Encoding: 164 164 102
Width: 1342
GlyphClass: 2
Flags: W
LayerCount: 2
Fore
SplineSet
38 304 m 1,0,-1
 254 504 l 1,1,2
 234 536 234 536 215 598 c 128,-1,3
 196 660 196 660 196 724 c 0,4,5
 196 786 196 786 214 849 c 128,-1,6
 232 912 232 912 254 944 c 1,7,-1
 38 1144 l 1,8,-1
 236 1332 l 1,9,-1
 438 1132 l 1,10,11
 556 1196 556 1196 674 1196 c 0,12,13
 788 1196 788 1196 906 1132 c 1,14,-1
 1110 1332 l 1,15,-1
 1304 1144 l 1,16,-1
 1090 944 l 1,17,18
 1148 850 1148 850 1148 724 c 0,19,20
 1148 660 1148 660 1129 598 c 128,-1,21
 1110 536 1110 536 1090 504 c 1,22,-1
 1304 304 l 1,23,-1
 1110 116 l 1,24,-1
 906 316 l 1,25,26
 780 250 780 250 674 250 c 0,27,28
 556 250 556 250 438 316 c 1,29,-1
 236 116 l 1,30,-1
 38 304 l 1,0,-1
456 724 m 0,31,32
 456 636 456 636 516 571 c 128,-1,33
 576 506 576 506 674 506 c 0,34,35
 768 506 768 506 828 570 c 128,-1,36
 888 634 888 634 888 724 c 256,37,38
 888 814 888 814 827 877 c 128,-1,39
 766 940 766 940 674 940 c 0,40,41
 576 940 576 940 516 874 c 128,-1,42
 456 808 456 808 456 724 c 0,31,32
EndSplineSet
EndChar

StartChar: yen
Encoding: 165 165 103
Width: 1298
GlyphClass: 2
Flags: W
LayerCount: 2
Fore
SplineSet
-2 1470 m 1,0,-1
 338 1470 l 1,1,-1
 524 1142 l 2,2,3
 612 988 612 988 646 918 c 1,4,-1
 656 918 l 1,5,6
 674 956 674 956 717 1030 c 128,-1,7
 760 1104 760 1104 778 1142 c 2,8,-1
 966 1470 l 1,9,-1
 1306 1470 l 1,10,-1
 910 862 l 1,11,-1
 1180 862 l 1,12,-1
 1180 650 l 1,13,-1
 800 650 l 1,14,-1
 800 478 l 1,15,-1
 1180 478 l 1,16,-1
 1180 266 l 1,17,-1
 800 266 l 1,18,-1
 800 0 l 1,19,-1
 502 0 l 1,20,-1
 502 266 l 1,21,-1
 124 266 l 1,22,-1
 124 478 l 1,23,-1
 502 478 l 1,24,-1
 502 650 l 1,25,-1
 124 650 l 1,26,-1
 124 862 l 1,27,-1
 392 862 l 1,28,-1
 -2 1470 l 1,0,-1
EndSplineSet
EndChar

StartChar: brokenbar
Encoding: 166 166 104
Width: 620
GlyphClass: 2
Flags: W
LayerCount: 2
Fore
SplineSet
166 900 m 1,0,-1
 166 1712 l 1,1,-1
 454 1712 l 1,2,-1
 454 900 l 1,3,-1
 166 900 l 1,0,-1
166 -300 m 1,4,-1
 166 514 l 1,5,-1
 454 514 l 1,6,-1
 454 -300 l 1,7,-1
 166 -300 l 1,4,-1
EndSplineSet
EndChar

StartChar: section
Encoding: 167 167 105
Width: 1090
GlyphClass: 2
Flags: W
LayerCount: 2
Fore
SplineSet
52 116 m 1,0,-1
 244 262 l 1,1,2
 352 144 352 144 502 144 c 0,3,4
 654 144 654 144 654 216 c 0,5,6
 654 258 654 258 580 292 c 2,7,-1
 372 390 l 2,8,9
 96 516 96 516 96 724 c 0,10,11
 96 806 96 806 142 876 c 128,-1,12
 188 946 188 946 238 984 c 1,13,14
 142 1066 142 1066 142 1188 c 0,15,16
 142 1328 142 1328 255 1415 c 128,-1,17
 368 1502 368 1502 600 1502 c 0,18,19
 878 1502 878 1502 1040 1298 c 1,20,-1
 854 1146 l 1,21,22
 746 1254 746 1254 594 1254 c 0,23,24
 444 1254 444 1254 444 1184 c 0,25,26
 444 1166 444 1166 453 1151 c 128,-1,27
 462 1136 462 1136 487 1121 c 128,-1,28
 512 1106 512 1106 531 1097 c 128,-1,29
 550 1088 550 1088 598 1068 c 128,-1,30
 646 1048 646 1048 672 1038 c 0,31,32
 678 1034 678 1034 712 1019 c 128,-1,33
 746 1004 746 1004 760 998 c 128,-1,34
 774 992 774 992 807 975 c 128,-1,35
 840 958 840 958 856 947 c 128,-1,36
 872 936 872 936 901 916 c 128,-1,37
 930 896 930 896 944 879 c 128,-1,38
 958 862 958 862 978 836 c 128,-1,39
 998 810 998 810 1008 784 c 128,-1,40
 1018 758 1018 758 1025 725 c 128,-1,41
 1032 692 1032 692 1032 656 c 0,42,43
 1032 582 1032 582 994 512 c 128,-1,44
 956 442 956 442 894 394 c 1,45,46
 954 314 954 314 954 218 c 0,47,48
 954 66 954 66 841 -19 c 128,-1,49
 728 -104 728 -104 504 -104 c 0,50,51
 362 -104 362 -104 235 -39 c 128,-1,52
 108 26 108 26 52 116 c 1,0,-1
396 730 m 0,53,54
 396 678 396 678 428 648 c 128,-1,55
 460 618 460 618 522 586 c 2,56,-1
 666 522 l 1,57,58
 730 596 730 596 730 656 c 0,59,60
 730 736 730 736 606 790 c 2,61,-1
 464 860 l 1,62,63
 396 808 396 808 396 730 c 0,53,54
EndSplineSet
EndChar

StartChar: dieresis
Encoding: 168 168 106
Width: 1076
GlyphClass: 2
Flags: W
LayerCount: 2
Fore
SplineSet
186 1174 m 1,0,-1
 186 1470 l 1,1,-1
 476 1470 l 1,2,-1
 476 1174 l 1,3,-1
 186 1174 l 1,0,-1
602 1174 m 1,4,-1
 602 1470 l 1,5,-1
 892 1470 l 1,6,-1
 892 1174 l 1,7,-1
 602 1174 l 1,4,-1
EndSplineSet
EndChar

StartChar: copyright
Encoding: 169 169 107
Width: 1680
GlyphClass: 2
Flags: W
LayerCount: 2
Fore
SplineSet
448 744 m 0,0,1
 448 974 448 974 564 1090 c 128,-1,2
 680 1206 680 1206 862 1206 c 0,3,4
 1008 1206 1008 1206 1095 1122 c 128,-1,5
 1182 1038 1182 1038 1204 926 c 1,6,-1
 1008 872 l 1,7,8
 970 1006 970 1006 864 1006 c 0,9,10
 772 1006 772 1006 730 943 c 128,-1,11
 688 880 688 880 688 744 c 0,12,13
 688 486 688 486 864 486 c 0,14,15
 932 486 932 486 973 530 c 128,-1,16
 1014 574 1014 574 1028 632 c 1,17,-1
 1224 578 l 1,18,19
 1198 450 1198 450 1103 368 c 128,-1,20
 1008 286 1008 286 862 286 c 0,21,22
 678 286 678 286 563 403 c 128,-1,23
 448 520 448 520 448 744 c 0,0,1
62 744 m 0,24,25
 62 1112 62 1112 283 1329 c 128,-1,26
 504 1546 504 1546 840 1546 c 0,27,28
 1182 1546 1182 1546 1401 1326 c 128,-1,29
 1620 1106 1620 1106 1620 744 c 256,30,31
 1620 382 1620 382 1401 161 c 128,-1,32
 1182 -60 1182 -60 840 -60 c 0,33,34
 622 -60 622 -60 447 34 c 128,-1,35
 272 128 272 128 167 313 c 128,-1,36
 62 498 62 498 62 744 c 0,24,25
272 744 m 0,37,38
 272 452 272 452 429 288 c 128,-1,39
 586 124 586 124 840 124 c 0,40,41
 1082 124 1082 124 1247 282 c 128,-1,42
 1412 440 1412 440 1412 744 c 0,43,44
 1412 1038 1412 1038 1253 1201 c 128,-1,45
 1094 1364 1094 1364 840 1364 c 0,46,47
 582 1364 582 1364 427 1198 c 128,-1,48
 272 1032 272 1032 272 744 c 0,37,38
EndSplineSet
EndChar

StartChar: ordfeminine
Encoding: 170 170 108
Width: 768
GlyphClass: 2
Flags: W
LayerCount: 2
Fore
SplineSet
44 516 m 1,0,-1
 44 692 l 1,1,-1
 726 692 l 1,2,-1
 726 516 l 1,3,-1
 44 516 l 1,0,-1
238 1060 m 0,4,5
 238 1024 238 1024 266 999 c 128,-1,6
 294 974 294 974 338 974 c 0,7,8
 408 974 408 974 457 1021 c 128,-1,9
 506 1068 506 1068 506 1146 c 2,10,-1
 506 1204 l 1,11,12
 484 1198 484 1198 441 1190 c 128,-1,13
 398 1182 398 1182 381 1179 c 128,-1,14
 364 1176 364 1176 335 1168 c 128,-1,15
 306 1160 306 1160 293 1152 c 128,-1,16
 280 1144 280 1144 265 1130 c 128,-1,17
 250 1116 250 1116 244 1099 c 128,-1,18
 238 1082 238 1082 238 1060 c 0,4,5
40 1042 m 0,19,20
 40 1116 40 1116 77 1170 c 128,-1,21
 114 1224 114 1224 175 1251 c 128,-1,22
 236 1278 236 1278 294 1292 c 128,-1,23
 352 1306 352 1306 418 1316 c 128,-1,24
 484 1326 484 1326 506 1334 c 1,25,-1
 506 1376 l 2,26,27
 506 1474 506 1474 384 1474 c 0,28,29
 266 1474 266 1474 176 1380 c 1,30,-1
 62 1478 l 1,31,32
 116 1546 116 1546 202 1584 c 128,-1,33
 288 1622 288 1622 382 1622 c 0,34,35
 558 1622 558 1622 630 1539 c 128,-1,36
 702 1456 702 1456 702 1304 c 2,37,-1
 702 836 l 1,38,-1
 514 836 l 1,39,-1
 514 930 l 1,40,41
 446 814 446 814 308 814 c 0,42,43
 184 814 184 814 112 877 c 128,-1,44
 40 940 40 940 40 1042 c 0,19,20
EndSplineSet
EndChar

StartChar: guillemotleft
Encoding: 171 171 109
Width: 1110
GlyphClass: 2
Flags: W
LayerCount: 2
Fore
SplineSet
74 548 m 1,0,-1
 412 1066 l 1,1,-1
 618 930 l 1,2,-1
 376 548 l 1,3,-1
 614 176 l 1,4,-1
 412 34 l 1,5,-1
 74 548 l 1,0,-1
498 548 m 1,6,-1
 836 1036 l 1,7,-1
 1036 884 l 1,8,-1
 802 548 l 1,9,-1
 1036 208 l 1,10,-1
 836 60 l 1,11,-1
 498 548 l 1,6,-1
EndSplineSet
EndChar

StartChar: logicalnot
Encoding: 172 172 110
Width: 1124
GlyphClass: 2
Flags: W
LayerCount: 2
Fore
SplineSet
92 566 m 1,0,-1
 92 820 l 1,1,-1
 1038 820 l 1,2,-1
 1038 230 l 1,3,-1
 764 230 l 1,4,-1
 764 566 l 1,5,-1
 92 566 l 1,0,-1
EndSplineSet
EndChar

StartChar: uni00AD
Encoding: 173 173 111
Width: 1134
GlyphClass: 2
Flags: W
LayerCount: 2
Fore
SplineSet
110 606 m 1,0,-1
 110 862 l 1,1,-1
 1024 862 l 1,2,-1
 1024 606 l 1,3,-1
 110 606 l 1,0,-1
EndSplineSet
EndChar

StartChar: registered
Encoding: 174 174 112
Width: 1680
GlyphClass: 2
Flags: W
LayerCount: 2
Fore
SplineSet
60 746 m 0,0,1
 60 1116 60 1116 282 1331 c 128,-1,2
 504 1546 504 1546 840 1546 c 0,3,4
 1182 1546 1182 1546 1402 1325 c 128,-1,5
 1622 1104 1622 1104 1622 746 c 0,6,7
 1622 386 1622 386 1402 164 c 128,-1,8
 1182 -58 1182 -58 840 -58 c 0,9,10
 622 -58 622 -58 447 37 c 128,-1,11
 272 132 272 132 166 316 c 128,-1,12
 60 500 60 500 60 746 c 0,0,1
512 286 m 1,13,-1
 512 1188 l 1,14,-1
 900 1188 l 2,15,16
 1042 1188 1042 1188 1119 1108 c 128,-1,17
 1196 1028 1196 1028 1196 916 c 0,18,19
 1196 766 1196 766 1092 700 c 1,20,21
 1124 668 1124 668 1136 638 c 128,-1,22
 1148 608 1148 608 1162 552 c 0,23,24
 1170 514 1170 514 1185 473 c 128,-1,25
 1200 432 1200 432 1211 411 c 128,-1,26
 1222 390 1222 390 1248 344 c 0,27,28
 1260 322 1260 322 1268 306 c 1,29,30
 1412 460 1412 460 1412 746 c 0,31,32
 1412 1048 1412 1048 1252 1200 c 128,-1,33
 1092 1352 1092 1352 840 1352 c 0,34,35
 578 1352 578 1352 425 1193 c 128,-1,36
 272 1034 272 1034 272 746 c 0,37,38
 272 452 272 452 424 295 c 128,-1,39
 576 138 576 138 840 138 c 0,40,41
 1090 138 1090 138 1246 286 c 1,42,-1
 1014 286 l 1,43,44
 948 376 948 376 918 532 c 0,45,46
 904 604 904 604 890 618 c 0,47,48
 882 624 882 624 866 624 c 2,49,-1
 750 624 l 1,50,-1
 750 286 l 1,51,-1
 512 286 l 1,13,-1
750 802 m 1,52,-1
 866 802 l 2,53,54
 952 802 952 802 952 892 c 0,55,56
 952 924 952 924 927 952 c 128,-1,57
 902 980 902 980 866 980 c 2,58,-1
 750 980 l 1,59,-1
 750 802 l 1,52,-1
EndSplineSet
EndChar

StartChar: macron
Encoding: 175 175 113
Width: 972
GlyphClass: 2
Flags: W
LayerCount: 2
Fore
SplineSet
8 1322 m 1,0,-1
 8 1574 l 1,1,-1
 966 1574 l 1,2,-1
 966 1322 l 1,3,-1
 8 1322 l 1,0,-1
EndSplineSet
EndChar

StartChar: degree
Encoding: 176 176 114
Width: 876
GlyphClass: 2
Flags: W
LayerCount: 2
Fore
SplineSet
160 1204 m 256,0,1
 160 1320 160 1320 240 1400 c 128,-1,2
 320 1480 320 1480 438 1480 c 0,3,4
 554 1480 554 1480 635 1402 c 128,-1,5
 716 1324 716 1324 716 1204 c 0,6,7
 716 1088 716 1088 634 1009 c 128,-1,8
 552 930 552 930 438 930 c 256,9,10
 324 930 324 930 242 1009 c 128,-1,11
 160 1088 160 1088 160 1204 c 256,0,1
342 1204 m 0,12,13
 342 1164 342 1164 368 1135 c 128,-1,14
 394 1106 394 1106 438 1106 c 0,15,16
 480 1106 480 1106 507 1135 c 128,-1,17
 534 1164 534 1164 534 1204 c 0,18,19
 534 1248 534 1248 507 1276 c 128,-1,20
 480 1304 480 1304 438 1304 c 256,21,22
 396 1304 396 1304 369 1275 c 128,-1,23
 342 1246 342 1246 342 1204 c 0,12,13
EndSplineSet
EndChar

StartChar: plusminus
Encoding: 177 177 115
Width: 1134
GlyphClass: 2
Flags: W
LayerCount: 2
Fore
SplineSet
68 792 m 1,0,-1
 68 1038 l 1,1,-1
 426 1038 l 1,2,-1
 426 1344 l 1,3,-1
 710 1344 l 1,4,-1
 710 1038 l 1,5,-1
 1066 1038 l 1,6,-1
 1066 792 l 1,7,-1
 710 792 l 1,8,-1
 710 486 l 1,9,-1
 426 486 l 1,10,-1
 426 792 l 1,11,-1
 68 792 l 1,0,-1
74 138 m 1,12,-1
 74 384 l 1,13,-1
 1060 384 l 1,14,-1
 1060 138 l 1,15,-1
 74 138 l 1,12,-1
EndSplineSet
EndChar

StartChar: twosuperior
Encoding: 178 178 116
Width: 668
GlyphClass: 2
Flags: W
LayerCount: 2
Fore
SplineSet
44 1364 m 1,0,1
 100 1626 100 1626 334 1626 c 0,2,3
 458 1626 458 1626 536 1553 c 128,-1,4
 614 1480 614 1480 614 1362 c 0,5,6
 614 1240 614 1240 502 1122 c 0,7,8
 484 1104 484 1104 437 1058 c 128,-1,9
 390 1012 390 1012 358 976 c 128,-1,10
 326 940 326 940 304 900 c 1,11,-1
 610 900 l 1,12,-1
 610 732 l 1,13,-1
 56 732 l 1,14,15
 56 868 56 868 116 963 c 128,-1,16
 176 1058 176 1058 328 1204 c 0,17,18
 410 1282 410 1282 410 1364 c 0,19,20
 410 1408 410 1408 389 1433 c 128,-1,21
 368 1458 368 1458 332 1458 c 0,22,23
 244 1458 244 1458 214 1314 c 1,24,-1
 44 1364 l 1,0,1
EndSplineSet
EndChar

StartChar: threesuperior
Encoding: 179 179 117
Width: 668
GlyphClass: 2
Flags: W
LayerCount: 2
Fore
SplineSet
26 938 m 1,0,-1
 184 996 l 1,1,2
 232 878 232 878 324 878 c 0,3,4
 368 878 368 878 399 907 c 128,-1,5
 430 936 430 936 430 988 c 0,6,7
 430 1036 430 1036 396 1067 c 128,-1,8
 362 1098 362 1098 304 1098 c 0,9,10
 258 1098 258 1098 206 1094 c 1,11,-1
 206 1262 l 1,12,13
 278 1258 278 1258 300 1258 c 0,14,15
 342 1258 342 1258 372 1285 c 128,-1,16
 402 1312 402 1312 402 1360 c 0,17,18
 402 1402 402 1402 378 1428 c 128,-1,19
 354 1454 354 1454 316 1454 c 0,20,21
 242 1454 242 1454 206 1334 c 1,22,-1
 44 1384 l 1,23,24
 62 1462 62 1462 99 1514 c 128,-1,25
 136 1566 136 1566 183 1588 c 128,-1,26
 230 1610 230 1610 262 1616 c 128,-1,27
 294 1622 294 1622 324 1622 c 0,28,29
 450 1622 450 1622 528 1553 c 128,-1,30
 606 1484 606 1484 606 1378 c 0,31,32
 606 1262 606 1262 516 1190 c 1,33,34
 636 1124 636 1124 636 988 c 0,35,36
 636 860 636 860 552 785 c 128,-1,37
 468 710 468 710 324 710 c 0,38,39
 224 710 224 710 138 767 c 128,-1,40
 52 824 52 824 26 938 c 1,0,-1
EndSplineSet
EndChar

StartChar: acute
Encoding: 180 180 118
Width: 824
GlyphClass: 2
Flags: W
LayerCount: 2
Fore
SplineSet
178 1286 m 1,0,-1
 384 1642 l 1,1,-1
 722 1642 l 1,2,-1
 416 1286 l 1,3,-1
 178 1286 l 1,0,-1
EndSplineSet
EndChar

StartChar: uni00B5
Encoding: 181 181 119
Width: 1124
GlyphClass: 2
Flags: W
LayerCount: 2
Fore
SplineSet
122 -424 m 1,0,-1
 122 1080 l 1,1,-1
 408 1080 l 1,2,-1
 408 428 l 2,3,4
 408 212 408 212 552 212 c 0,5,6
 638 212 638 212 688 293 c 128,-1,7
 738 374 738 374 738 482 c 2,8,-1
 738 1080 l 1,9,-1
 1024 1080 l 1,10,-1
 1024 0 l 1,11,-1
 752 0 l 1,12,-1
 752 90 l 1,13,-1
 750 90 l 1,14,15
 726 48 726 48 660 8 c 128,-1,16
 594 -32 594 -32 502 -32 c 0,17,18
 446 -32 446 -32 408 -12 c 1,19,-1
 408 -424 l 1,20,-1
 122 -424 l 1,0,-1
EndSplineSet
EndChar

StartChar: paragraph
Encoding: 182 182 120
Width: 1268
GlyphClass: 2
Flags: W
LayerCount: 2
Fore
SplineSet
90 1102 m 0,0,1
 90 1302 90 1302 197 1425 c 128,-1,2
 304 1548 304 1548 510 1548 c 2,3,-1
 1120 1548 l 1,4,-1
 1120 -144 l 1,5,-1
 886 -144 l 1,6,-1
 886 1286 l 1,7,-1
 776 1286 l 1,8,-1
 776 -144 l 1,9,-1
 540 -144 l 1,10,-1
 540 640 l 1,11,12
 514 634 514 634 482 634 c 0,13,14
 316 634 316 634 203 754 c 128,-1,15
 90 874 90 874 90 1102 c 0,0,1
EndSplineSet
EndChar

StartChar: periodcentered
Encoding: 183 183 121
Width: 710
GlyphClass: 2
Flags: W
LayerCount: 2
Fore
SplineSet
180 548 m 1,0,-1
 180 866 l 1,1,-1
 532 866 l 1,2,-1
 532 548 l 1,3,-1
 180 548 l 1,0,-1
EndSplineSet
EndChar

StartChar: cedilla
Encoding: 184 184 122
Width: 634
GlyphClass: 2
Flags: W
LayerCount: 2
Fore
SplineSet
84 -224 m 1,0,1
 166 -242 166 -242 204 -242 c 0,2,3
 288 -242 288 -242 288 -206 c 0,4,5
 288 -148 288 -148 116 -142 c 1,6,-1
 242 112 l 1,7,-1
 494 112 l 1,8,-1
 432 -14 l 1,9,10
 554 -62 554 -62 554 -210 c 0,11,12
 554 -302 554 -302 482 -373 c 128,-1,13
 410 -444 410 -444 230 -444 c 0,14,15
 138 -444 138 -444 84 -428 c 1,16,-1
 84 -224 l 1,0,1
EndSplineSet
EndChar

StartChar: onesuperior
Encoding: 185 185 123
Width: 668
GlyphClass: 2
Flags: W
LayerCount: 2
Fore
SplineSet
74 1296 m 1,0,-1
 74 1454 l 1,1,-1
 128 1454 l 2,2,3
 216 1454 216 1454 254 1490 c 128,-1,4
 292 1526 292 1526 292 1578 c 2,5,-1
 292 1610 l 1,6,-1
 470 1610 l 1,7,-1
 470 734 l 1,8,-1
 268 734 l 1,9,-1
 268 1296 l 1,10,-1
 74 1296 l 1,0,-1
EndSplineSet
EndChar

StartChar: ordmasculine
Encoding: 186 186 124
Width: 790
GlyphClass: 2
Flags: W
LayerCount: 2
Fore
SplineSet
238 1218 m 0,0,1
 238 1090 238 1090 287 1035 c 128,-1,2
 336 980 336 980 394 980 c 0,3,4
 454 980 454 980 503 1035 c 128,-1,5
 552 1090 552 1090 552 1218 c 0,6,7
 552 1348 552 1348 503 1403 c 128,-1,8
 454 1458 454 1458 394 1458 c 256,9,10
 334 1458 334 1458 286 1403 c 128,-1,11
 238 1348 238 1348 238 1218 c 0,0,1
38 1218 m 0,12,13
 38 1298 38 1298 58 1368 c 128,-1,14
 78 1438 78 1438 119 1497 c 128,-1,15
 160 1556 160 1556 231 1590 c 128,-1,16
 302 1624 302 1624 394 1624 c 0,17,18
 574 1624 574 1624 663 1506 c 128,-1,19
 752 1388 752 1388 752 1218 c 0,20,21
 752 1168 752 1168 743 1118 c 128,-1,22
 734 1068 734 1068 710 1011 c 128,-1,23
 686 954 686 954 647 912 c 128,-1,24
 608 870 608 870 544 842 c 128,-1,25
 480 814 480 814 394 814 c 0,26,27
 292 814 292 814 219 853 c 128,-1,28
 146 892 146 892 108 956 c 128,-1,29
 70 1020 70 1020 54 1084 c 128,-1,30
 38 1148 38 1148 38 1218 c 0,12,13
44 534 m 1,31,-1
 44 710 l 1,32,-1
 748 710 l 1,33,-1
 748 534 l 1,34,-1
 44 534 l 1,31,-1
EndSplineSet
EndChar

StartChar: guillemotright
Encoding: 187 187 125
Width: 1110
GlyphClass: 2
Flags: W
LayerCount: 2
Fore
SplineSet
76 884 m 1,0,-1
 272 1036 l 1,1,-1
 612 548 l 1,2,-1
 272 60 l 1,3,-1
 76 208 l 1,4,-1
 308 548 l 1,5,-1
 76 884 l 1,0,-1
498 178 m 1,6,-1
 734 548 l 1,7,-1
 494 930 l 1,8,-1
 700 1066 l 1,9,-1
 1040 548 l 1,10,-1
 700 34 l 1,11,-1
 498 178 l 1,6,-1
EndSplineSet
EndChar

StartChar: onequarter
Encoding: 188 188 126
Width: 1962
GlyphClass: 2
Flags: W
LayerCount: 2
Fore
SplineSet
1384 298 m 1,0,-1
 1524 298 l 1,1,-1
 1524 416 l 2,2,3
 1524 434 1524 434 1525 486 c 128,-1,4
 1526 538 1526 538 1526 544 c 1,5,-1
 1384 298 l 1,0,-1
98 1208 m 1,6,-1
 98 1406 l 1,7,-1
 170 1406 l 2,8,9
 348 1406 348 1406 348 1538 c 2,10,-1
 348 1584 l 1,11,-1
 568 1584 l 1,12,-1
 568 568 l 1,13,-1
 320 568 l 1,14,-1
 320 1208 l 1,15,-1
 98 1208 l 1,6,-1
350 -104 m 1,16,-1
 1286 1566 l 1,17,-1
 1550 1566 l 1,18,-1
 620 -104 l 1,19,-1
 350 -104 l 1,16,-1
1140 278 m 1,20,-1
 1564 920 l 1,21,-1
 1766 920 l 1,22,-1
 1766 298 l 1,23,-1
 1872 298 l 1,24,-1
 1872 90 l 1,25,-1
 1766 90 l 1,26,-1
 1766 -110 l 1,27,-1
 1524 -110 l 1,28,-1
 1524 90 l 1,29,-1
 1140 90 l 1,30,-1
 1140 278 l 1,20,-1
EndSplineSet
Ligature2: "'frac' Diagonal Fractions lookup 7 subtable" one fraction four
Ligature2: "'frac' Diagonal Fractions lookup 7 subtable" one slash four
EndChar

StartChar: onehalf
Encoding: 189 189 127
Width: 1962
GlyphClass: 2
Flags: W
LayerCount: 2
Fore
SplineSet
310 -104 m 1,0,-1
 1264 1566 l 1,1,-1
 1528 1566 l 1,2,-1
 582 -104 l 1,3,-1
 310 -104 l 1,0,-1
1164 626 m 1,4,5
 1170 664 1170 664 1178 690 c 128,-1,6
 1186 716 1186 716 1211 767 c 128,-1,7
 1236 818 1236 818 1270 851 c 128,-1,8
 1304 884 1304 884 1365 911 c 128,-1,9
 1426 938 1426 938 1502 938 c 0,10,11
 1648 938 1648 938 1740 854 c 128,-1,12
 1832 770 1832 770 1832 630 c 0,13,14
 1832 572 1832 572 1818 525 c 128,-1,15
 1804 478 1804 478 1764 427 c 128,-1,16
 1724 376 1724 376 1705 355 c 128,-1,17
 1686 334 1686 334 1626 274 c 0,18,19
 1520 172 1520 172 1484 114 c 1,20,-1
 1828 114 l 1,21,-1
 1828 -96 l 1,22,-1
 1178 -96 l 1,23,24
 1178 62 1178 62 1241 171 c 128,-1,25
 1304 280 1304 280 1492 458 c 0,26,27
 1582 542 1582 542 1582 634 c 0,28,29
 1582 678 1582 678 1559 703 c 128,-1,30
 1536 728 1536 728 1500 728 c 0,31,32
 1460 728 1460 728 1431 698 c 128,-1,33
 1402 668 1402 668 1393 638 c 128,-1,34
 1384 608 1384 608 1374 562 c 1,35,-1
 1164 626 l 1,4,5
98 1208 m 1,36,-1
 98 1406 l 1,37,-1
 170 1406 l 2,38,39
 348 1406 348 1406 348 1538 c 2,40,-1
 348 1584 l 1,41,-1
 568 1584 l 1,42,-1
 568 568 l 1,43,-1
 320 568 l 1,44,-1
 320 1208 l 1,45,-1
 98 1208 l 1,36,-1
EndSplineSet
Ligature2: "'frac' Diagonal Fractions lookup 7 subtable" one fraction two
Ligature2: "'frac' Diagonal Fractions lookup 7 subtable" one slash two
EndChar

StartChar: threequarters
Encoding: 190 190 128
Width: 1962
GlyphClass: 2
Flags: W
LayerCount: 2
Fore
SplineSet
88 814 m 1,0,-1
 286 884 l 1,1,2
 296 856 296 856 304 842 c 128,-1,3
 312 828 312 828 330 802 c 128,-1,4
 348 776 348 776 375 763 c 128,-1,5
 402 750 402 750 438 750 c 0,6,7
 484 750 484 750 517 780 c 128,-1,8
 550 810 550 810 550 866 c 0,9,10
 550 916 550 916 515 949 c 128,-1,11
 480 982 480 982 416 982 c 0,12,13
 388 982 388 982 298 972 c 1,14,-1
 298 1184 l 1,15,16
 342 1180 342 1180 412 1180 c 0,17,18
 454 1180 454 1180 486 1208 c 128,-1,19
 518 1236 518 1236 518 1288 c 0,20,21
 518 1332 518 1332 493 1359 c 128,-1,22
 468 1386 468 1386 428 1386 c 0,23,24
 380 1386 380 1386 355 1350 c 128,-1,25
 330 1314 330 1314 310 1248 c 1,26,-1
 108 1308 l 1,27,28
 128 1398 128 1398 171 1461 c 128,-1,29
 214 1524 214 1524 268 1550 c 128,-1,30
 322 1576 322 1576 362 1586 c 128,-1,31
 402 1596 402 1596 442 1596 c 0,32,33
 590 1596 590 1596 679 1515 c 128,-1,34
 768 1434 768 1434 768 1308 c 0,35,36
 768 1180 768 1180 672 1096 c 1,37,38
 802 1016 802 1016 802 866 c 0,39,40
 802 714 802 714 704 627 c 128,-1,41
 606 540 606 540 440 540 c 0,42,43
 322 540 322 540 222 607 c 128,-1,44
 122 674 122 674 88 814 c 1,0,-1
1142 276 m 1,45,-1
 1566 920 l 1,46,-1
 1770 920 l 1,47,-1
 1770 298 l 1,48,-1
 1874 298 l 1,49,-1
 1874 90 l 1,50,-1
 1770 90 l 1,51,-1
 1770 -110 l 1,52,-1
 1526 -110 l 1,53,-1
 1526 90 l 1,54,-1
 1142 90 l 1,55,-1
 1142 276 l 1,45,-1
1386 298 m 1,56,-1
 1526 298 l 1,57,-1
 1526 402 l 2,58,59
 1526 420 1526 420 1527 479 c 128,-1,60
 1528 538 1528 538 1528 544 c 1,61,-1
 1386 298 l 1,56,-1
432 -104 m 1,62,-1
 1398 1566 l 1,63,-1
 1664 1566 l 1,64,-1
 702 -104 l 1,65,-1
 432 -104 l 1,62,-1
EndSplineSet
Ligature2: "'frac' Diagonal Fractions lookup 7 subtable" three fraction four
Ligature2: "'frac' Diagonal Fractions lookup 7 subtable" three slash four
EndChar

StartChar: questiondown
Encoding: 191 191 129
Width: 1164
GlyphClass: 2
Flags: W
LayerCount: 2
Fore
SplineSet
112 2 m 0,0,1
 112 90 112 90 145 160 c 128,-1,2
 178 230 178 230 225 276 c 128,-1,3
 272 322 272 322 320 365 c 128,-1,4
 368 408 368 408 401 467 c 128,-1,5
 434 526 434 526 434 598 c 2,6,-1
 434 666 l 1,7,-1
 736 666 l 1,8,-1
 736 570 l 2,9,10
 736 482 736 482 704 410 c 128,-1,11
 672 338 672 338 625 291 c 128,-1,12
 578 244 578 244 531 202 c 128,-1,13
 484 160 484 160 452 105 c 128,-1,14
 420 50 420 50 420 -14 c 0,15,16
 420 -86 420 -86 460 -129 c 128,-1,17
 500 -172 500 -172 566 -172 c 0,18,19
 642 -172 642 -172 693 -120 c 128,-1,20
 744 -68 744 -68 784 42 c 1,21,-1
 1050 -46 l 1,22,23
 1012 -202 1012 -202 886 -315 c 128,-1,24
 760 -428 760 -428 566 -428 c 0,25,26
 366 -428 366 -428 239 -309 c 128,-1,27
 112 -190 112 -190 112 2 c 0,0,1
408 774 m 1,28,-1
 408 1090 l 1,29,-1
 760 1090 l 1,30,-1
 760 774 l 1,31,-1
 408 774 l 1,28,-1
EndSplineSet
EndChar

StartChar: AE
Encoding: 198 198 136
Width: 1936
GlyphClass: 3
Flags: W
LayerCount: 2
Fore
SplineSet
578 568 m 1,0,-1
 906 568 l 1,1,-1
 906 1184 l 1,2,-1
 888 1184 l 1,3,-1
 578 568 l 1,0,-1
-8 0 m 1,4,-1
 736 1470 l 1,5,-1
 1870 1470 l 1,6,-1
 1870 1216 l 1,7,-1
 1204 1216 l 1,8,-1
 1204 884 l 1,9,-1
 1800 884 l 1,10,-1
 1800 634 l 1,11,-1
 1184 634 l 1,12,-1
 1184 254 l 1,13,-1
 1890 254 l 1,14,-1
 1890 0 l 1,15,-1
 906 0 l 1,16,-1
 906 328 l 1,17,-1
 464 328 l 1,18,-1
 304 0 l 1,19,-1
 -8 0 l 1,4,-1
EndSplineSet
EndChar

StartChar: multiply
Encoding: 215 215 153
Width: 1112
GlyphClass: 2
Flags: W
LayerCount: 2
Fore
SplineSet
60 428 m 1,0,-1
 376 730 l 1,1,-1
 60 1030 l 1,2,-1
 248 1212 l 1,3,-1
 556 908 l 1,4,-1
 864 1212 l 1,5,-1
 1054 1030 l 1,6,-1
 736 730 l 1,7,-1
 1054 428 l 1,8,-1
 864 248 l 1,9,-1
 556 552 l 1,10,-1
 248 248 l 1,11,-1
 60 428 l 1,0,-1
EndSplineSet
EndChar

StartChar: Oslash
Encoding: 216 216 154
Width: 1414
GlyphClass: 2
Flags: W
LayerCount: 2
Fore
SplineSet
64 734 m 0,0,1
 64 1078 64 1078 242 1290 c 128,-1,2
 420 1502 420 1502 708 1502 c 0,3,4
 854 1502 854 1502 974 1444 c 1,5,-1
 1044 1572 l 1,6,-1
 1284 1572 l 1,7,-1
 1146 1320 l 1,8,9
 1352 1108 1352 1108 1352 734 c 0,10,11
 1352 390 1352 390 1174 179 c 128,-1,12
 996 -32 996 -32 708 -32 c 0,13,14
 558 -32 558 -32 452 16 c 1,15,-1
 386 -102 l 1,16,-1
 150 -102 l 1,17,-1
 280 132 l 1,18,19
 64 348 64 348 64 734 c 0,0,1
986 1038 m 1,20,-1
 582 250 l 1,21,22
 624 222 624 222 708 222 c 0,23,24
 866 222 866 222 953 360 c 128,-1,25
 1040 498 1040 498 1040 734 c 0,26,27
 1040 914 1040 914 986 1038 c 1,20,-1
848 1210 m 1,28,29
 784 1246 784 1246 708 1246 c 0,30,31
 550 1246 550 1246 462 1108 c 128,-1,32
 374 970 374 970 374 734 c 0,33,34
 374 552 374 552 434 412 c 1,35,-1
 848 1210 l 1,28,29
EndSplineSet
EndChar

StartChar: Thorn
Encoding: 222 222 160
Width: 1146
GlyphClass: 2
Flags: W
LayerCount: 2
Fore
SplineSet
142 0 m 1,0,-1
 142 1470 l 1,1,-1
 438 1470 l 1,2,-1
 438 1234 l 1,3,-1
 530 1234 l 2,4,5
 688 1234 688 1234 803 1191 c 128,-1,6
 918 1148 918 1148 978 1074 c 128,-1,7
 1038 1000 1038 1000 1065 919 c 128,-1,8
 1092 838 1092 838 1092 744 c 0,9,10
 1092 498 1092 498 946 370 c 128,-1,11
 800 242 800 242 546 242 c 2,12,-1
 438 242 l 1,13,-1
 438 0 l 1,14,-1
 142 0 l 1,0,-1
438 498 m 1,15,-1
 518 498 l 2,16,17
 654 498 654 498 716 560 c 128,-1,18
 778 622 778 622 778 748 c 0,19,20
 778 982 778 982 510 982 c 2,21,-1
 438 982 l 1,22,-1
 438 498 l 1,15,-1
EndSplineSet
EndChar

StartChar: germandbls
Encoding: 223 223 161
Width: 1272
GlyphClass: 3
Flags: W
LayerCount: 2
Fore
SplineSet
142 0 m 1,0,-1
 142 1050 l 2,1,2
 142 1270 142 1270 276 1386 c 128,-1,3
 410 1502 410 1502 606 1502 c 0,4,5
 832 1502 832 1502 967 1394 c 128,-1,6
 1102 1286 1102 1286 1102 1096 c 0,7,8
 1102 904 1102 904 940 806 c 1,9,-1
 940 802 l 1,10,11
 1202 708 1202 708 1202 418 c 0,12,13
 1202 202 1202 202 1073 85 c 128,-1,14
 944 -32 944 -32 720 -32 c 0,15,16
 582 -32 582 -32 492 -4 c 1,17,-1
 492 262 l 1,18,19
 596 220 596 220 708 220 c 0,20,21
 786 220 786 220 841 279 c 128,-1,22
 896 338 896 338 896 420 c 0,23,24
 896 646 896 646 654 646 c 2,25,-1
 516 646 l 1,26,-1
 516 898 l 1,27,-1
 628 898 l 2,28,29
 698 898 698 898 746 944 c 128,-1,30
 794 990 794 990 794 1080 c 0,31,32
 794 1156 794 1156 747 1201 c 128,-1,33
 700 1246 700 1246 620 1246 c 0,34,35
 534 1246 534 1246 487 1187 c 128,-1,36
 440 1128 440 1128 440 1026 c 2,37,-1
 440 0 l 1,38,-1
 142 0 l 1,0,-1
EndSplineSet
EndChar

StartChar: ae
Encoding: 230 230 168
Width: 1756
GlyphClass: 3
Flags: W
LayerCount: 2
Fore
SplineSet
54 300 m 0,0,1
 54 448 54 448 179 545 c 128,-1,2
 304 642 304 642 534 674 c 0,3,4
 656 692 656 692 708 702 c 1,5,-1
 708 768 l 2,6,7
 708 826 708 826 657 858 c 128,-1,8
 606 890 606 890 542 890 c 0,9,10
 382 890 382 890 250 758 c 1,11,-1
 82 900 l 1,12,13
 254 1112 254 1112 544 1112 c 0,14,15
 764 1112 764 1112 884 994 c 1,16,17
 1012 1112 1012 1112 1210 1112 c 0,18,19
 1412 1112 1412 1112 1558 954 c 128,-1,20
 1704 796 1704 796 1704 540 c 0,21,22
 1704 526 1704 526 1700 440 c 1,23,-1
 986 440 l 1,24,-1
 986 422 l 2,25,26
 988 338 988 338 1046 267 c 128,-1,27
 1104 196 1104 196 1218 196 c 0,28,29
 1372 196 1372 196 1454 340 c 1,30,-1
 1688 254 l 1,31,32
 1640 138 1640 138 1516 53 c 128,-1,33
 1392 -32 1392 -32 1216 -32 c 0,34,35
 958 -32 958 -32 818 154 c 1,36,37
 738 62 738 62 648 15 c 128,-1,38
 558 -32 558 -32 436 -32 c 0,39,40
 260 -32 260 -32 157 59 c 128,-1,41
 54 150 54 150 54 300 c 0,0,1
344 320 m 0,42,43
 344 276 344 276 381 240 c 128,-1,44
 418 204 418 204 474 204 c 0,45,46
 570 204 570 204 639 272 c 128,-1,47
 708 340 708 340 708 436 c 2,48,-1
 708 512 l 1,49,50
 696 510 696 510 647 499 c 128,-1,51
 598 488 598 488 564 482 c 0,52,53
 344 454 344 454 344 320 c 0,42,43
986 636 m 1,54,-1
 1414 636 l 1,55,56
 1414 640 1414 640 1414 644 c 0,57,58
 1414 744 1414 744 1357 816 c 128,-1,59
 1300 888 1300 888 1214 888 c 0,60,61
 1036 888 1036 888 988 686 c 1,62,-1
 986 636 l 1,54,-1
EndSplineSet
EndChar

StartChar: eth
Encoding: 240 240 178
Width: 1114
GlyphClass: 2
Flags: W
LayerCount: 2
Fore
SplineSet
56 456 m 0,0,1
 56 690 56 690 189 832 c 128,-1,2
 322 974 322 974 534 974 c 0,3,4
 656 974 656 974 732 928 c 1,5,6
 706 1030 706 1030 610 1124 c 1,7,-1
 438 996 l 1,8,-1
 272 1178 l 1,9,-1
 398 1272 l 1,10,11
 318 1308 318 1308 236 1322 c 1,12,-1
 340 1554 l 1,13,14
 434 1540 434 1540 524 1510 c 0,15,16
 578 1490 578 1490 640 1454 c 1,17,-1
 840 1604 l 1,18,-1
 1002 1420 l 1,19,-1
 838 1296 l 1,20,21
 866 1266 866 1266 890 1232 c 0,22,23
 964 1128 964 1128 1013 957 c 128,-1,24
 1062 786 1062 786 1062 570 c 0,25,26
 1062 296 1062 296 925 132 c 128,-1,27
 788 -32 788 -32 540 -32 c 0,28,29
 324 -32 324 -32 190 102 c 128,-1,30
 56 236 56 236 56 456 c 0,0,1
350 468 m 0,31,32
 350 356 350 356 404 284 c 128,-1,33
 458 212 458 212 552 212 c 0,34,35
 638 212 638 212 691 281 c 128,-1,36
 744 350 744 350 744 468 c 0,37,38
 744 584 744 584 691 655 c 128,-1,39
 638 726 638 726 548 726 c 0,40,41
 460 726 460 726 405 654 c 128,-1,42
 350 582 350 582 350 468 c 0,31,32
EndSplineSet
EndChar

StartChar: divide
Encoding: 247 247 185
Width: 1112
GlyphClass: 2
Flags: W
LayerCount: 2
Fore
SplineSet
394 970 m 1,0,-1
 394 1278 l 1,1,-1
 712 1278 l 1,2,-1
 712 970 l 1,3,-1
 394 970 l 1,0,-1
52 596 m 1,4,-1
 52 850 l 1,5,-1
 1060 850 l 1,6,-1
 1060 596 l 1,7,-1
 52 596 l 1,4,-1
394 166 m 1,8,-1
 394 478 l 1,9,-1
 712 478 l 1,10,-1
 712 166 l 1,11,-1
 394 166 l 1,8,-1
EndSplineSet
EndChar

StartChar: oslash
Encoding: 248 248 186
Width: 1124
GlyphClass: 2
Flags: W
LayerCount: 2
Fore
SplineSet
56 538 m 0,0,1
 56 650 56 650 85 749 c 128,-1,2
 114 848 114 848 172 932 c 128,-1,3
 230 1016 230 1016 331 1064 c 128,-1,4
 432 1112 432 1112 564 1112 c 0,5,6
 672 1112 672 1112 762 1078 c 1,7,-1
 834 1214 l 1,8,-1
 1048 1214 l 1,9,-1
 918 976 l 1,10,11
 1070 818 1070 818 1070 538 c 0,12,13
 1070 466 1070 466 1057 395 c 128,-1,14
 1044 324 1044 324 1010 245 c 128,-1,15
 976 166 976 166 921 106 c 128,-1,16
 866 46 866 46 774 7 c 128,-1,17
 682 -32 682 -32 564 -32 c 0,18,19
 448 -32 448 -32 368 -4 c 1,20,-1
 308 -108 l 1,21,-1
 98 -108 l 1,22,-1
 212 96 l 1,23,24
 56 254 56 254 56 538 c 0,0,1
754 690 m 1,25,-1
 492 226 l 1,26,27
 526 212 526 212 564 212 c 0,28,29
 598 212 598 212 631 226 c 128,-1,30
 664 240 664 240 698 274 c 128,-1,31
 732 308 732 308 754 377 c 128,-1,32
 776 446 776 446 776 538 c 0,33,34
 776 622 776 622 754 690 c 1,25,-1
638 850 m 1,35,36
 598 868 598 868 564 868 c 0,37,38
 482 868 482 868 416 793 c 128,-1,39
 350 718 350 718 350 538 c 0,40,41
 350 458 350 458 376 378 c 1,42,-1
 638 850 l 1,35,36
EndSplineSet
EndChar

StartChar: thorn
Encoding: 254 254 192
Width: 1184
GlyphClass: 2
Flags: W
LayerCount: 2
Fore
SplineSet
422 540 m 0,0,1
 422 388 422 388 477 300 c 128,-1,2
 532 212 532 212 628 212 c 256,3,4
 724 212 724 212 780 296 c 128,-1,5
 836 380 836 380 836 540 c 0,6,7
 836 692 836 692 782 780 c 128,-1,8
 728 868 728 868 628 868 c 256,9,10
 528 868 528 868 475 779 c 128,-1,11
 422 690 422 690 422 540 c 0,0,1
138 -424 m 1,12,-1
 138 1514 l 1,13,-1
 424 1514 l 1,14,-1
 424 992 l 1,15,16
 452 1040 452 1040 518 1076 c 128,-1,17
 584 1112 584 1112 670 1112 c 0,18,19
 866 1112 866 1112 998 958 c 128,-1,20
 1130 804 1130 804 1130 540 c 0,21,22
 1130 390 1130 390 1088 274 c 128,-1,23
 1046 158 1046 158 976 94 c 128,-1,24
 906 30 906 30 829 -1 c 128,-1,25
 752 -32 752 -32 670 -32 c 0,26,27
 502 -32 502 -32 426 84 c 1,28,-1
 426 -424 l 1,29,-1
 138 -424 l 1,12,-1
EndSplineSet
EndChar

StartChar: dcroat
Encoding: 273 273 211
Width: 1168
GlyphClass: 2
Flags: W
LayerCount: 2
Fore
SplineSet
56 526 m 0,0,1
 56 796 56 796 187 939 c 128,-1,2
 318 1082 318 1082 514 1082 c 0,3,4
 596 1082 596 1082 662 1052 c 128,-1,5
 728 1022 728 1022 760 978 c 1,6,-1
 760 1150 l 1,7,-1
 362 1150 l 1,8,-1
 362 1370 l 1,9,-1
 760 1370 l 1,10,-1
 760 1514 l 1,11,-1
 1048 1514 l 1,12,-1
 1048 1370 l 1,13,-1
 1146 1370 l 1,14,-1
 1146 1150 l 1,15,-1
 1048 1150 l 1,16,-1
 1048 0 l 1,17,-1
 770 0 l 1,18,-1
 770 108 l 1,19,20
 732 46 732 46 665 7 c 128,-1,21
 598 -32 598 -32 516 -32 c 0,22,23
 324 -32 324 -32 190 111 c 128,-1,24
 56 254 56 254 56 526 c 0,0,1
352 526 m 0,25,26
 352 370 352 370 410 291 c 128,-1,27
 468 212 468 212 558 212 c 0,28,29
 652 212 652 212 708 297 c 128,-1,30
 764 382 764 382 764 526 c 0,31,32
 764 666 764 666 709 752 c 128,-1,33
 654 838 654 838 558 838 c 0,34,35
 466 838 466 838 409 753 c 128,-1,36
 352 668 352 668 352 526 c 0,25,26
EndSplineSet
EndChar

StartChar: uni0123
Encoding: 291 291 229
Width: 1140
GlyphClass: 2
Flags: W
LayerCount: 2
Fore
SplineSet
396 1242 m 1,0,-1
 584 1634 l 1,1,-1
 778 1634 l 1,2,-1
 700 1242 l 1,3,-1
 396 1242 l 1,0,-1
358 562 m 0,4,5
 358 412 358 412 411 334 c 128,-1,6
 464 256 464 256 552 256 c 0,7,8
 638 256 638 256 691 334 c 128,-1,9
 744 412 744 412 744 562 c 0,10,11
 744 708 744 708 691 788 c 128,-1,12
 638 868 638 868 552 868 c 0,13,14
 462 868 462 868 410 788 c 128,-1,15
 358 708 358 708 358 562 c 0,4,5
62 560 m 0,16,17
 62 814 62 814 190 963 c 128,-1,18
 318 1112 318 1112 514 1112 c 0,19,20
 598 1112 598 1112 658 1073 c 128,-1,21
 718 1034 718 1034 744 988 c 1,22,-1
 744 1080 l 1,23,-1
 1032 1080 l 1,24,-1
 1032 164 l 2,25,26
 1032 -144 1032 -144 907 -287 c 128,-1,27
 782 -430 782 -430 530 -430 c 0,28,29
 396 -430 396 -430 282 -375 c 128,-1,30
 168 -320 168 -320 96 -216 c 1,31,-1
 282 -82 l 1,32,33
 380 -202 380 -202 534 -202 c 0,34,35
 616 -202 616 -202 676 -143 c 128,-1,36
 736 -84 736 -84 744 8 c 0,37,38
 748 74 748 74 748 114 c 1,39,40
 716 68 716 68 651 40 c 128,-1,41
 586 12 586 12 524 12 c 0,42,43
 320 12 320 12 191 160 c 128,-1,44
 62 308 62 308 62 560 c 0,16,17
EndSplineSet
EndChar

StartChar: Hbar
Encoding: 294 294 232
Width: 1390
GlyphClass: 2
Flags: W
LayerCount: 2
Fore
SplineSet
12 1068 m 1,0,-1
 12 1304 l 1,1,-1
 142 1304 l 1,2,-1
 142 1470 l 1,3,-1
 438 1470 l 1,4,-1
 438 1304 l 1,5,-1
 954 1304 l 1,6,-1
 954 1470 l 1,7,-1
 1250 1470 l 1,8,-1
 1250 1304 l 1,9,-1
 1382 1304 l 1,10,-1
 1382 1068 l 1,11,-1
 1250 1068 l 1,12,-1
 1250 0 l 1,13,-1
 954 0 l 1,14,-1
 954 628 l 1,15,-1
 438 628 l 1,16,-1
 438 0 l 1,17,-1
 142 0 l 1,18,-1
 142 1068 l 1,19,-1
 12 1068 l 1,0,-1
954 1068 m 1,20,-1
 438 1068 l 1,21,-1
 438 882 l 1,22,-1
 954 882 l 1,23,-1
 954 1068 l 1,20,-1
EndSplineSet
EndChar

StartChar: hbar
Encoding: 295 295 233
Width: 1124
GlyphClass: 2
Flags: W
LayerCount: 2
Fore
SplineSet
-2 1150 m 1,0,-1
 -2 1368 l 1,1,-1
 122 1368 l 1,2,-1
 122 1514 l 1,3,-1
 406 1514 l 1,4,-1
 406 1368 l 1,5,-1
 782 1368 l 1,6,-1
 782 1150 l 1,7,-1
 406 1150 l 1,8,-1
 406 948 l 1,9,-1
 408 948 l 1,10,11
 512 1052 512 1052 656 1052 c 0,12,13
 722 1052 722 1052 782 1033 c 128,-1,14
 842 1014 842 1014 899 970 c 128,-1,15
 956 926 956 926 991 839 c 128,-1,16
 1026 752 1026 752 1026 632 c 2,17,-1
 1026 0 l 1,18,-1
 740 0 l 1,19,-1
 740 604 l 2,20,21
 740 806 740 806 604 806 c 0,22,23
 516 806 516 806 461 728 c 128,-1,24
 406 650 406 650 406 544 c 2,25,-1
 406 0 l 1,26,-1
 122 0 l 1,27,-1
 122 1150 l 1,28,-1
 -2 1150 l 1,0,-1
EndSplineSet
EndChar

StartChar: dotlessi
Encoding: 305 305 243
Width: 530
GlyphClass: 2
Flags: W
LayerCount: 2
Fore
SplineSet
122 0 m 1,0,-1
 122 1080 l 1,1,-1
 408 1080 l 1,2,-1
 408 0 l 1,3,-1
 122 0 l 1,0,-1
EndSplineSet
EndChar

StartChar: kgreenlandic
Encoding: 312 312 250
Width: 1108
GlyphClass: 2
Flags: W
LayerCount: 2
Fore
SplineSet
122 0 m 1,0,-1
 122 1080 l 1,1,-1
 406 1080 l 1,2,-1
 406 728 l 1,3,-1
 412 728 l 1,4,-1
 770 1080 l 1,5,-1
 1130 1080 l 1,6,-1
 646 606 l 1,7,-1
 1130 0 l 1,8,-1
 792 0 l 1,9,-1
 462 400 l 1,10,-1
 406 336 l 1,11,-1
 406 0 l 1,12,-1
 122 0 l 1,0,-1
EndSplineSet
EndChar

StartChar: Lslash
Encoding: 321 321 259
Width: 1106
GlyphClass: 2
Flags: W
LayerCount: 2
Fore
SplineSet
440 658 m 1,0,-1
 440 254 l 1,1,-1
 1086 254 l 1,2,-1
 1086 0 l 1,3,-1
 142 0 l 1,4,-1
 142 478 l 1,5,-1
 -6 386 l 1,6,-1
 -142 608 l 1,7,-1
 142 780 l 1,8,-1
 142 1470 l 1,9,-1
 440 1470 l 1,10,-1
 440 960 l 1,11,-1
 652 1094 l 1,12,-1
 788 874 l 1,13,-1
 440 658 l 1,0,-1
EndSplineSet
EndChar

StartChar: lslash
Encoding: 322 322 260
Width: 544
GlyphClass: 2
Flags: W
LayerCount: 2
Fore
SplineSet
416 690 m 1,0,-1
 416 0 l 1,1,-1
 130 0 l 1,2,-1
 130 524 l 1,3,-1
 -24 434 l 1,4,-1
 -160 656 l 1,5,-1
 130 826 l 1,6,-1
 130 1514 l 1,7,-1
 416 1514 l 1,8,-1
 416 992 l 1,9,-1
 570 1080 l 1,10,-1
 702 860 l 1,11,-1
 416 690 l 1,0,-1
EndSplineSet
EndChar

StartChar: Eng
Encoding: 330 330 268
Width: 1398
GlyphClass: 2
Flags: W
LayerCount: 2
Fore
SplineSet
142 0 m 1,0,-1
 142 1470 l 1,1,-1
 446 1470 l 1,2,-1
 984 450 l 1,3,-1
 990 450 l 1,4,5
 962 624 962 624 962 874 c 2,6,-1
 962 1470 l 1,7,-1
 1262 1470 l 1,8,-1
 1262 40 l 2,9,10
 1262 -86 1262 -86 1228 -178 c 128,-1,11
 1194 -270 1194 -270 1136 -317 c 128,-1,12
 1078 -364 1078 -364 1015 -386 c 128,-1,13
 952 -408 952 -408 880 -408 c 0,14,15
 794 -408 794 -408 666 -384 c 1,16,-1
 666 -136 l 1,17,18
 734 -152 734 -152 816 -152 c 0,19,20
 890 -152 890 -152 922 -119 c 128,-1,21
 954 -86 954 -86 962 -6 c 1,22,-1
 546 754 l 1,23,-1
 416 1012 l 1,24,-1
 408 1012 l 1,25,26
 440 734 440 734 440 588 c 2,27,-1
 440 0 l 1,28,-1
 142 0 l 1,0,-1
EndSplineSet
EndChar

StartChar: eng
Encoding: 331 331 269
Width: 1116
GlyphClass: 2
Flags: W
LayerCount: 2
Fore
SplineSet
112 0 m 1,0,-1
 112 1080 l 1,1,-1
 386 1080 l 1,2,-1
 386 976 l 1,3,-1
 388 976 l 1,4,5
 484 1112 484 1112 662 1112 c 0,6,7
 1020 1112 1020 1112 1020 692 c 2,8,-1
 1020 16 l 2,9,10
 1020 -110 1020 -110 982 -202 c 128,-1,11
 944 -294 944 -294 883 -341 c 128,-1,12
 822 -388 822 -388 760 -409 c 128,-1,13
 698 -430 698 -430 636 -430 c 0,14,15
 566 -430 566 -430 446 -410 c 1,16,-1
 446 -158 l 1,17,18
 532 -178 532 -178 586 -178 c 0,19,20
 734 -178 734 -178 734 -22 c 2,21,-1
 734 658 l 2,22,23
 734 758 734 758 706 813 c 128,-1,24
 678 868 678 868 600 868 c 0,25,26
 510 868 510 868 454 796 c 128,-1,27
 398 724 398 724 398 614 c 2,28,-1
 398 0 l 1,29,-1
 112 0 l 1,0,-1
EndSplineSet
EndChar

StartChar: OE
Encoding: 338 338 276
Width: 1970
GlyphClass: 3
Flags: W
LayerCount: 2
Fore
SplineSet
64 734 m 256,0,1
 64 1078 64 1078 242 1290 c 128,-1,2
 420 1502 420 1502 710 1502 c 0,3,4
 838 1502 838 1502 914 1470 c 1,5,-1
 1902 1470 l 1,6,-1
 1902 1214 l 1,7,-1
 1200 1214 l 1,8,-1
 1200 884 l 1,9,-1
 1832 884 l 1,10,-1
 1832 634 l 1,11,-1
 1200 634 l 1,12,-1
 1200 254 l 1,13,-1
 1924 254 l 1,14,-1
 1924 0 l 1,15,-1
 918 0 l 1,16,17
 820 -32 820 -32 710 -32 c 0,18,19
 416 -32 416 -32 240 179 c 128,-1,20
 64 390 64 390 64 734 c 256,0,1
374 734 m 256,21,22
 374 498 374 498 463 360 c 128,-1,23
 552 222 552 222 710 222 c 0,24,25
 816 222 816 222 900 296 c 1,26,-1
 900 1172 l 1,27,28
 826 1246 826 1246 710 1246 c 0,29,30
 552 1246 552 1246 463 1108 c 128,-1,31
 374 970 374 970 374 734 c 256,21,22
EndSplineSet
EndChar

StartChar: uni0163
Encoding: 355 355 293
Width: 746
GlyphClass: 2
Flags: W
LayerCount: 2
Fore
SplineSet
30 838 m 1,0,-1
 30 1080 l 1,1,-1
 184 1080 l 1,2,-1
 184 1388 l 1,3,-1
 468 1388 l 1,4,-1
 468 1080 l 1,5,-1
 692 1080 l 1,6,-1
 692 838 l 1,7,-1
 468 838 l 1,8,-1
 468 362 l 2,9,10
 468 244 468 244 572 244 c 2,11,-1
 694 244 l 1,12,-1
 694 0 l 1,13,-1
 594 0 l 1,14,-1
 580 -50 l 1,15,16
 650 -66 650 -66 691 -110 c 128,-1,17
 732 -154 732 -154 732 -218 c 0,18,19
 732 -306 732 -306 656 -370 c 128,-1,20
 580 -434 580 -434 408 -434 c 0,21,22
 312 -434 312 -434 230 -414 c 1,23,-1
 230 -238 l 1,24,25
 324 -256 324 -256 398 -256 c 0,26,27
 510 -256 510 -256 510 -200 c 0,28,29
 510 -148 510 -148 322 -142 c 2,30,-1
 306 -142 l 1,31,-1
 348 34 l 1,32,33
 184 110 184 110 184 346 c 2,34,-1
 184 838 l 1,35,-1
 30 838 l 1,0,-1
EndSplineSet
Substitution2: "'locl' Localized Forms in Latin lookup 3 subtable" uni021B
Substitution2: "'locl' Localized Forms in Latin lookup 2 subtable" uni021B
Substitution2: "'aalt' Access All Alternates lookup 0 subtable" uni021B
EndChar

StartChar: tbar
Encoding: 359 359 297
Width: 746
GlyphClass: 2
Flags: W
LayerCount: 2
Fore
SplineSet
30 838 m 1,0,-1
 30 1080 l 1,1,-1
 184 1080 l 1,2,-1
 184 1388 l 1,3,-1
 468 1388 l 1,4,-1
 468 1080 l 1,5,-1
 692 1080 l 1,6,-1
 692 838 l 1,7,-1
 468 838 l 1,8,-1
 468 734 l 1,9,-1
 686 734 l 1,10,-1
 686 498 l 1,11,-1
 468 498 l 1,12,-1
 468 362 l 2,13,14
 468 244 468 244 572 244 c 2,15,-1
 694 244 l 1,16,-1
 694 0 l 1,17,-1
 536 0 l 2,18,19
 184 0 184 0 184 346 c 2,20,-1
 184 498 l 1,21,-1
 2 498 l 1,22,-1
 2 734 l 1,23,-1
 184 734 l 1,24,-1
 184 838 l 1,25,-1
 30 838 l 1,0,-1
EndSplineSet
EndChar

StartChar: longs
Encoding: 383 383 321
Width: 638
GlyphClass: 2
Flags: W
LayerCount: 2
Fore
SplineSet
132 0 m 1,0,-1
 132 1170 l 2,1,2
 132 1340 132 1340 217 1427 c 128,-1,3
 302 1514 302 1514 460 1514 c 2,4,-1
 646 1514 l 1,5,-1
 646 1268 l 1,6,-1
 518 1268 l 2,7,8
 466 1268 466 1268 442 1240 c 128,-1,9
 418 1212 418 1212 418 1144 c 2,10,-1
 418 0 l 1,11,-1
 132 0 l 1,0,-1
EndSplineSet
EndChar

StartChar: uni0180
Encoding: 384 384 322
Width: 1168
GlyphClass: 2
Flags: W
LayerCount: 2
Fore
SplineSet
404 530 m 0,0,1
 404 384 404 384 460 298 c 128,-1,2
 516 212 516 212 614 212 c 0,3,4
 704 212 704 212 761 294 c 128,-1,5
 818 376 818 376 818 530 c 0,6,7
 818 674 818 674 762 761 c 128,-1,8
 706 848 706 848 612 848 c 0,9,10
 516 848 516 848 460 760 c 128,-1,11
 404 672 404 672 404 530 c 0,0,1
-2 1150 m 1,12,-1
 -2 1372 l 1,13,-1
 122 1372 l 1,14,-1
 122 1514 l 1,15,-1
 406 1514 l 1,16,-1
 406 1372 l 1,17,-1
 770 1372 l 1,18,-1
 770 1150 l 1,19,-1
 406 1150 l 1,20,-1
 406 978 l 1,21,22
 516 1092 516 1092 656 1092 c 0,23,24
 852 1092 852 1092 983 942 c 128,-1,25
 1114 792 1114 792 1114 530 c 0,26,27
 1114 382 1114 382 1071 269 c 128,-1,28
 1028 156 1028 156 959 93 c 128,-1,29
 890 30 890 30 814 -1 c 128,-1,30
 738 -32 738 -32 660 -32 c 0,31,32
 570 -32 570 -32 499 10 c 128,-1,33
 428 52 428 52 398 106 c 1,34,-1
 398 0 l 1,35,-1
 122 0 l 1,36,-1
 122 1150 l 1,37,-1
 -2 1150 l 1,12,-1
EndSplineSet
EndChar

StartChar: uni0182
Encoding: 386 386 324
Width: 1318
GlyphClass: 2
Flags: W
LayerCount: 2
Fore
SplineSet
440 254 m 1,0,-1
 744 254 l 2,1,2
 826 254 826 254 883 299 c 128,-1,3
 940 344 940 344 940 438 c 0,4,5
 940 516 940 516 891 572 c 128,-1,6
 842 628 842 628 744 628 c 2,7,-1
 440 628 l 1,8,-1
 440 254 l 1,0,-1
142 0 m 1,9,-1
 142 1470 l 1,10,-1
 1078 1470 l 1,11,-1
 1078 1214 l 1,12,-1
 440 1214 l 1,13,-1
 440 882 l 1,14,-1
 764 882 l 2,15,16
 1000 882 1000 882 1125 755 c 128,-1,17
 1250 628 1250 628 1250 438 c 0,18,19
 1250 254 1250 254 1126 127 c 128,-1,20
 1002 0 1002 0 784 0 c 2,21,-1
 142 0 l 1,9,-1
EndSplineSet
EndChar

StartChar: uni0183
Encoding: 387 387 325
Width: 1168
GlyphClass: 2
Flags: W
LayerCount: 2
Fore
SplineSet
404 540 m 0,0,1
 404 386 404 386 460 299 c 128,-1,2
 516 212 516 212 614 212 c 0,3,4
 706 212 706 212 762 295 c 128,-1,5
 818 378 818 378 818 540 c 0,6,7
 818 692 818 692 764 780 c 128,-1,8
 710 868 710 868 614 868 c 0,9,10
 510 868 510 868 457 778 c 128,-1,11
 404 688 404 688 404 540 c 0,0,1
122 0 m 1,12,-1
 122 1492 l 1,13,-1
 932 1492 l 1,14,-1
 932 1246 l 1,15,-1
 406 1246 l 1,16,-1
 406 1004 l 1,17,18
 500 1112 500 1112 656 1112 c 0,19,20
 854 1112 854 1112 984 959 c 128,-1,21
 1114 806 1114 806 1114 540 c 0,22,23
 1114 392 1114 392 1073 276 c 128,-1,24
 1032 160 1032 160 964 95 c 128,-1,25
 896 30 896 30 820 -1 c 128,-1,26
 744 -32 744 -32 660 -32 c 0,27,28
 572 -32 572 -32 500 11 c 128,-1,29
 428 54 428 54 398 106 c 1,30,-1
 398 0 l 1,31,-1
 122 0 l 1,12,-1
EndSplineSet
EndChar

StartChar: uni0184
Encoding: 388 388 326
Width: 1320
GlyphClass: 2
Flags: W
LayerCount: 2
Fore
SplineSet
-44 1310 m 1,0,-1
 280 1470 l 1,1,-1
 440 1470 l 1,2,-1
 440 880 l 1,3,-1
 766 880 l 2,4,5
 1004 880 1004 880 1128 754 c 128,-1,6
 1252 628 1252 628 1252 438 c 0,7,8
 1252 252 1252 252 1128 126 c 128,-1,9
 1004 0 1004 0 786 0 c 2,10,-1
 142 0 l 1,11,-1
 142 1162 l 1,12,-1
 -44 1310 l 1,0,-1
440 254 m 1,13,-1
 744 254 l 2,14,15
 826 254 826 254 884 298 c 128,-1,16
 942 342 942 342 942 438 c 0,17,18
 942 516 942 516 894 572 c 128,-1,19
 846 628 846 628 744 628 c 2,20,-1
 440 628 l 1,21,-1
 440 254 l 1,13,-1
EndSplineSet
EndChar

StartChar: uni0185
Encoding: 389 389 327
Width: 1168
GlyphClass: 2
Flags: W
LayerCount: 2
Fore
SplineSet
-48 1352 m 1,0,-1
 254 1514 l 1,1,-1
 406 1514 l 1,2,-1
 406 1004 l 1,3,4
 428 1040 428 1040 496 1076 c 128,-1,5
 564 1112 564 1112 656 1112 c 0,6,7
 856 1112 856 1112 985 959 c 128,-1,8
 1114 806 1114 806 1114 540 c 0,9,10
 1114 394 1114 394 1074 280 c 128,-1,11
 1034 166 1034 166 967 100 c 128,-1,12
 900 34 900 34 822 1 c 128,-1,13
 744 -32 744 -32 660 -32 c 0,14,15
 574 -32 574 -32 504 9 c 128,-1,16
 434 50 434 50 398 106 c 1,17,-1
 398 0 l 1,18,-1
 122 0 l 1,19,-1
 122 1206 l 1,20,-1
 -48 1352 l 1,0,-1
404 540 m 0,21,22
 404 386 404 386 460 299 c 128,-1,23
 516 212 516 212 614 212 c 0,24,25
 708 212 708 212 763 297 c 128,-1,26
 818 382 818 382 818 540 c 0,27,28
 818 690 818 690 766 779 c 128,-1,29
 714 868 714 868 614 868 c 0,30,31
 512 868 512 868 458 780 c 128,-1,32
 404 692 404 692 404 540 c 0,21,22
EndSplineSet
EndChar

StartChar: uni0186
Encoding: 390 390 328
Width: 1342
GlyphClass: 2
Flags: W
LayerCount: 2
Fore
SplineSet
32 376 m 1,0,-1
 302 462 l 1,1,2
 338 362 338 362 423 292 c 128,-1,3
 508 222 508 222 616 222 c 0,4,5
 778 222 778 222 874 361 c 128,-1,6
 970 500 970 500 970 736 c 0,7,8
 970 968 970 968 874 1107 c 128,-1,9
 778 1246 778 1246 616 1246 c 0,10,11
 508 1246 508 1246 442 1190 c 128,-1,12
 376 1134 376 1134 324 1044 c 1,13,-1
 68 1128 l 1,14,15
 134 1288 134 1288 276 1395 c 128,-1,16
 418 1502 418 1502 614 1502 c 0,17,18
 906 1502 906 1502 1093 1294 c 128,-1,19
 1280 1086 1280 1086 1280 736 c 0,20,21
 1280 376 1280 376 1090 172 c 128,-1,22
 900 -32 900 -32 614 -32 c 0,23,24
 516 -32 516 -32 429 -5 c 128,-1,25
 342 22 342 22 280 64 c 128,-1,26
 218 106 218 106 166 162 c 128,-1,27
 114 218 114 218 84 271 c 128,-1,28
 54 324 54 324 32 376 c 1,0,-1
EndSplineSet
EndChar

StartChar: uni018B
Encoding: 395 395 333
Width: 1316
GlyphClass: 2
Flags: W
LayerCount: 2
Fore
SplineSet
376 438 m 0,0,1
 376 344 376 344 435 299 c 128,-1,2
 494 254 494 254 574 254 c 2,3,-1
 880 254 l 1,4,-1
 880 628 l 1,5,-1
 576 628 l 2,6,7
 478 628 478 628 427 572 c 128,-1,8
 376 516 376 516 376 438 c 0,0,1
68 438 m 0,9,10
 68 628 68 628 194 755 c 128,-1,11
 320 882 320 882 554 882 c 2,12,-1
 880 882 l 1,13,-1
 880 1214 l 1,14,-1
 238 1214 l 1,15,-1
 238 1470 l 1,16,-1
 1176 1470 l 1,17,-1
 1176 0 l 1,18,-1
 534 0 l 2,19,20
 318 0 318 0 193 127 c 128,-1,21
 68 254 68 254 68 438 c 0,9,10
EndSplineSet
EndChar

StartChar: uni018C
Encoding: 396 396 334
Width: 1168
GlyphClass: 2
Flags: W
LayerCount: 2
Fore
SplineSet
350 540 m 0,0,1
 350 378 350 378 407 295 c 128,-1,2
 464 212 464 212 558 212 c 0,3,4
 658 212 658 212 711 300 c 128,-1,5
 764 388 764 388 764 540 c 0,6,7
 764 688 764 688 712 778 c 128,-1,8
 660 868 660 868 558 868 c 0,9,10
 460 868 460 868 405 781 c 128,-1,11
 350 694 350 694 350 540 c 0,0,1
56 540 m 0,12,13
 56 806 56 806 186 959 c 128,-1,14
 316 1112 316 1112 516 1112 c 0,15,16
 672 1112 672 1112 760 1002 c 1,17,-1
 760 1270 l 1,18,-1
 236 1270 l 1,19,-1
 236 1514 l 1,20,-1
 1048 1514 l 1,21,-1
 1048 0 l 1,22,-1
 770 0 l 1,23,-1
 770 106 l 1,24,25
 738 52 738 52 671 10 c 128,-1,26
 604 -32 604 -32 514 -32 c 0,27,28
 428 -32 428 -32 351 -1 c 128,-1,29
 274 30 274 30 206 96 c 128,-1,30
 138 162 138 162 97 276 c 128,-1,31
 56 390 56 390 56 540 c 0,12,13
EndSplineSet
EndChar

StartChar: uni018D
Encoding: 397 397 335
Width: 1214
GlyphClass: 2
Flags: W
LayerCount: 2
Fore
SplineSet
352 644 m 0,0,1
 352 452 352 452 626 334 c 1,2,3
 736 388 736 388 801 466 c 128,-1,4
 866 544 866 544 866 638 c 0,5,6
 866 740 866 740 801 805 c 128,-1,7
 736 870 736 870 618 870 c 0,8,9
 490 870 490 870 421 805 c 128,-1,10
 352 740 352 740 352 644 c 0,0,1
56 638 m 0,11,12
 56 866 56 866 206 989 c 128,-1,13
 356 1112 356 1112 620 1112 c 0,14,15
 876 1112 876 1112 1020 983 c 128,-1,16
 1164 854 1164 854 1164 650 c 0,17,18
 1164 528 1164 528 1087 408 c 128,-1,19
 1010 288 1010 288 866 212 c 1,20,21
 944 162 944 162 984 87 c 128,-1,22
 1024 12 1024 12 1024 -64 c 0,23,24
 1024 -242 1024 -242 888 -335 c 128,-1,25
 752 -428 752 -428 552 -428 c 0,26,27
 380 -428 380 -428 254 -354 c 128,-1,28
 128 -280 128 -280 64 -156 c 1,29,-1
 272 -44 l 1,30,31
 314 -100 314 -100 386 -141 c 128,-1,32
 458 -182 458 -182 548 -182 c 0,33,34
 634 -182 634 -182 682 -151 c 128,-1,35
 730 -120 730 -120 730 -74 c 0,36,37
 730 -58 730 -58 722 -42 c 128,-1,38
 714 -26 714 -26 692 -8 c 128,-1,39
 670 10 670 10 653 23 c 128,-1,40
 636 36 636 36 595 58 c 128,-1,41
 554 80 554 80 535 90 c 128,-1,42
 516 100 516 100 464 128 c 0,43,44
 380 170 380 170 317 212 c 128,-1,45
 254 254 254 254 190 315 c 128,-1,46
 126 376 126 376 91 458 c 128,-1,47
 56 540 56 540 56 638 c 0,11,12
EndSplineSet
EndChar

StartChar: uni018E
Encoding: 398 398 336
Width: 1198
GlyphClass: 2
Flags: W
LayerCount: 2
Fore
SplineSet
66 0 m 1,0,-1
 66 254 l 1,1,-1
 764 254 l 1,2,-1
 764 634 l 1,3,-1
 138 634 l 1,4,-1
 138 884 l 1,5,-1
 764 884 l 1,6,-1
 764 1214 l 1,7,-1
 52 1214 l 1,8,-1
 52 1470 l 1,9,-1
 1062 1470 l 1,10,-1
 1062 0 l 1,11,-1
 66 0 l 1,0,-1
EndSplineSet
EndChar

StartChar: uni018F
Encoding: 399 399 337
Width: 1420
GlyphClass: 2
Flags: W
LayerCount: 2
Fore
SplineSet
62 740 m 0,0,1
 62 790 62 790 70 872 c 1,2,-1
 1040 872 l 1,3,4
 1020 1058 1020 1058 925 1152 c 128,-1,5
 830 1246 830 1246 698 1246 c 0,6,7
 488 1246 488 1246 356 1050 c 1,8,-1
 98 1148 l 1,9,10
 184 1322 184 1322 341 1412 c 128,-1,11
 498 1502 498 1502 704 1502 c 0,12,13
 1006 1502 1006 1502 1182 1286 c 128,-1,14
 1358 1070 1358 1070 1358 730 c 0,15,16
 1358 398 1358 398 1176 183 c 128,-1,17
 994 -32 994 -32 704 -32 c 0,18,19
 420 -32 420 -32 241 175 c 128,-1,20
 62 382 62 382 62 740 c 0,0,1
378 616 m 1,21,22
 378 598 378 598 380 588 c 0,23,24
 398 434 398 434 483 328 c 128,-1,25
 568 222 568 222 708 222 c 0,26,27
 846 222 846 222 939 334 c 128,-1,28
 1032 446 1032 446 1040 616 c 1,29,-1
 378 616 l 1,21,22
EndSplineSet
EndChar

StartChar: uni0190
Encoding: 400 400 338
Width: 1230
GlyphClass: 2
Flags: W
LayerCount: 2
Fore
SplineSet
68 422 m 0,0,1
 68 556 68 556 143 645 c 128,-1,2
 218 734 218 734 316 772 c 1,3,4
 236 818 236 818 180 910 c 128,-1,5
 124 1002 124 1002 124 1102 c 0,6,7
 124 1284 124 1284 260 1393 c 128,-1,8
 396 1502 396 1502 614 1502 c 0,9,10
 738 1502 738 1502 839 1463 c 128,-1,11
 940 1424 940 1424 1000 1362 c 128,-1,12
 1060 1300 1060 1300 1095 1242 c 128,-1,13
 1130 1184 1130 1184 1146 1128 c 1,14,-1
 894 1054 l 1,15,16
 798 1256 798 1256 632 1256 c 0,17,18
 542 1256 542 1256 486 1204 c 128,-1,19
 430 1152 430 1152 430 1072 c 0,20,21
 430 982 430 982 508 926 c 128,-1,22
 586 870 586 870 674 870 c 0,23,24
 796 870 796 870 848 874 c 1,25,-1
 848 634 l 1,26,27
 764 638 764 638 674 638 c 0,28,29
 548 638 548 638 462 578 c 128,-1,30
 376 518 376 518 376 426 c 0,31,32
 376 322 376 322 451 267 c 128,-1,33
 526 212 526 212 638 212 c 0,34,35
 730 212 730 212 815 271 c 128,-1,36
 900 330 900 330 938 410 c 1,37,-1
 1180 324 l 1,38,39
 1118 152 1118 152 974 60 c 128,-1,40
 830 -32 830 -32 624 -32 c 0,41,42
 370 -32 370 -32 219 91 c 128,-1,43
 68 214 68 214 68 422 c 0,0,1
EndSplineSet
EndChar

StartChar: uni0191
Encoding: 401 401 339
Width: 1146
GlyphClass: 2
Flags: W
LayerCount: 2
Fore
SplineSet
-96 -164 m 1,0,1
 -30 -178 -30 -178 10 -178 c 0,2,3
 142 -178 142 -178 142 22 c 2,4,-1
 142 1470 l 1,5,-1
 1106 1470 l 1,6,-1
 1106 1214 l 1,7,-1
 438 1214 l 1,8,-1
 438 862 l 1,9,-1
 1036 862 l 1,10,-1
 1036 608 l 1,11,-1
 438 608 l 1,12,-1
 438 22 l 2,13,14
 438 -84 438 -84 414 -167 c 128,-1,15
 390 -250 390 -250 352 -298 c 128,-1,16
 314 -346 314 -346 264 -378 c 128,-1,17
 214 -410 214 -410 167 -420 c 128,-1,18
 120 -430 120 -430 72 -430 c 0,19,20
 -8 -430 -8 -430 -96 -414 c 1,21,-1
 -96 -164 l 1,0,1
EndSplineSet
EndChar

StartChar: florin
Encoding: 402 402 340
Width: 708
GlyphClass: 2
Flags: W
LayerCount: 2
Fore
SplineSet
-40 -166 m 1,0,1
 14 -178 14 -178 66 -178 c 0,2,3
 198 -178 198 -178 198 20 c 2,4,-1
 198 838 l 1,5,-1
 44 838 l 1,6,-1
 44 1080 l 1,7,-1
 198 1080 l 1,8,-1
 198 1170 l 2,9,10
 198 1340 198 1340 282 1427 c 128,-1,11
 366 1514 366 1514 524 1514 c 2,12,-1
 714 1514 l 1,13,-1
 714 1268 l 1,14,-1
 568 1268 l 2,15,16
 522 1268 522 1268 503 1242 c 128,-1,17
 484 1216 484 1216 484 1152 c 2,18,-1
 484 1080 l 1,19,-1
 690 1080 l 1,20,-1
 690 838 l 1,21,-1
 484 838 l 1,22,-1
 484 22 l 2,23,24
 484 -110 484 -110 450 -205 c 128,-1,25
 416 -300 416 -300 360 -346 c 128,-1,26
 304 -392 304 -392 247 -411 c 128,-1,27
 190 -430 190 -430 128 -430 c 0,28,29
 48 -430 48 -430 -40 -414 c 1,30,-1
 -40 -166 l 1,0,1
EndSplineSet
EndChar

StartChar: uni0194
Encoding: 404 404 342
Width: 1306
GlyphClass: 2
Flags: W
LayerCount: 2
Fore
SplineSet
6 1470 m 1,0,-1
 322 1470 l 1,1,-1
 652 418 l 1,2,-1
 656 418 l 1,3,-1
 986 1470 l 1,4,-1
 1304 1470 l 1,5,-1
 880 280 l 1,6,7
 1050 86 1050 86 1050 -84 c 0,8,9
 1050 -236 1050 -236 937 -333 c 128,-1,10
 824 -430 824 -430 652 -430 c 0,11,12
 472 -430 472 -430 360 -337 c 128,-1,13
 248 -244 248 -244 248 -84 c 0,14,15
 248 -30 248 -30 266 24 c 128,-1,16
 284 78 284 78 320 133 c 128,-1,17
 356 188 356 188 375 212 c 128,-1,18
 394 236 394 236 428 280 c 1,19,-1
 6 1470 l 1,0,-1
546 -72 m 0,20,21
 546 -124 546 -124 575 -158 c 128,-1,22
 604 -192 604 -192 652 -192 c 0,23,24
 698 -192 698 -192 726 -159 c 128,-1,25
 754 -126 754 -126 754 -70 c 0,26,27
 754 20 754 20 650 132 c 1,28,29
 546 34 546 34 546 -72 c 0,20,21
EndSplineSet
EndChar

StartChar: uni0195
Encoding: 405 405 343
Width: 1746
GlyphClass: 2
Flags: W
LayerCount: 2
Fore
SplineSet
122 0 m 1,0,-1
 122 1514 l 1,1,-1
 406 1514 l 1,2,-1
 406 1008 l 1,3,-1
 408 1008 l 1,4,5
 512 1112 512 1112 658 1112 c 0,6,7
 726 1112 726 1112 787 1093 c 128,-1,8
 848 1074 848 1074 904 1029 c 128,-1,9
 960 984 960 984 993 898 c 128,-1,10
 1026 812 1026 812 1026 692 c 2,11,-1
 1026 412 l 2,12,13
 1026 318 1026 318 1063 265 c 128,-1,14
 1100 212 1100 212 1202 212 c 0,15,16
 1360 212 1360 212 1360 412 c 2,17,-1
 1360 1080 l 1,18,-1
 1650 1080 l 1,19,-1
 1650 360 l 2,20,21
 1650 276 1650 276 1624 208 c 128,-1,22
 1598 140 1598 140 1555 96 c 128,-1,23
 1512 52 1512 52 1452 22 c 128,-1,24
 1392 -8 1392 -8 1330 -20 c 128,-1,25
 1268 -32 1268 -32 1202 -32 c 0,26,27
 1110 -32 1110 -32 1034 -14 c 128,-1,28
 958 4 958 4 888 45 c 128,-1,29
 818 86 818 86 779 168 c 128,-1,30
 740 250 740 250 740 362 c 2,31,-1
 740 660 l 2,32,33
 740 758 740 758 712 813 c 128,-1,34
 684 868 684 868 606 868 c 0,35,36
 518 868 518 868 462 790 c 128,-1,37
 406 712 406 712 406 606 c 2,38,-1
 406 0 l 1,39,-1
 122 0 l 1,0,-1
EndSplineSet
EndChar

StartChar: uni0196
Encoding: 406 406 344
Width: 726
GlyphClass: 2
Flags: W
LayerCount: 2
Fore
SplineSet
146 334 m 2,0,-1
 146 1470 l 1,1,-1
 442 1470 l 1,2,-1
 442 344 l 2,3,4
 442 278 442 278 466 250 c 128,-1,5
 490 222 490 222 550 222 c 0,6,7
 624 222 624 222 704 236 c 1,8,-1
 704 -12 l 1,9,10
 546 -32 546 -32 490 -32 c 0,11,12
 344 -32 344 -32 245 53 c 128,-1,13
 146 138 146 138 146 334 c 2,0,-1
EndSplineSet
EndChar

StartChar: uni0197
Encoding: 407 407 345
Width: 582
GlyphClass: 2
Flags: W
LayerCount: 2
Fore
SplineSet
12 618 m 1,0,-1
 12 850 l 1,1,-1
 142 850 l 1,2,-1
 142 1470 l 1,3,-1
 440 1470 l 1,4,-1
 440 850 l 1,5,-1
 570 850 l 1,6,-1
 570 618 l 1,7,-1
 440 618 l 1,8,-1
 440 0 l 1,9,-1
 142 0 l 1,10,-1
 142 618 l 1,11,-1
 12 618 l 1,0,-1
EndSplineSet
EndChar

StartChar: uni0198
Encoding: 408 408 346
Width: 1320
GlyphClass: 2
Flags: W
LayerCount: 2
Fore
SplineSet
142 0 m 1,0,-1
 142 1470 l 1,1,-1
 440 1470 l 1,2,-1
 440 872 l 1,3,-1
 444 872 l 1,4,-1
 852 1346 l 2,5,6
 990 1502 990 1502 1204 1502 c 0,7,8
 1318 1502 1318 1502 1410 1476 c 1,9,-1
 1410 1218 l 1,10,11
 1320 1246 1320 1246 1214 1246 c 0,12,13
 1128 1246 1128 1246 1094 1204 c 2,14,-1
 754 824 l 1,15,-1
 1334 0 l 1,16,-1
 978 0 l 1,17,-1
 568 614 l 1,18,-1
 440 470 l 1,19,-1
 440 0 l 1,20,-1
 142 0 l 1,0,-1
EndSplineSet
EndChar

StartChar: uni0199
Encoding: 409 409 347
Width: 1078
GlyphClass: 2
Flags: W
LayerCount: 2
Fore
SplineSet
122 0 m 1,0,-1
 122 1242 l 2,1,2
 122 1414 122 1414 229 1505 c 128,-1,3
 336 1596 336 1596 500 1596 c 0,4,5
 576 1596 576 1596 708 1584 c 1,6,-1
 708 1332 l 1,7,8
 630 1342 630 1342 556 1342 c 0,9,10
 496 1342 496 1342 451 1298 c 128,-1,11
 406 1254 406 1254 406 1184 c 2,12,-1
 406 716 l 1,13,-1
 738 1080 l 1,14,-1
 1092 1080 l 1,15,-1
 684 638 l 1,16,-1
 1106 0 l 1,17,-1
 774 0 l 1,18,-1
 500 436 l 1,19,-1
 406 332 l 1,20,-1
 406 0 l 1,21,-1
 122 0 l 1,0,-1
EndSplineSet
EndChar

StartChar: uni019A
Encoding: 410 410 348
Width: 544
GlyphClass: 2
Flags: W
LayerCount: 2
Fore
SplineSet
-26 744 m 1,0,-1
 -26 980 l 1,1,-1
 130 980 l 1,2,-1
 130 1514 l 1,3,-1
 416 1514 l 1,4,-1
 416 980 l 1,5,-1
 570 980 l 1,6,-1
 570 744 l 1,7,-1
 416 744 l 1,8,-1
 416 0 l 1,9,-1
 130 0 l 1,10,-1
 130 744 l 1,11,-1
 -26 744 l 1,0,-1
EndSplineSet
EndChar

StartChar: uni019B
Encoding: 411 411 349
Width: 1070
GlyphClass: 2
Flags: W
LayerCount: 2
Fore
SplineSet
10 0 m 1,0,-1
 406 1032 l 1,1,-1
 398 1048 l 1,2,-1
 196 888 l 1,3,-1
 62 1068 l 1,4,-1
 278 1234 l 1,5,6
 246 1262 246 1262 158 1262 c 2,7,-1
 116 1262 l 1,8,-1
 116 1504 l 1,9,-1
 206 1504 l 2,10,11
 392 1504 392 1504 504 1396 c 1,12,-1
 702 1538 l 1,13,-1
 836 1360 l 1,14,-1
 620 1210 l 1,15,-1
 1062 0 l 1,16,-1
 754 0 l 1,17,-1
 608 508 l 2,18,19
 562 690 562 690 550 744 c 1,20,-1
 544 744 l 1,21,22
 526 666 526 666 482 508 c 2,23,-1
 320 0 l 1,24,-1
 10 0 l 1,0,-1
EndSplineSet
EndChar

StartChar: uni019C
Encoding: 412 412 350
Width: 1922
GlyphClass: 2
Flags: W
LayerCount: 2
Fore
SplineSet
138 534 m 2,0,-1
 138 1470 l 1,1,-1
 434 1470 l 1,2,-1
 434 496 l 2,3,4
 434 222 434 222 586 222 c 0,5,6
 688 222 688 222 750 326 c 128,-1,7
 812 430 812 430 812 568 c 2,8,-1
 812 1470 l 1,9,-1
 1110 1470 l 1,10,-1
 1110 484 l 2,11,12
 1110 404 1110 404 1126 347 c 128,-1,13
 1142 290 1142 290 1167 265 c 128,-1,14
 1192 240 1192 240 1214 231 c 128,-1,15
 1236 222 1236 222 1262 222 c 0,16,17
 1372 222 1372 222 1428 318 c 128,-1,18
 1484 414 1484 414 1484 568 c 2,19,-1
 1484 1470 l 1,20,-1
 1780 1470 l 1,21,-1
 1780 0 l 1,22,-1
 1496 0 l 1,23,-1
 1496 118 l 1,24,25
 1442 40 1442 40 1359 3 c 128,-1,26
 1276 -34 1276 -34 1196 -34 c 0,27,28
 1066 -34 1066 -34 994 12 c 128,-1,29
 922 58 922 58 884 152 c 1,30,31
 780 -32 780 -32 520 -32 c 0,32,33
 408 -32 408 -32 329 13 c 128,-1,34
 250 58 250 58 210 140 c 128,-1,35
 170 222 170 222 154 317 c 128,-1,36
 138 412 138 412 138 534 c 2,0,-1
EndSplineSet
EndChar

StartChar: uni019D
Encoding: 413 413 351
Width: 1400
GlyphClass: 2
Flags: W
LayerCount: 2
Fore
SplineSet
142 1468 m 1,0,-1
 446 1468 l 1,1,-1
 838 728 l 1,2,-1
 982 450 l 1,3,-1
 988 450 l 1,4,5
 962 762 962 762 962 880 c 2,6,-1
 962 1470 l 1,7,-1
 1260 1470 l 1,8,-1
 1260 0 l 1,9,-1
 958 0 l 1,10,-1
 560 728 l 1,11,-1
 416 1014 l 1,12,-1
 408 1014 l 1,13,14
 440 768 440 768 440 584 c 2,15,-1
 440 18 l 2,16,17
 440 -114 440 -114 404 -208 c 128,-1,18
 368 -302 368 -302 309 -348 c 128,-1,19
 250 -394 250 -394 192 -412 c 128,-1,20
 134 -430 134 -430 74 -430 c 0,21,22
 -14 -430 -14 -430 -96 -412 c 1,23,-1
 -96 -166 l 1,24,25
 -56 -176 -56 -176 12 -176 c 0,26,27
 78 -176 78 -176 110 -131 c 128,-1,28
 142 -86 142 -86 142 18 c 2,29,-1
 142 1468 l 1,0,-1
EndSplineSet
EndChar

StartChar: uni019E
Encoding: 414 414 352
Width: 1138
GlyphClass: 2
Flags: W
LayerCount: 2
Fore
SplineSet
112 0 m 1,0,-1
 112 1080 l 1,1,-1
 386 1080 l 1,2,-1
 386 980 l 1,3,-1
 390 980 l 1,4,5
 482 1112 482 1112 662 1112 c 0,6,7
 1020 1112 1020 1112 1020 692 c 2,8,-1
 1020 -424 l 1,9,-1
 734 -424 l 1,10,-1
 734 658 l 2,11,12
 734 758 734 758 706 813 c 128,-1,13
 678 868 678 868 600 868 c 0,14,15
 510 868 510 868 454 796 c 128,-1,16
 398 724 398 724 398 614 c 2,17,-1
 398 0 l 1,18,-1
 112 0 l 1,0,-1
EndSplineSet
EndChar

StartChar: uni019F
Encoding: 415 415 353
Width: 1414
GlyphClass: 2
Flags: W
LayerCount: 2
Fore
SplineSet
64 734 m 256,0,1
 64 1080 64 1080 241 1291 c 128,-1,2
 418 1502 418 1502 708 1502 c 0,3,4
 996 1502 996 1502 1174 1291 c 128,-1,5
 1352 1080 1352 1080 1352 734 c 256,6,7
 1352 388 1352 388 1174 178 c 128,-1,8
 996 -32 996 -32 708 -32 c 0,9,10
 416 -32 416 -32 240 178 c 128,-1,11
 64 388 64 388 64 734 c 256,0,1
1034 604 m 1,12,-1
 380 604 l 1,13,14
 408 422 408 422 490 322 c 128,-1,15
 572 222 572 222 708 222 c 256,16,17
 844 222 844 222 929 324 c 128,-1,18
 1014 426 1014 426 1034 604 c 1,12,-1
378 840 m 1,19,-1
 1036 840 l 1,20,21
 1014 1030 1014 1030 930 1138 c 128,-1,22
 846 1246 846 1246 708 1246 c 0,23,24
 568 1246 568 1246 483 1139 c 128,-1,25
 398 1032 398 1032 378 840 c 1,19,-1
EndSplineSet
EndChar

StartChar: uni01A2
Encoding: 418 418 356
Width: 1910
GlyphClass: 2
Flags: W
LayerCount: 2
Fore
SplineSet
64 734 m 0,0,1
 64 1080 64 1080 240 1291 c 128,-1,2
 416 1502 416 1502 708 1502 c 0,3,4
 770 1502 770 1502 980 1462 c 128,-1,5
 1190 1422 1190 1422 1286 1422 c 0,6,7
 1542 1422 1542 1422 1772 1470 c 1,8,-1
 1772 0 l 1,9,-1
 1476 0 l 1,10,-1
 1476 1180 l 1,11,12
 1408 1164 1408 1164 1286 1164 c 0,13,14
 1218 1164 1218 1164 1128 1180 c 1,15,-1
 1128 132 l 1,16,17
 954 -32 954 -32 708 -32 c 0,18,19
 416 -32 416 -32 240 179 c 128,-1,20
 64 390 64 390 64 734 c 0,0,1
374 734 m 256,21,22
 374 498 374 498 460 360 c 128,-1,23
 546 222 546 222 708 222 c 0,24,25
 774 222 774 222 830 252 c 1,26,-1
 830 1222 l 1,27,28
 764 1246 764 1246 708 1246 c 0,29,30
 546 1246 546 1246 460 1108 c 128,-1,31
 374 970 374 970 374 734 c 256,21,22
EndSplineSet
EndChar

StartChar: uni01A3
Encoding: 419 419 357
Width: 1486
GlyphClass: 2
Flags: W
LayerCount: 2
Fore
SplineSet
56 538 m 0,0,1
 56 806 56 806 191 959 c 128,-1,2
 326 1112 326 1112 560 1112 c 0,3,4
 636 1112 636 1112 787 1084 c 128,-1,5
 938 1056 938 1056 992 1056 c 0,6,7
 1172 1056 1172 1056 1376 1096 c 1,8,-1
 1376 0 l 1,9,-1
 1092 0 l 1,10,-1
 1092 816 l 1,11,12
 1034 810 1034 810 990 810 c 0,13,14
 930 810 930 810 894 814 c 1,15,-1
 894 88 l 1,16,17
 772 -32 772 -32 560 -32 c 0,18,19
 322 -32 322 -32 189 121 c 128,-1,20
 56 274 56 274 56 538 c 0,0,1
350 538 m 0,21,22
 350 380 350 380 408 296 c 128,-1,23
 466 212 466 212 560 212 c 0,24,25
 572 212 572 212 608 228 c 1,26,-1
 608 862 l 1,27,28
 582 868 582 868 560 868 c 0,29,30
 464 868 464 868 407 784 c 128,-1,31
 350 700 350 700 350 538 c 0,21,22
EndSplineSet
EndChar

StartChar: uni01A5
Encoding: 421 421 359
Width: 1168
GlyphClass: 2
Flags: W
LayerCount: 2
Fore
SplineSet
404 540 m 0,0,1
 404 390 404 390 459 301 c 128,-1,2
 514 212 514 212 612 212 c 0,3,4
 708 212 708 212 764 298 c 128,-1,5
 820 384 820 384 820 540 c 0,6,7
 820 690 820 690 767 779 c 128,-1,8
 714 868 714 868 612 868 c 256,9,10
 510 868 510 868 457 778 c 128,-1,11
 404 688 404 688 404 540 c 0,0,1
122 -424 m 1,12,-1
 122 1176 l 2,13,14
 122 1346 122 1346 229 1438 c 128,-1,15
 336 1530 336 1530 500 1530 c 0,16,17
 568 1530 568 1530 700 1520 c 1,18,-1
 700 1268 l 1,19,20
 638 1274 638 1274 556 1274 c 0,21,22
 496 1274 496 1274 452 1234 c 128,-1,23
 408 1194 408 1194 408 1122 c 2,24,-1
 408 990 l 1,25,26
 510 1112 510 1112 656 1112 c 0,27,28
 852 1112 852 1112 983 958 c 128,-1,29
 1114 804 1114 804 1114 540 c 0,30,31
 1114 390 1114 390 1072 274 c 128,-1,32
 1030 158 1030 158 960 94 c 128,-1,33
 890 30 890 30 813 -1 c 128,-1,34
 736 -32 736 -32 656 -32 c 0,35,36
 486 -32 486 -32 408 86 c 1,37,-1
 408 -424 l 1,38,-1
 122 -424 l 1,12,-1
EndSplineSet
EndChar

StartChar: uni01A6
Encoding: 422 422 360
Width: 1344
GlyphClass: 2
Flags: W
LayerCount: 2
Fore
SplineSet
436 666 m 1,0,-1
 720 666 l 2,1,2
 934 666 934 666 934 870 c 0,3,4
 934 1048 934 1048 718 1048 c 2,5,-1
 436 1048 l 1,6,-1
 436 666 l 1,0,-1
138 0 m 1,7,-1
 138 1470 l 1,8,-1
 436 1470 l 1,9,-1
 436 1304 l 1,10,-1
 770 1304 l 2,11,12
 1000 1304 1000 1304 1120 1186 c 128,-1,13
 1240 1068 1240 1068 1240 894 c 0,14,15
 1240 646 1240 646 1040 530 c 1,16,17
 1092 490 1092 490 1119 447 c 128,-1,18
 1146 404 1146 404 1154 374 c 128,-1,19
 1162 344 1162 344 1174 270 c 0,20,21
 1212 50 1212 50 1342 -174 c 1,22,-1
 1006 -174 l 1,23,24
 908 -10 908 -10 862 242 c 1,25,-1
 844 318 l 2,26,27
 838 342 838 342 824 368 c 128,-1,28
 810 394 810 394 785 404 c 128,-1,29
 760 414 760 414 726 414 c 2,30,-1
 436 414 l 1,31,-1
 436 0 l 1,32,-1
 138 0 l 1,7,-1
EndSplineSet
EndChar

StartChar: uni01A7
Encoding: 423 423 361
Width: 1214
GlyphClass: 2
Flags: W
LayerCount: 2
Fore
SplineSet
46 410 m 0,0,1
 46 482 46 482 70 545 c 128,-1,2
 94 608 94 608 130 652 c 128,-1,3
 166 696 166 696 219 733 c 128,-1,4
 272 770 272 770 324 792 c 128,-1,5
 376 814 376 814 440 836 c 0,6,7
 462 844 462 844 504 857 c 128,-1,8
 546 870 546 870 567 877 c 128,-1,9
 588 884 588 884 624 897 c 128,-1,10
 660 910 660 910 679 919 c 128,-1,11
 698 928 698 928 725 942 c 128,-1,12
 752 956 752 956 766 971 c 128,-1,13
 780 986 780 986 795 1004 c 128,-1,14
 810 1022 810 1022 816 1042 c 128,-1,15
 822 1062 822 1062 822 1086 c 0,16,17
 822 1158 822 1158 763 1202 c 128,-1,18
 704 1246 704 1246 602 1246 c 0,19,20
 428 1246 428 1246 306 1082 c 1,21,-1
 54 1164 l 1,22,23
 122 1312 122 1312 261 1407 c 128,-1,24
 400 1502 400 1502 602 1502 c 0,25,26
 834 1502 834 1502 983 1386 c 128,-1,27
 1132 1270 1132 1270 1132 1084 c 0,28,29
 1132 980 1132 980 1096 905 c 128,-1,30
 1060 830 1060 830 978 778 c 128,-1,31
 896 726 896 726 841 703 c 128,-1,32
 786 680 786 680 674 644 c 0,33,34
 648 636 648 636 636 632 c 0,35,36
 498 584 498 584 428 534 c 128,-1,37
 358 484 358 484 358 396 c 0,38,39
 358 322 358 322 420 271 c 128,-1,40
 482 220 482 220 586 220 c 0,41,42
 686 220 686 220 783 279 c 128,-1,43
 880 338 880 338 926 422 c 1,44,-1
 1184 336 l 1,45,46
 1112 166 1112 166 953 67 c 128,-1,47
 794 -32 794 -32 592 -32 c 0,48,49
 358 -32 358 -32 202 84 c 128,-1,50
 46 200 46 200 46 410 c 0,0,1
EndSplineSet
EndChar

StartChar: uni01A8
Encoding: 424 424 362
Width: 976
GlyphClass: 2
Flags: W
LayerCount: 2
Fore
SplineSet
52 306 m 0,0,1
 52 434 52 434 136 506 c 128,-1,2
 220 578 220 578 358 626 c 0,3,4
 374 632 374 632 411 644 c 128,-1,5
 448 656 448 656 463 661 c 128,-1,6
 478 666 478 666 506 677 c 128,-1,7
 534 688 534 688 547 697 c 128,-1,8
 560 706 560 706 575 718 c 128,-1,9
 590 730 590 730 597 745 c 128,-1,10
 604 760 604 760 604 778 c 0,11,12
 604 824 604 824 569 847 c 128,-1,13
 534 870 534 870 480 870 c 0,14,15
 344 870 344 870 238 744 c 1,16,-1
 46 856 l 1,17,18
 110 970 110 970 225 1041 c 128,-1,19
 340 1112 340 1112 486 1112 c 0,20,21
 658 1112 658 1112 777 1021 c 128,-1,22
 896 930 896 930 896 776 c 0,23,24
 896 564 896 564 596 466 c 0,25,26
 582 462 582 462 555 454 c 128,-1,27
 528 446 528 446 513 441 c 128,-1,28
 498 436 498 436 475 427 c 128,-1,29
 452 418 452 418 439 412 c 128,-1,30
 426 406 426 406 409 397 c 128,-1,31
 392 388 392 388 382 379 c 128,-1,32
 372 370 372 370 362 359 c 128,-1,33
 352 348 352 348 348 335 c 128,-1,34
 344 322 344 322 344 306 c 0,35,36
 344 264 344 264 379 237 c 128,-1,37
 414 210 414 210 470 210 c 0,38,39
 624 210 624 210 740 352 c 1,40,-1
 942 236 l 1,41,42
 878 118 878 118 752 43 c 128,-1,43
 626 -32 626 -32 470 -32 c 0,44,45
 260 -32 260 -32 156 65 c 128,-1,46
 52 162 52 162 52 306 c 0,0,1
EndSplineSet
EndChar

StartChar: uni01A9
Encoding: 425 425 363
Width: 1244
GlyphClass: 2
Flags: W
LayerCount: 2
Fore
SplineSet
136 0 m 1,0,-1
 136 192 l 1,1,-1
 638 740 l 1,2,-1
 136 1278 l 1,3,-1
 136 1470 l 1,4,-1
 1158 1470 l 1,5,-1
 1158 1212 l 1,6,-1
 558 1212 l 1,7,-1
 976 740 l 1,8,-1
 558 254 l 1,9,-1
 1172 254 l 1,10,-1
 1172 0 l 1,11,-1
 136 0 l 1,0,-1
EndSplineSet
EndChar

StartChar: uni01AA
Encoding: 426 426 364
Width: 904
GlyphClass: 2
Flags: W
LayerCount: 2
Fore
SplineSet
134 1180 m 0,0,1
 134 1132 134 1132 162 1105 c 128,-1,2
 190 1078 190 1078 228 1078 c 0,3,4
 288 1078 288 1078 328 1116 c 1,5,6
 328 1276 328 1276 234 1276 c 0,7,8
 192 1276 192 1276 163 1249 c 128,-1,9
 134 1222 134 1222 134 1180 c 0,0,1
-130 1166 m 0,10,11
 -130 1316 -130 1316 -28 1409 c 128,-1,12
 74 1502 74 1502 240 1502 c 0,13,14
 416 1502 416 1502 512 1396 c 128,-1,15
 608 1290 608 1290 608 1096 c 2,16,-1
 608 -44 l 2,17,18
 608 -178 608 -178 724 -178 c 0,19,20
 790 -178 790 -178 884 -162 c 1,21,-1
 884 -412 l 1,22,23
 726 -430 726 -430 662 -430 c 0,24,25
 596 -430 596 -430 539 -412 c 128,-1,26
 482 -394 482 -394 431 -355 c 128,-1,27
 380 -316 380 -316 351 -241 c 128,-1,28
 322 -166 322 -166 322 -62 c 2,29,-1
 322 884 l 1,30,31
 280 848 280 848 184 848 c 0,32,33
 48 848 48 848 -41 938 c 128,-1,34
 -130 1028 -130 1028 -130 1166 c 0,10,11
EndSplineSet
EndChar

StartChar: uni01AB
Encoding: 427 427 365
Width: 746
GlyphClass: 2
Flags: W
LayerCount: 2
Fore
SplineSet
30 838 m 1,0,-1
 30 1080 l 1,1,-1
 184 1080 l 1,2,-1
 184 1388 l 1,3,-1
 468 1388 l 1,4,-1
 468 1080 l 1,5,-1
 692 1080 l 1,6,-1
 692 838 l 1,7,-1
 468 838 l 1,8,-1
 468 362 l 2,9,10
 468 244 468 244 572 244 c 0,11,12
 622 244 622 244 700 254 c 1,13,-1
 700 44 l 2,14,15
 700 -188 700 -188 599 -309 c 128,-1,16
 498 -430 498 -430 320 -430 c 0,17,18
 214 -430 214 -430 148 -416 c 1,19,-1
 148 -164 l 1,20,21
 218 -178 218 -178 286 -178 c 0,22,23
 342 -178 342 -178 383 -135 c 128,-1,24
 424 -92 424 -92 424 -4 c 2,25,-1
 424 12 l 1,26,27
 380 24 380 24 340 42 c 0,28,29
 184 122 184 122 184 346 c 2,30,-1
 184 838 l 1,31,-1
 30 838 l 1,0,-1
EndSplineSet
EndChar

StartChar: uni01AC
Encoding: 428 428 366
Width: 1286
GlyphClass: 2
Flags: W
LayerCount: 2
Fore
SplineSet
-82 1104 m 0,0,1
 -82 1294 -82 1294 42 1382 c 128,-1,2
 166 1470 166 1470 342 1470 c 2,3,-1
 1270 1470 l 1,4,-1
 1270 1214 l 1,5,-1
 862 1214 l 1,6,-1
 862 0 l 1,7,-1
 562 0 l 1,8,-1
 562 1214 l 1,9,-1
 344 1214 l 2,10,11
 264 1214 264 1214 222 1177 c 128,-1,12
 180 1140 180 1140 180 1082 c 0,13,14
 180 1016 180 1016 190 970 c 1,15,-1
 -68 970 l 1,16,17
 -82 1018 -82 1018 -82 1104 c 0,0,1
EndSplineSet
EndChar

StartChar: uni01AD
Encoding: 429 429 367
Width: 746
GlyphClass: 2
Flags: W
LayerCount: 2
Fore
SplineSet
30 838 m 1,0,-1
 30 1080 l 1,1,-1
 184 1080 l 1,2,-1
 184 1162 l 2,3,4
 184 1334 184 1334 291 1425 c 128,-1,5
 398 1516 398 1516 564 1516 c 0,6,7
 638 1516 638 1516 770 1506 c 1,8,-1
 770 1252 l 1,9,10
 704 1262 704 1262 618 1262 c 0,11,12
 548 1262 548 1262 508 1223 c 128,-1,13
 468 1184 468 1184 468 1124 c 2,14,-1
 468 1080 l 1,15,-1
 692 1080 l 1,16,-1
 692 838 l 1,17,-1
 468 838 l 1,18,-1
 468 362 l 2,19,20
 468 244 468 244 572 244 c 2,21,-1
 694 244 l 1,22,-1
 694 0 l 1,23,-1
 536 0 l 2,24,25
 184 0 184 0 184 346 c 2,26,-1
 184 838 l 1,27,-1
 30 838 l 1,0,-1
EndSplineSet
EndChar

StartChar: uni01AE
Encoding: 430 430 368
Width: 1152
GlyphClass: 2
Flags: W
LayerCount: 2
Fore
SplineSet
18 1214 m 1,0,-1
 18 1470 l 1,1,-1
 1134 1470 l 1,2,-1
 1134 1214 l 1,3,-1
 726 1214 l 1,4,-1
 726 26 l 2,5,6
 726 -178 726 -178 860 -178 c 0,7,8
 900 -178 900 -178 964 -164 c 1,9,-1
 964 -414 l 1,10,11
 876 -430 876 -430 798 -430 c 0,12,13
 736 -430 736 -430 678 -411 c 128,-1,14
 620 -392 620 -392 560 -345 c 128,-1,15
 500 -298 500 -298 464 -203 c 128,-1,16
 428 -108 428 -108 428 26 c 2,17,-1
 428 1214 l 1,18,-1
 18 1214 l 1,0,-1
EndSplineSet
EndChar

StartChar: uni01B1
Encoding: 433 433 371
Width: 1454
GlyphClass: 2
Flags: W
LayerCount: 2
Fore
SplineSet
64 618 m 0,0,1
 64 818 64 818 161 966 c 128,-1,2
 258 1114 258 1114 446 1186 c 1,3,-1
 446 1214 l 1,4,-1
 94 1214 l 1,5,-1
 94 1470 l 1,6,-1
 666 1470 l 1,7,-1
 666 1022 l 1,8,9
 518 982 518 982 448 872 c 128,-1,10
 378 762 378 762 378 618 c 0,11,12
 378 458 378 458 472 344 c 128,-1,13
 566 230 566 230 726 230 c 0,14,15
 884 230 884 230 980 343 c 128,-1,16
 1076 456 1076 456 1076 618 c 0,17,18
 1076 756 1076 756 1007 867 c 128,-1,19
 938 978 938 978 790 1022 c 1,20,-1
 790 1470 l 1,21,-1
 1360 1470 l 1,22,-1
 1360 1214 l 1,23,-1
 1008 1214 l 1,24,-1
 1008 1186 l 1,25,26
 1194 1118 1194 1118 1293 967 c 128,-1,27
 1392 816 1392 816 1392 618 c 0,28,29
 1392 332 1392 332 1213 150 c 128,-1,30
 1034 -32 1034 -32 726 -32 c 0,31,32
 422 -32 422 -32 243 150 c 128,-1,33
 64 332 64 332 64 618 c 0,0,1
EndSplineSet
EndChar

StartChar: uni01B2
Encoding: 434 434 372
Width: 1422
GlyphClass: 2
Flags: W
LayerCount: 2
Fore
SplineSet
134 536 m 2,0,-1
 134 1470 l 1,1,-1
 432 1470 l 1,2,-1
 432 568 l 2,3,4
 432 370 432 370 487 296 c 128,-1,5
 542 222 542 222 650 222 c 0,6,7
 800 222 800 222 925 398 c 128,-1,8
 1050 574 1050 574 1050 838 c 0,9,10
 1050 1046 1050 1046 1000 1146 c 128,-1,11
 950 1246 950 1246 868 1246 c 0,12,13
 784 1246 784 1246 696 1216 c 1,14,-1
 696 1478 l 1,15,16
 814 1502 814 1502 910 1502 c 0,17,18
 1134 1502 1134 1502 1248 1331 c 128,-1,19
 1362 1160 1362 1160 1362 842 c 0,20,21
 1362 620 1362 620 1279 422 c 128,-1,22
 1196 224 1196 224 1030 96 c 128,-1,23
 864 -32 864 -32 650 -32 c 0,24,25
 382 -32 382 -32 258 108 c 128,-1,26
 134 248 134 248 134 536 c 2,0,-1
EndSplineSet
EndChar

StartChar: uni01B3
Encoding: 435 435 373
Width: 1298
GlyphClass: 2
Flags: W
LayerCount: 2
Fore
SplineSet
-2 1470 m 1,0,-1
 336 1470 l 1,1,-1
 546 1038 l 2,2,3
 562 1006 562 1006 646 816 c 1,4,-1
 656 816 l 1,5,6
 672 852 672 852 708 929 c 128,-1,7
 744 1006 744 1006 760 1040 c 2,8,-1
 866 1262 l 2,9,10
 926 1378 926 1378 986 1430 c 0,11,12
 1068 1502 1068 1502 1178 1502 c 0,13,14
 1262 1502 1262 1502 1334 1492 c 1,15,-1
 1334 1238 l 1,16,17
 1300 1248 1300 1248 1218 1248 c 0,18,19
 1204 1248 1204 1248 1188 1236 c 128,-1,20
 1172 1224 1172 1224 1152 1195 c 128,-1,21
 1132 1166 1132 1166 1124 1153 c 128,-1,22
 1116 1140 1116 1140 1094 1102 c 2,23,-1
 800 592 l 1,24,-1
 800 0 l 1,25,-1
 502 0 l 1,26,-1
 502 592 l 1,27,-1
 -2 1470 l 1,0,-1
EndSplineSet
EndChar

StartChar: uni01B4
Encoding: 436 436 374
Width: 1068
GlyphClass: 2
Flags: W
LayerCount: 2
Fore
SplineSet
10 1080 m 1,0,-1
 320 1080 l 1,1,-1
 480 572 l 1,2,3
 540 348 540 348 544 334 c 1,4,-1
 550 334 l 1,5,6
 562 386 562 386 585 475 c 128,-1,7
 608 564 608 564 610 570 c 2,8,-1
 708 914 l 2,9,10
 758 1104 758 1104 996 1104 c 0,11,12
 1056 1104 1056 1104 1162 1088 c 1,13,-1
 1162 830 l 1,14,15
 1090 848 1090 848 1056 848 c 0,16,17
 976 848 976 848 954 784 c 2,18,-1
 630 -104 l 2,19,20
 568 -274 568 -274 463 -349 c 128,-1,21
 358 -424 358 -424 204 -424 c 2,22,-1
 118 -424 l 1,23,-1
 118 -184 l 1,24,-1
 158 -184 l 2,25,26
 240 -184 240 -184 293 -151 c 128,-1,27
 346 -118 346 -118 374 -40 c 2,28,-1
 406 50 l 1,29,-1
 10 1080 l 1,0,-1
EndSplineSet
EndChar

StartChar: uni01B5
Encoding: 437 437 375
Width: 1198
GlyphClass: 2
Flags: W
LayerCount: 2
Fore
SplineSet
154 606 m 1,0,-1
 154 842 l 1,1,-1
 500 842 l 1,2,-1
 768 1214 l 1,3,-1
 106 1214 l 1,4,-1
 106 1470 l 1,5,-1
 1140 1470 l 1,6,-1
 1140 1250 l 1,7,-1
 846 842 l 1,8,-1
 1006 842 l 1,9,-1
 1006 606 l 1,10,-1
 672 606 l 1,11,-1
 418 254 l 1,12,-1
 1160 254 l 1,13,-1
 1160 0 l 1,14,-1
 46 0 l 1,15,-1
 46 216 l 1,16,-1
 328 606 l 1,17,-1
 154 606 l 1,0,-1
EndSplineSet
EndChar

StartChar: uni01B6
Encoding: 438 438 376
Width: 992
GlyphClass: 2
Flags: W
LayerCount: 2
Fore
SplineSet
40 0 m 1,0,-1
 40 188 l 1,1,-1
 234 432 l 1,2,-1
 114 432 l 1,3,-1
 114 666 l 1,4,-1
 420 666 l 1,5,-1
 554 838 l 1,6,-1
 78 838 l 1,7,-1
 78 1080 l 1,8,-1
 930 1080 l 1,9,-1
 930 902 l 1,10,-1
 742 666 l 1,11,-1
 868 666 l 1,12,-1
 868 432 l 1,13,-1
 556 432 l 1,14,-1
 410 244 l 1,15,-1
 954 244 l 1,16,-1
 954 0 l 1,17,-1
 40 0 l 1,0,-1
EndSplineSet
EndChar

StartChar: uni01B7
Encoding: 439 439 377
Width: 1404
GlyphClass: 2
Flags: W
LayerCount: 2
Fore
SplineSet
86 36 m 1,0,-1
 344 132 l 1,1,2
 358 78 358 78 384 26 c 128,-1,3
 410 -26 410 -26 451 -72 c 128,-1,4
 492 -118 492 -118 557 -147 c 128,-1,5
 622 -176 622 -176 700 -176 c 0,6,7
 842 -176 842 -176 932 -75 c 128,-1,8
 1022 26 1022 26 1022 184 c 0,9,10
 1022 354 1022 354 915 460 c 128,-1,11
 808 566 808 566 644 566 c 2,12,-1
 412 566 l 1,13,-1
 412 792 l 1,14,-1
 788 1214 l 1,15,-1
 158 1214 l 1,16,-1
 158 1470 l 1,17,-1
 1240 1470 l 1,18,-1
 1240 1298 l 1,19,-1
 796 814 l 1,20,-1
 816 810 l 2,21,22
 1042 766 1042 766 1186 600 c 128,-1,23
 1330 434 1330 434 1330 184 c 0,24,25
 1330 -80 1330 -80 1156 -254 c 128,-1,26
 982 -428 982 -428 708 -428 c 0,27,28
 568 -428 568 -428 456 -388 c 128,-1,29
 344 -348 344 -348 273 -277 c 128,-1,30
 202 -206 202 -206 157 -130 c 128,-1,31
 112 -54 112 -54 86 36 c 1,0,-1
EndSplineSet
EndChar

StartChar: uni01B8
Encoding: 440 440 378
Width: 1404
GlyphClass: 2
Flags: W
LayerCount: 2
Fore
SplineSet
74 184 m 0,0,1
 74 434 74 434 218 601 c 128,-1,2
 362 768 362 768 586 810 c 2,3,-1
 608 814 l 1,4,-1
 164 1298 l 1,5,-1
 164 1470 l 1,6,-1
 1246 1470 l 1,7,-1
 1246 1214 l 1,8,-1
 616 1214 l 1,9,-1
 992 792 l 1,10,-1
 992 566 l 1,11,-1
 760 566 l 2,12,13
 596 566 596 566 489 460 c 128,-1,14
 382 354 382 354 382 184 c 0,15,16
 382 26 382 26 472 -75 c 128,-1,17
 562 -176 562 -176 704 -176 c 0,18,19
 782 -176 782 -176 847 -147 c 128,-1,20
 912 -118 912 -118 953 -72 c 128,-1,21
 994 -26 994 -26 1020 26 c 128,-1,22
 1046 78 1046 78 1058 132 c 1,23,-1
 1318 36 l 1,24,25
 1292 -54 1292 -54 1247 -130 c 128,-1,26
 1202 -206 1202 -206 1130 -277 c 128,-1,27
 1058 -348 1058 -348 946 -388 c 128,-1,28
 834 -428 834 -428 694 -428 c 0,29,30
 422 -428 422 -428 248 -254 c 128,-1,31
 74 -80 74 -80 74 184 c 0,0,1
EndSplineSet
EndChar

StartChar: uni01B9
Encoding: 441 441 379
Width: 1194
GlyphClass: 2
Flags: W
LayerCount: 2
Fore
SplineSet
70 80 m 0,0,1
 70 256 70 256 184 396 c 128,-1,2
 298 536 298 536 472 564 c 1,3,-1
 480 566 l 1,4,-1
 142 906 l 1,5,-1
 142 1080 l 1,6,-1
 1058 1080 l 1,7,-1
 1058 838 l 1,8,-1
 568 838 l 1,9,-1
 838 550 l 1,10,-1
 838 356 l 1,11,-1
 640 356 l 2,12,13
 508 356 508 356 436 276 c 128,-1,14
 364 196 364 196 364 80 c 0,15,16
 364 -32 364 -32 431 -109 c 128,-1,17
 498 -186 498 -186 610 -186 c 256,18,19
 722 -186 722 -186 787 -110 c 128,-1,20
 852 -34 852 -34 866 62 c 1,21,-1
 1124 0 l 1,22,23
 1086 -182 1086 -182 950 -306 c 128,-1,24
 814 -430 814 -430 600 -430 c 0,25,26
 362 -430 362 -430 216 -282 c 128,-1,27
 70 -134 70 -134 70 80 c 0,0,1
EndSplineSet
EndChar

StartChar: uni01BA
Encoding: 442 442 380
Width: 892
GlyphClass: 2
Flags: W
LayerCount: 2
Fore
SplineSet
62 -114 m 0,0,1
 62 -34 62 -34 109 34 c 128,-1,2
 156 102 156 102 224 147 c 128,-1,3
 292 192 292 192 360 230 c 128,-1,4
 428 268 428 268 476 303 c 128,-1,5
 524 338 524 338 524 366 c 0,6,7
 524 412 524 412 459 439 c 128,-1,8
 394 466 394 466 292 466 c 2,9,-1
 222 466 l 1,10,-1
 222 612 l 1,11,-1
 468 838 l 1,12,-1
 68 838 l 1,13,-1
 68 1080 l 1,14,-1
 838 1080 l 1,15,-1
 838 892 l 1,16,-1
 544 626 l 1,17,-1
 584 622 l 2,18,19
 674 612 674 612 745 555 c 128,-1,20
 816 498 816 498 816 380 c 0,21,22
 816 308 816 308 769 246 c 128,-1,23
 722 184 722 184 654 139 c 128,-1,24
 586 94 586 94 518 55 c 128,-1,25
 450 16 450 16 403 -22 c 128,-1,26
 356 -60 356 -60 356 -94 c 0,27,28
 356 -174 356 -174 472 -174 c 0,29,30
 550 -174 550 -174 704 -142 c 1,31,-1
 704 -392 l 1,32,33
 548 -420 548 -420 426 -420 c 0,34,35
 266 -420 266 -420 164 -338 c 128,-1,36
 62 -256 62 -256 62 -114 c 0,0,1
EndSplineSet
EndChar

StartChar: uni01BB
Encoding: 443 443 381
Width: 1106
GlyphClass: 2
Flags: W
LayerCount: 2
Fore
SplineSet
178 586 m 1,0,-1
 178 822 l 1,1,-1
 596 822 l 1,2,3
 702 942 702 942 702 1076 c 0,4,5
 702 1164 702 1164 654 1210 c 128,-1,6
 606 1256 606 1256 548 1256 c 0,7,8
 546 1256 546 1256 544 1256 c 0,9,10
 458 1254 458 1254 407 1194 c 128,-1,11
 356 1134 356 1134 322 1012 c 1,12,-1
 70 1088 l 1,13,14
 110 1270 110 1270 228 1386 c 128,-1,15
 346 1502 346 1502 552 1502 c 0,16,17
 756 1502 756 1502 882 1383 c 128,-1,18
 1008 1264 1008 1264 1008 1064 c 0,19,20
 1008 942 1008 942 940 822 c 1,21,-1
 1072 822 l 1,22,-1
 1072 586 l 1,23,-1
 740 586 l 1,24,25
 732 578 732 578 695 543 c 128,-1,26
 658 508 658 508 645 494 c 128,-1,27
 632 480 632 480 600 446 c 128,-1,28
 568 412 568 412 548 385 c 128,-1,29
 528 358 528 358 501 321 c 128,-1,30
 474 284 474 284 450 244 c 1,31,-1
 1004 244 l 1,32,-1
 1004 0 l 1,33,-1
 88 0 l 1,34,35
 88 290 88 290 360 586 c 1,36,-1
 178 586 l 1,0,-1
EndSplineSet
EndChar

StartChar: uni01BC
Encoding: 444 444 382
Width: 1216
GlyphClass: 2
Flags: W
LayerCount: 2
Fore
SplineSet
82 294 m 1,0,-1
 324 378 l 1,1,2
 358 304 358 304 425 258 c 128,-1,3
 492 212 492 212 580 212 c 0,4,5
 686 212 686 212 752 281 c 128,-1,6
 818 350 818 350 818 464 c 0,7,8
 818 564 818 564 743 638 c 128,-1,9
 668 712 668 712 530 712 c 0,10,11
 406 712 406 712 238 674 c 1,12,-1
 314 1216 l 1,13,-1
 228 1216 l 1,14,-1
 228 1470 l 1,15,-1
 1056 1470 l 1,16,-1
 1056 1214 l 1,17,-1
 590 1214 l 1,18,-1
 552 952 l 1,19,20
 578 956 578 956 644 956 c 0,21,22
 858 956 858 956 993 822 c 128,-1,23
 1128 688 1128 688 1128 472 c 0,24,25
 1128 380 1128 380 1098 294 c 128,-1,26
 1068 208 1068 208 1006 134 c 128,-1,27
 944 60 944 60 837 14 c 128,-1,28
 730 -32 730 -32 594 -32 c 0,29,30
 406 -32 406 -32 270 61 c 128,-1,31
 134 154 134 154 82 294 c 1,0,-1
EndSplineSet
EndChar

StartChar: uni01BD
Encoding: 445 445 383
Width: 986
GlyphClass: 2
Flags: W
LayerCount: 2
Fore
SplineSet
78 240 m 1,0,-1
 308 338 l 1,1,2
 330 278 330 278 374 244 c 128,-1,3
 418 210 418 210 472 210 c 0,4,5
 536 210 536 210 578 248 c 128,-1,6
 620 286 620 286 620 350 c 0,7,8
 620 402 620 402 575 449 c 128,-1,9
 530 496 530 496 446 496 c 0,10,11
 352 496 352 496 190 468 c 1,12,-1
 248 840 l 1,13,-1
 190 840 l 1,14,-1
 190 1080 l 1,15,-1
 830 1080 l 1,16,-1
 830 838 l 1,17,-1
 496 838 l 1,18,-1
 476 738 l 1,19,-1
 522 740 l 2,20,21
 696 740 696 740 806 630 c 128,-1,22
 916 520 916 520 916 362 c 0,23,24
 916 290 916 290 891 223 c 128,-1,25
 866 156 866 156 816 98 c 128,-1,26
 766 40 766 40 677 4 c 128,-1,27
 588 -32 588 -32 474 -32 c 0,28,29
 202 -32 202 -32 78 240 c 1,0,-1
EndSplineSet
EndChar

StartChar: uni01BE
Encoding: 446 446 384
Width: 906
GlyphClass: 2
Flags: W
LayerCount: 2
Fore
SplineSet
34 838 m 1,0,-1
 34 1080 l 1,1,-1
 184 1080 l 1,2,-1
 184 1386 l 1,3,-1
 468 1386 l 1,4,-1
 468 1080 l 1,5,-1
 690 1080 l 1,6,-1
 690 838 l 1,7,-1
 468 838 l 1,8,-1
 468 812 l 2,9,10
 468 760 468 760 496 721 c 128,-1,11
 524 682 524 682 565 660 c 128,-1,12
 606 638 606 638 656 607 c 128,-1,13
 706 576 706 576 747 545 c 128,-1,14
 788 514 788 514 816 455 c 128,-1,15
 844 396 844 396 844 318 c 0,16,17
 844 254 844 254 824 197 c 128,-1,18
 804 140 804 140 763 86 c 128,-1,19
 722 32 722 32 643 0 c 128,-1,20
 564 -32 564 -32 456 -32 c 0,21,22
 194 -32 194 -32 56 222 c 1,23,-1
 258 332 l 1,24,25
 298 272 298 272 339 242 c 128,-1,26
 380 212 380 212 446 212 c 0,27,28
 496 212 496 212 527 241 c 128,-1,29
 558 270 558 270 558 308 c 0,30,31
 558 348 558 348 530 378 c 128,-1,32
 502 408 502 408 461 427 c 128,-1,33
 420 446 420 446 372 474 c 128,-1,34
 324 502 324 502 282 536 c 128,-1,35
 240 570 240 570 212 635 c 128,-1,36
 184 700 184 700 184 786 c 2,37,-1
 184 838 l 1,38,-1
 34 838 l 1,0,-1
EndSplineSet
EndChar

StartChar: uni01BF
Encoding: 447 447 385
Width: 1150
GlyphClass: 2
Flags: W
LayerCount: 2
Fore
SplineSet
122 -424 m 1,0,-1
 122 1080 l 1,1,-1
 398 1080 l 1,2,-1
 398 998 l 1,3,4
 498 1112 498 1112 674 1112 c 0,5,6
 884 1112 884 1112 990 991 c 128,-1,7
 1096 870 1096 870 1096 684 c 0,8,9
 1096 120 1096 120 408 4 c 1,10,-1
 408 -424 l 1,11,-1
 122 -424 l 1,0,-1
408 240 m 1,12,13
 476 252 476 252 543 282 c 128,-1,14
 610 312 610 312 670 361 c 128,-1,15
 730 410 730 410 768 485 c 128,-1,16
 806 560 806 560 806 650 c 0,17,18
 806 764 806 764 760 816 c 128,-1,19
 714 868 714 868 638 868 c 0,20,21
 566 868 566 868 501 827 c 128,-1,22
 436 786 436 786 408 724 c 1,23,-1
 408 240 l 1,12,13
EndSplineSet
EndChar

StartChar: uni01C0
Encoding: 448 448 386
Width: 552
GlyphClass: 2
Flags: W
LayerCount: 2
Fore
SplineSet
146 -390 m 1,0,-1
 146 1620 l 1,1,-1
 406 1620 l 1,2,-1
 406 -390 l 1,3,-1
 146 -390 l 1,0,-1
EndSplineSet
EndChar

StartChar: uni01C1
Encoding: 449 449 387
Width: 970
GlyphClass: 2
Flags: W
LayerCount: 2
Fore
SplineSet
146 -390 m 1,0,-1
 146 1620 l 1,1,-1
 406 1620 l 1,2,-1
 406 -390 l 1,3,-1
 146 -390 l 1,0,-1
566 -390 m 1,4,-1
 566 1620 l 1,5,-1
 824 1620 l 1,6,-1
 824 -390 l 1,7,-1
 566 -390 l 1,4,-1
EndSplineSet
EndChar

StartChar: uni01C2
Encoding: 450 450 388
Width: 760
GlyphClass: 2
Flags: W
LayerCount: 2
Fore
SplineSet
26 810 m 1,0,-1
 26 1006 l 1,1,-1
 254 1006 l 1,2,-1
 254 1620 l 1,3,-1
 516 1620 l 1,4,-1
 516 1006 l 1,5,-1
 738 1006 l 1,6,-1
 738 810 l 1,7,-1
 516 810 l 1,8,-1
 516 586 l 1,9,-1
 738 586 l 1,10,-1
 738 388 l 1,11,-1
 516 388 l 1,12,-1
 516 -390 l 1,13,-1
 254 -390 l 1,14,-1
 254 388 l 1,15,-1
 26 388 l 1,16,-1
 26 586 l 1,17,-1
 254 586 l 1,18,-1
 254 810 l 1,19,-1
 26 810 l 1,0,-1
EndSplineSet
EndChar

StartChar: uni01DD
Encoding: 477 477 415
Width: 1120
GlyphClass: 2
Flags: W
LayerCount: 2
Fore
SplineSet
54 534 m 0,0,1
 54 588 54 588 60 640 c 1,2,-1
 778 640 l 1,3,4
 778 742 778 742 712 813 c 128,-1,5
 646 884 646 884 536 884 c 0,6,7
 454 884 454 884 395 844 c 128,-1,8
 336 804 336 804 306 742 c 1,9,-1
 68 826 l 1,10,11
 122 946 122 946 242 1029 c 128,-1,12
 362 1112 362 1112 544 1112 c 0,13,14
 772 1112 772 1112 919 955 c 128,-1,15
 1066 798 1066 798 1066 536 c 0,16,17
 1066 272 1066 272 920 120 c 128,-1,18
 774 -32 774 -32 556 -32 c 0,19,20
 346 -32 346 -32 200 125 c 128,-1,21
 54 282 54 282 54 534 c 0,0,1
342 446 m 1,22,23
 342 342 342 342 399 267 c 128,-1,24
 456 192 456 192 556 192 c 256,25,26
 656 192 656 192 716 267 c 128,-1,27
 776 342 776 342 778 446 c 1,28,-1
 342 446 l 1,22,23
EndSplineSet
EndChar

StartChar: uni01E4
Encoding: 484 484 422
Width: 1454
GlyphClass: 2
Flags: W
LayerCount: 2
Fore
SplineSet
64 736 m 0,0,1
 64 944 64 944 139 1115 c 128,-1,2
 214 1286 214 1286 372 1394 c 128,-1,3
 530 1502 530 1502 746 1502 c 0,4,5
 862 1502 862 1502 961 1463 c 128,-1,6
 1060 1424 1060 1424 1126 1361 c 128,-1,7
 1192 1298 1192 1298 1232 1241 c 128,-1,8
 1272 1184 1272 1184 1298 1128 c 1,9,-1
 1040 1046 l 1,10,11
 1040 1048 1040 1048 1027 1067 c 128,-1,12
 1014 1086 1014 1086 1010 1091 c 128,-1,13
 1006 1096 1006 1096 991 1116 c 128,-1,14
 976 1136 976 1136 944 1170 c 0,15,16
 926 1186 926 1186 913 1194 c 128,-1,17
 900 1202 900 1202 879 1214 c 128,-1,18
 858 1226 858 1226 839 1231 c 128,-1,19
 820 1236 820 1236 796 1241 c 128,-1,20
 772 1246 772 1246 746 1246 c 0,21,22
 574 1246 574 1246 473 1109 c 128,-1,23
 372 972 372 972 372 736 c 0,24,25
 372 504 372 504 473 363 c 128,-1,26
 574 222 574 222 726 222 c 0,27,28
 888 222 888 222 970 324 c 1,29,-1
 654 324 l 1,30,-1
 654 506 l 1,31,-1
 1040 506 l 1,32,33
 1044 550 1044 550 1044 552 c 2,34,-1
 1044 594 l 1,35,-1
 716 594 l 1,36,-1
 716 838 l 1,37,-1
 1332 838 l 1,38,-1
 1332 506 l 1,39,-1
 1442 506 l 1,40,-1
 1442 324 l 1,41,-1
 1332 324 l 1,42,-1
 1332 0 l 1,43,-1
 1128 0 l 1,44,-1
 1102 112 l 1,45,46
 984 -32 984 -32 722 -32 c 0,47,48
 446 -32 446 -32 255 174 c 128,-1,49
 64 380 64 380 64 736 c 0,0,1
EndSplineSet
EndChar

StartChar: uni01E5
Encoding: 485 485 423
Width: 1142
GlyphClass: 2
Flags: W
LayerCount: 2
Fore
SplineSet
62 608 m 0,0,1
 62 834 62 834 192 973 c 128,-1,2
 322 1112 322 1112 516 1112 c 0,3,4
 602 1112 602 1112 663 1073 c 128,-1,5
 724 1034 724 1034 744 992 c 1,6,-1
 744 1080 l 1,7,-1
 1032 1080 l 1,8,-1
 1032 228 l 2,9,10
 1032 132 1032 132 1026 62 c 1,11,-1
 1146 62 l 1,12,-1
 1146 -104 l 1,13,-1
 1002 -104 l 1,14,15
 954 -264 954 -264 843 -347 c 128,-1,16
 732 -430 732 -430 530 -430 c 0,17,18
 252 -430 252 -430 96 -216 c 1,19,-1
 282 -82 l 1,20,21
 376 -202 376 -202 534 -202 c 0,22,23
 638 -202 638 -202 708 -104 c 1,24,-1
 392 -104 l 1,25,-1
 392 62 l 1,26,-1
 744 62 l 1,27,28
 748 98 748 98 748 148 c 2,29,-1
 748 210 l 1,30,31
 716 166 716 166 649 137 c 128,-1,32
 582 108 582 108 518 108 c 0,33,34
 324 108 324 108 193 242 c 128,-1,35
 62 376 62 376 62 608 c 0,0,1
358 608 m 0,36,37
 358 484 358 484 416 418 c 128,-1,38
 474 352 474 352 550 352 c 0,39,40
 628 352 628 352 685 422 c 128,-1,41
 742 492 742 492 742 612 c 256,42,43
 742 732 742 732 688 800 c 128,-1,44
 634 868 634 868 552 868 c 0,45,46
 466 868 466 868 412 797 c 128,-1,47
 358 726 358 726 358 608 c 0,36,37
EndSplineSet
EndChar

StartChar: uni01EF
Encoding: 495 495 433
Width: 1194
GlyphClass: 2
Flags: W
LayerCount: 2
Fore
SplineSet
180 1574 m 1,0,-1
 454 1574 l 1,1,-1
 600 1388 l 1,2,-1
 748 1574 l 1,3,-1
 1022 1574 l 1,4,-1
 718 1242 l 1,5,-1
 476 1242 l 1,6,-1
 180 1574 l 1,0,-1
76 0 m 1,7,-1
 332 62 l 1,8,9
 346 -34 346 -34 411 -110 c 128,-1,10
 476 -186 476 -186 586 -186 c 0,11,12
 698 -186 698 -186 766 -110 c 128,-1,13
 834 -34 834 -34 834 80 c 0,14,15
 834 196 834 196 763 276 c 128,-1,16
 692 356 692 356 558 356 c 2,17,-1
 358 356 l 1,18,-1
 358 550 l 1,19,-1
 630 838 l 1,20,-1
 142 838 l 1,21,-1
 142 1080 l 1,22,-1
 1058 1080 l 1,23,-1
 1058 906 l 1,24,-1
 718 564 l 1,25,-1
 796 546 l 1,26,27
 936 502 936 502 1032 373 c 128,-1,28
 1128 244 1128 244 1128 80 c 0,29,30
 1128 -134 1128 -134 981 -282 c 128,-1,31
 834 -430 834 -430 598 -430 c 0,32,33
 382 -430 382 -430 248 -306 c 128,-1,34
 114 -182 114 -182 76 0 c 1,7,-1
EndSplineSet
EndChar

StartChar: uni01F6
Encoding: 502 502 440
Width: 1970
GlyphClass: 2
Flags: W
LayerCount: 2
Fore
SplineSet
142 0 m 1,0,-1
 142 1470 l 1,1,-1
 440 1470 l 1,2,-1
 440 882 l 1,3,-1
 956 882 l 1,4,-1
 956 1470 l 1,5,-1
 1256 1470 l 1,6,-1
 1256 424 l 2,7,8
 1256 212 1256 212 1422 212 c 0,9,10
 1490 212 1490 212 1534 265 c 128,-1,11
 1578 318 1578 318 1578 394 c 2,12,-1
 1578 1080 l 1,13,-1
 1876 1080 l 1,14,-1
 1876 358 l 2,15,16
 1876 164 1876 164 1743 66 c 128,-1,17
 1610 -32 1610 -32 1420 -32 c 0,18,19
 1330 -32 1330 -32 1252 -12 c 128,-1,20
 1174 8 1174 8 1106 51 c 128,-1,21
 1038 94 1038 94 997 173 c 128,-1,22
 956 252 956 252 956 360 c 2,23,-1
 956 628 l 1,24,-1
 440 628 l 1,25,-1
 440 0 l 1,26,-1
 142 0 l 1,0,-1
EndSplineSet
EndChar

StartChar: uni01F7
Encoding: 503 503 441
Width: 1288
GlyphClass: 2
Flags: W
LayerCount: 2
Fore
SplineSet
144 -422 m 1,0,-1
 144 1470 l 1,1,-1
 442 1470 l 1,2,-1
 442 1356 l 1,3,4
 604 1502 604 1502 788 1502 c 0,5,6
 1008 1502 1008 1502 1116 1367 c 128,-1,7
 1224 1232 1224 1232 1224 984 c 0,8,9
 1224 814 1224 814 1151 652 c 128,-1,10
 1078 490 1078 490 960 367 c 128,-1,11
 842 244 842 244 711 153 c 128,-1,12
 580 62 580 62 442 2 c 1,13,-1
 442 -422 l 1,14,-1
 144 -422 l 1,0,-1
442 288 m 1,15,16
 630 388 630 388 774 577 c 128,-1,17
 918 766 918 766 918 970 c 0,18,19
 918 1246 918 1246 726 1246 c 0,20,21
 652 1246 652 1246 575 1196 c 128,-1,22
 498 1146 498 1146 442 1068 c 1,23,-1
 442 288 l 1,15,16
EndSplineSet
EndChar

StartChar: Aringacute
Encoding: 506 506 444
Width: 1340
GlyphClass: 2
Flags: W
LayerCount: 2
Fore
SplineSet
-8 0 m 1,0,-1
 504 1444 l 1,1,2
 482 1458 482 1458 462 1476 c 0,3,4
 372 1556 372 1556 372 1678 c 0,5,6
 372 1794 372 1794 458 1878 c 0,7,8
 506 1924 506 1924 568 1944 c 1,9,-1
 736 2206 l 1,10,-1
 1070 2206 l 1,11,-1
 812 1932 l 1,12,13
 854 1912 854 1912 890 1876 c 0,14,15
 974 1792 974 1792 974 1678 c 0,16,17
 974 1558 974 1558 886 1478 c 0,18,19
 864 1456 864 1456 840 1442 c 1,20,-1
 1348 0 l 1,21,-1
 1034 0 l 1,22,-1
 930 328 l 1,23,-1
 412 328 l 1,24,-1
 306 0 l 1,25,-1
 -8 0 l 1,0,-1
484 568 m 1,26,-1
 854 568 l 1,27,-1
 760 880 l 2,28,29
 706 1066 706 1066 674 1180 c 1,30,-1
 664 1180 l 1,31,32
 622 1024 622 1024 580 880 c 2,33,-1
 484 568 l 1,26,-1
566 1678 m 0,34,35
 566 1634 566 1634 596 1603 c 128,-1,36
 626 1572 626 1572 674 1572 c 0,37,38
 716 1572 716 1572 747 1601 c 128,-1,39
 778 1630 778 1630 778 1678 c 0,40,41
 778 1724 778 1724 748 1754 c 128,-1,42
 718 1784 718 1784 674 1784 c 0,43,44
 628 1784 628 1784 597 1754 c 128,-1,45
 566 1724 566 1724 566 1678 c 0,34,35
EndSplineSet
EndChar

StartChar: aringacute
Encoding: 507 507 445
Width: 1090
GlyphClass: 2
Flags: W
LayerCount: 2
Fore
SplineSet
54 294 m 0,0,1
 54 442 54 442 167 539 c 128,-1,2
 280 636 280 636 498 668 c 0,3,4
 678 696 678 696 708 706 c 1,5,-1
 708 760 l 2,6,7
 708 828 708 828 662 859 c 128,-1,8
 616 890 616 890 542 890 c 0,9,10
 374 890 374 890 252 758 c 1,11,-1
 82 902 l 1,12,13
 258 1112 258 1112 538 1112 c 0,14,15
 786 1112 786 1112 890 994 c 128,-1,16
 994 876 994 876 994 658 c 2,17,-1
 994 0 l 1,18,-1
 716 0 l 1,19,-1
 716 112 l 1,20,21
 684 50 684 50 609 9 c 128,-1,22
 534 -32 534 -32 436 -32 c 0,23,24
 260 -32 260 -32 157 58 c 128,-1,25
 54 148 54 148 54 294 c 0,0,1
254 1460 m 0,26,27
 254 1576 254 1576 340 1660 c 0,28,29
 388 1706 388 1706 452 1726 c 1,30,-1
 620 1988 l 1,31,-1
 954 1988 l 1,32,-1
 696 1714 l 1,33,34
 738 1694 738 1694 774 1658 c 0,35,36
 858 1574 858 1574 858 1460 c 0,37,38
 858 1340 858 1340 770 1260 c 128,-1,39
 682 1180 682 1180 556 1180 c 0,40,41
 434 1180 434 1180 344 1259 c 128,-1,42
 254 1338 254 1338 254 1460 c 0,26,27
344 320 m 0,43,44
 344 272 344 272 382 238 c 128,-1,45
 420 204 420 204 480 204 c 0,46,47
 574 204 574 204 641 269 c 128,-1,48
 708 334 708 334 708 442 c 2,49,-1
 708 514 l 1,50,51
 604 488 604 488 542 480 c 0,52,53
 344 450 344 450 344 320 c 0,43,44
448 1460 m 0,54,55
 448 1416 448 1416 479 1386 c 128,-1,56
 510 1356 510 1356 556 1356 c 0,57,58
 600 1356 600 1356 630 1384 c 128,-1,59
 660 1412 660 1412 660 1460 c 0,60,61
 660 1506 660 1506 631 1536 c 128,-1,62
 602 1566 602 1566 556 1566 c 0,63,64
 512 1566 512 1566 480 1536 c 128,-1,65
 448 1506 448 1506 448 1460 c 0,54,55
EndSplineSet
EndChar

StartChar: uni021C
Encoding: 540 540 478
Width: 1156
GlyphClass: 2
Flags: W
LayerCount: 2
Fore
SplineSet
60 -130 m 1,0,1
 210 -166 210 -166 392 -166 c 0,2,3
 562 -166 562 -166 666 -70 c 128,-1,4
 770 26 770 26 770 184 c 0,5,6
 770 360 770 360 690 441 c 128,-1,7
 610 522 610 522 500 522 c 0,8,9
 384 522 384 522 252 470 c 1,10,-1
 252 730 l 1,11,-1
 482 778 l 2,12,13
 596 798 596 798 670 864 c 128,-1,14
 744 930 744 930 744 1038 c 0,15,16
 744 1128 744 1128 684 1185 c 128,-1,17
 624 1242 624 1242 520 1242 c 0,18,19
 438 1242 438 1242 389 1204 c 128,-1,20
 340 1166 340 1166 298 1086 c 1,21,-1
 64 1198 l 1,22,23
 120 1344 120 1344 246 1423 c 128,-1,24
 372 1502 372 1502 528 1502 c 0,25,26
 782 1502 782 1502 920 1384 c 128,-1,27
 1058 1266 1058 1266 1058 1074 c 0,28,29
 1058 914 1058 914 988 811 c 128,-1,30
 918 708 918 708 820 662 c 1,31,-1
 820 660 l 1,32,33
 932 618 932 618 1006 491 c 128,-1,34
 1080 364 1080 364 1080 178 c 0,35,36
 1080 -112 1080 -112 888 -270 c 128,-1,37
 696 -428 696 -428 394 -428 c 0,38,39
 258 -428 258 -428 60 -394 c 1,40,-1
 60 -130 l 1,0,1
EndSplineSet
EndChar

StartChar: uni021D
Encoding: 541 541 479
Width: 902
GlyphClass: 2
Flags: W
LayerCount: 2
Fore
SplineSet
44 -158 m 1,0,1
 184 -186 184 -186 308 -186 c 0,2,3
 420 -186 420 -186 486 -124 c 128,-1,4
 552 -62 552 -62 552 56 c 0,5,6
 552 166 552 166 498 228 c 128,-1,7
 444 290 444 290 368 290 c 0,8,9
 304 290 304 290 196 256 c 1,10,-1
 196 498 l 1,11,-1
 372 534 l 2,12,13
 448 550 448 550 494 600 c 128,-1,14
 540 650 540 650 540 720 c 0,15,16
 540 788 540 788 508 828 c 128,-1,17
 476 868 476 868 428 868 c 0,18,19
 314 868 314 868 276 736 c 1,20,-1
 58 814 l 1,21,22
 80 940 80 940 180 1026 c 128,-1,23
 280 1112 280 1112 446 1112 c 0,24,25
 616 1112 616 1112 723 1007 c 128,-1,26
 830 902 830 902 830 760 c 0,27,28
 830 538 830 538 648 428 c 1,29,30
 726 398 726 398 786 296 c 128,-1,31
 846 194 846 194 846 64 c 0,32,33
 846 -180 846 -180 707 -305 c 128,-1,34
 568 -430 568 -430 312 -430 c 0,35,36
 202 -430 202 -430 44 -408 c 1,37,-1
 44 -158 l 1,0,1
EndSplineSet
EndChar

StartChar: uni0220
Encoding: 544 544 482
Width: 1382
GlyphClass: 2
Flags: W
LayerCount: 2
Fore
SplineSet
142 0 m 1,0,-1
 142 1470 l 1,1,-1
 426 1470 l 1,2,-1
 426 1318 l 1,3,-1
 428 1318 l 1,4,5
 592 1502 592 1502 818 1502 c 0,6,7
 1248 1502 1248 1502 1248 966 c 2,8,-1
 1248 -424 l 1,9,-1
 948 -424 l 1,10,-1
 948 952 l 2,11,12
 948 1246 948 1246 740 1246 c 0,13,14
 614 1246 614 1246 527 1137 c 128,-1,15
 440 1028 440 1028 440 870 c 2,16,-1
 440 0 l 1,17,-1
 142 0 l 1,0,-1
EndSplineSet
EndChar

StartChar: uni0221
Encoding: 545 545 483
Width: 1462
GlyphClass: 2
Flags: W
LayerCount: 2
Fore
SplineSet
1072 -132 m 1,0,1
 1098 -234 1098 -234 1192 -234 c 0,2,3
 1232 -234 1232 -234 1253 -214 c 128,-1,4
 1274 -194 1274 -194 1274 -166 c 0,5,6
 1274 -140 1274 -140 1247 -116 c 128,-1,7
 1220 -92 1220 -92 1178 -92 c 0,8,9
 1116 -92 1116 -92 1072 -132 c 1,0,1
56 540 m 0,10,11
 56 808 56 808 186 960 c 128,-1,12
 316 1112 316 1112 520 1112 c 0,13,14
 602 1112 602 1112 664 1079 c 128,-1,15
 726 1046 726 1046 760 1000 c 1,16,-1
 760 1514 l 1,17,-1
 1048 1514 l 1,18,-1
 1048 166 l 2,19,20
 1048 90 1048 90 1050 82 c 1,21,22
 1110 114 1110 114 1188 114 c 0,23,24
 1322 114 1322 114 1408 35 c 128,-1,25
 1494 -44 1494 -44 1494 -158 c 0,26,27
 1494 -286 1494 -286 1413 -358 c 128,-1,28
 1332 -430 1332 -430 1194 -430 c 0,29,30
 1066 -430 1066 -430 964 -344 c 1,31,32
 944 -376 944 -376 924 -440 c 1,33,-1
 690 -348 l 1,34,35
 760 -190 760 -190 798 -134 c 1,36,37
 780 -82 780 -82 764 72 c 1,38,-1
 764 104 l 1,39,40
 740 58 740 58 673 13 c 128,-1,41
 606 -32 606 -32 518 -32 c 256,42,43
 430 -32 430 -32 351 -1 c 128,-1,44
 272 30 272 30 204 96 c 128,-1,45
 136 162 136 162 96 276 c 128,-1,46
 56 390 56 390 56 540 c 0,10,11
350 540 m 0,47,48
 350 380 350 380 407 296 c 128,-1,49
 464 212 464 212 558 212 c 0,50,51
 654 212 654 212 709 299 c 128,-1,52
 764 386 764 386 764 540 c 0,53,54
 764 688 764 688 712 778 c 128,-1,55
 660 868 660 868 560 868 c 0,56,57
 458 868 458 868 404 781 c 128,-1,58
 350 694 350 694 350 540 c 0,47,48
EndSplineSet
EndChar

StartChar: uni0222
Encoding: 546 546 484
Width: 1458
GlyphClass: 2
Flags: W
LayerCount: 2
Fore
SplineSet
66 496 m 0,0,1
 66 616 66 616 129 731 c 128,-1,2
 192 846 192 846 322 926 c 1,3,4
 230 982 230 982 175 1058 c 128,-1,5
 120 1134 120 1134 120 1268 c 0,6,7
 120 1388 120 1388 156 1470 c 1,8,-1
 450 1470 l 1,9,10
 430 1408 430 1408 430 1286 c 0,11,12
 430 1188 430 1188 510 1110 c 128,-1,13
 590 1032 590 1032 730 1032 c 256,14,15
 870 1032 870 1032 948 1110 c 128,-1,16
 1026 1188 1026 1188 1026 1286 c 0,17,18
 1026 1382 1026 1382 1006 1470 c 1,19,-1
 1302 1470 l 1,20,21
 1338 1388 1338 1388 1338 1268 c 0,22,23
 1338 1132 1338 1132 1285 1057 c 128,-1,24
 1232 982 1232 982 1142 926 c 1,25,26
 1270 848 1270 848 1330 733 c 128,-1,27
 1390 618 1390 618 1390 496 c 0,28,29
 1390 402 1390 402 1353 312 c 128,-1,30
 1316 222 1316 222 1240 143 c 128,-1,31
 1164 64 1164 64 1032 16 c 128,-1,32
 900 -32 900 -32 730 -32 c 256,33,34
 560 -32 560 -32 426 16 c 128,-1,35
 292 64 292 64 217 144 c 128,-1,36
 142 224 142 224 104 313 c 128,-1,37
 66 402 66 402 66 496 c 0,0,1
376 496 m 0,38,39
 376 368 376 368 475 295 c 128,-1,40
 574 222 574 222 730 222 c 0,41,42
 884 222 884 222 982 295 c 128,-1,43
 1080 368 1080 368 1080 496 c 0,44,45
 1080 622 1080 622 979 698 c 128,-1,46
 878 774 878 774 730 774 c 256,47,48
 582 774 582 774 479 698 c 128,-1,49
 376 622 376 622 376 496 c 0,38,39
EndSplineSet
EndChar

StartChar: uni0223
Encoding: 547 547 485
Width: 1116
GlyphClass: 2
Flags: W
LayerCount: 2
Fore
SplineSet
56 498 m 0,0,1
 56 644 56 644 111 755 c 128,-1,2
 166 866 166 866 268 922 c 1,3,4
 96 1034 96 1034 96 1272 c 0,5,6
 96 1374 96 1374 132 1476 c 1,7,-1
 414 1476 l 1,8,9
 392 1352 392 1352 392 1292 c 0,10,11
 392 1032 392 1032 558 1032 c 0,12,13
 726 1032 726 1032 726 1292 c 0,14,15
 726 1346 726 1346 702 1476 c 1,16,-1
 982 1476 l 1,17,18
 1018 1376 1018 1376 1018 1272 c 0,19,20
 1018 1028 1018 1028 852 922 c 1,21,22
 954 866 954 866 1008 755 c 128,-1,23
 1062 644 1062 644 1062 498 c 0,24,25
 1062 424 1062 424 1048 353 c 128,-1,26
 1034 282 1034 282 996 210 c 128,-1,27
 958 138 958 138 903 86 c 128,-1,28
 848 34 848 34 759 1 c 128,-1,29
 670 -32 670 -32 558 -32 c 0,30,31
 422 -32 422 -32 320 16 c 128,-1,32
 218 64 218 64 163 146 c 128,-1,33
 108 228 108 228 82 316 c 128,-1,34
 56 404 56 404 56 498 c 0,0,1
352 498 m 0,35,36
 352 368 352 368 408 290 c 128,-1,37
 464 212 464 212 558 212 c 0,38,39
 656 212 656 212 712 291 c 128,-1,40
 768 370 768 370 768 498 c 0,41,42
 768 624 768 624 711 704 c 128,-1,43
 654 784 654 784 558 784 c 0,44,45
 464 784 464 784 408 704 c 128,-1,46
 352 624 352 624 352 498 c 0,35,36
EndSplineSet
EndChar

StartChar: uni0224
Encoding: 548 548 486
Width: 1198
GlyphClass: 2
Flags: W
LayerCount: 2
Fore
SplineSet
46 0 m 1,0,-1
 46 216 l 1,1,-1
 768 1214 l 1,2,-1
 106 1214 l 1,3,-1
 106 1470 l 1,4,-1
 1140 1470 l 1,5,-1
 1140 1250 l 1,6,-1
 418 254 l 1,7,-1
 910 254 l 2,8,9
 1266 254 1266 254 1266 -146 c 0,10,11
 1266 -290 1266 -290 1204 -424 c 1,12,-1
 936 -424 l 1,13,14
 1000 -306 1000 -306 1000 -186 c 0,15,16
 1000 -114 1000 -114 960 -57 c 128,-1,17
 920 0 920 0 834 0 c 2,18,-1
 46 0 l 1,0,-1
EndSplineSet
EndChar

StartChar: uni0225
Encoding: 549 549 487
Width: 970
GlyphClass: 2
Flags: W
LayerCount: 2
Fore
SplineSet
40 0 m 1,0,-1
 40 188 l 1,1,-1
 554 838 l 1,2,-1
 78 838 l 1,3,-1
 78 1082 l 1,4,-1
 930 1082 l 1,5,-1
 930 904 l 1,6,-1
 410 244 l 1,7,-1
 750 244 l 2,8,9
 1100 244 1100 244 1100 -142 c 0,10,11
 1100 -330 1100 -330 1058 -424 c 1,12,-1
 808 -424 l 1,13,14
 854 -336 854 -336 854 -196 c 0,15,16
 854 -102 854 -102 816 -51 c 128,-1,17
 778 0 778 0 684 0 c 2,18,-1
 40 0 l 1,0,-1
EndSplineSet
EndChar

StartChar: uni0234
Encoding: 564 564 502
Width: 828
GlyphClass: 2
Flags: W
LayerCount: 2
Fore
SplineSet
440 -132 m 1,0,1
 446 -172 446 -172 478 -203 c 128,-1,2
 510 -234 510 -234 554 -234 c 0,3,4
 596 -234 596 -234 619 -214 c 128,-1,5
 642 -194 642 -194 642 -166 c 256,6,7
 642 -138 642 -138 614 -115 c 128,-1,8
 586 -92 586 -92 546 -92 c 0,9,10
 488 -92 488 -92 440 -132 c 1,0,1
58 -348 m 1,11,12
 136 -180 136 -180 166 -134 c 1,13,14
 128 -38 128 -38 128 96 c 2,15,-1
 128 1514 l 1,16,-1
 414 1514 l 1,17,-1
 414 166 l 2,18,19
 414 110 414 110 416 80 c 1,20,21
 484 114 484 114 554 114 c 0,22,23
 690 114 690 114 775 35 c 128,-1,24
 860 -44 860 -44 860 -158 c 0,25,26
 860 -286 860 -286 778 -358 c 128,-1,27
 696 -430 696 -430 558 -430 c 0,28,29
 430 -430 430 -430 328 -344 c 1,30,31
 306 -382 306 -382 288 -440 c 1,32,-1
 58 -348 l 1,11,12
EndSplineSet
EndChar

StartChar: uni0235
Encoding: 565 565 503
Width: 1436
GlyphClass: 2
Flags: W
LayerCount: 2
Fore
SplineSet
1044 -132 m 1,0,1
 1054 -176 1054 -176 1086 -205 c 128,-1,2
 1118 -234 1118 -234 1164 -234 c 0,3,4
 1202 -234 1202 -234 1225 -214 c 128,-1,5
 1248 -194 1248 -194 1248 -164 c 0,6,7
 1248 -138 1248 -138 1222 -115 c 128,-1,8
 1196 -92 1196 -92 1152 -92 c 0,9,10
 1094 -92 1094 -92 1044 -132 c 1,0,1
112 0 m 1,11,-1
 112 1080 l 1,12,-1
 386 1080 l 1,13,-1
 386 974 l 1,14,-1
 388 974 l 1,15,16
 478 1112 478 1112 662 1112 c 0,17,18
 1020 1112 1020 1112 1020 692 c 2,19,-1
 1020 152 l 2,20,21
 1018 136 1018 136 1018 118 c 256,22,23
 1018 100 1018 100 1020 82 c 1,24,25
 1084 114 1084 114 1162 114 c 0,26,27
 1294 114 1294 114 1380 35 c 128,-1,28
 1466 -44 1466 -44 1466 -158 c 0,29,30
 1466 -286 1466 -286 1383 -358 c 128,-1,31
 1300 -430 1300 -430 1162 -430 c 0,32,33
 1040 -430 1040 -430 936 -342 c 1,34,35
 898 -436 898 -436 896 -440 c 2,36,-1
 662 -348 l 1,37,38
 698 -248 698 -248 774 -134 c 1,39,40
 734 -38 734 -38 734 98 c 2,41,-1
 734 658 l 2,42,43
 734 758 734 758 706 813 c 128,-1,44
 678 868 678 868 600 868 c 0,45,46
 510 868 510 868 454 796 c 128,-1,47
 398 724 398 724 398 614 c 2,48,-1
 398 0 l 1,49,-1
 112 0 l 1,11,-1
EndSplineSet
EndChar

StartChar: uni0236
Encoding: 566 566 504
Width: 900
GlyphClass: 2
Flags: W
LayerCount: 2
Fore
SplineSet
494 -132 m 1,0,1
 498 -166 498 -166 531 -200 c 128,-1,2
 564 -234 564 -234 610 -234 c 0,3,4
 652 -234 652 -234 675 -214 c 128,-1,5
 698 -194 698 -194 698 -166 c 0,6,7
 698 -142 698 -142 672 -117 c 128,-1,8
 646 -92 646 -92 604 -92 c 0,9,10
 542 -92 542 -92 494 -132 c 1,0,1
30 838 m 1,11,-1
 30 1080 l 1,12,-1
 184 1080 l 1,13,-1
 184 1388 l 1,14,-1
 468 1388 l 1,15,-1
 468 1080 l 1,16,-1
 692 1080 l 1,17,-1
 692 838 l 1,18,-1
 468 838 l 1,19,-1
 468 82 l 1,20,21
 534 114 534 114 608 114 c 0,22,23
 744 114 744 114 829 35 c 128,-1,24
 914 -44 914 -44 914 -158 c 0,25,26
 914 -286 914 -286 833 -358 c 128,-1,27
 752 -430 752 -430 614 -430 c 0,28,29
 486 -430 486 -430 384 -344 c 1,30,31
 358 -386 358 -386 342 -440 c 1,32,-1
 114 -348 l 1,33,34
 182 -196 182 -196 222 -134 c 1,35,36
 184 -42 184 -42 184 98 c 2,37,-1
 184 838 l 1,38,-1
 30 838 l 1,11,-1
EndSplineSet
EndChar

StartChar: uni0237
Encoding: 567 567 505
Width: 546
GlyphClass: 2
Flags: W
LayerCount: 2
Fore
SplineSet
-26 -162 m 1,0,-1
 8 -162 l 2,1,2
 74 -162 74 -162 104 -118 c 128,-1,3
 134 -74 134 -74 134 26 c 2,4,-1
 134 1080 l 1,5,-1
 424 1080 l 1,6,-1
 424 14 l 2,7,8
 424 -196 424 -196 329 -303 c 128,-1,9
 234 -410 234 -410 54 -410 c 2,10,-1
 -26 -410 l 1,11,-1
 -26 -162 l 1,0,-1
EndSplineSet
EndChar

StartChar: uni0238
Encoding: 568 568 506
Width: 1804
GlyphClass: 3
Flags: W
LayerCount: 2
Fore
SplineSet
56 540 m 0,0,1
 56 810 56 810 188 961 c 128,-1,2
 320 1112 320 1112 518 1112 c 0,3,4
 600 1112 600 1112 663 1078 c 128,-1,5
 726 1044 726 1044 760 1000 c 1,6,-1
 760 1514 l 1,7,-1
 1046 1514 l 1,8,-1
 1046 1006 l 1,9,10
 1150 1112 1150 1112 1290 1112 c 0,11,12
 1490 1112 1490 1112 1621 961 c 128,-1,13
 1752 810 1752 810 1752 540 c 0,14,15
 1752 386 1752 386 1710 270 c 128,-1,16
 1668 154 1668 154 1599 91 c 128,-1,17
 1530 28 1530 28 1452 -2 c 128,-1,18
 1374 -32 1374 -32 1294 -32 c 0,19,20
 1204 -32 1204 -32 1140 8 c 128,-1,21
 1076 48 1076 48 1046 102 c 1,22,-1
 1046 0 l 1,23,-1
 760 0 l 1,24,-1
 760 104 l 1,25,26
 728 48 728 48 660 8 c 128,-1,27
 592 -32 592 -32 516 -32 c 0,28,29
 432 -32 432 -32 356 -3 c 128,-1,30
 280 26 280 26 210 89 c 128,-1,31
 140 152 140 152 98 269 c 128,-1,32
 56 386 56 386 56 540 c 0,0,1
350 540 m 0,33,34
 350 376 350 376 407 294 c 128,-1,35
 464 212 464 212 558 212 c 0,36,37
 656 212 656 212 710 297 c 128,-1,38
 764 382 764 382 764 528 c 2,39,-1
 764 534 l 2,40,41
 764 686 764 686 712 777 c 128,-1,42
 660 868 660 868 558 868 c 0,43,44
 460 868 460 868 405 783 c 128,-1,45
 350 698 350 698 350 540 c 0,33,34
1042 526 m 2,46,47
 1042 386 1042 386 1100 299 c 128,-1,48
 1158 212 1158 212 1250 212 c 256,49,50
 1342 212 1342 212 1400 295 c 128,-1,51
 1458 378 1458 378 1458 540 c 0,52,53
 1458 692 1458 692 1402 780 c 128,-1,54
 1346 868 1346 868 1250 868 c 0,55,56
 1150 868 1150 868 1096 775 c 128,-1,57
 1042 682 1042 682 1042 534 c 2,58,-1
 1042 526 l 2,46,47
EndSplineSet
EndChar

StartChar: uni0239
Encoding: 569 569 507
Width: 1806
GlyphClass: 3
Flags: W
LayerCount: 2
Fore
SplineSet
56 540 m 0,0,1
 56 808 56 808 185 960 c 128,-1,2
 314 1112 314 1112 518 1112 c 0,3,4
 668 1112 668 1112 760 990 c 1,5,-1
 760 1080 l 1,6,-1
 1046 1080 l 1,7,-1
 1046 994 l 1,8,9
 1142 1112 1142 1112 1290 1112 c 0,10,11
 1492 1112 1492 1112 1622 959 c 128,-1,12
 1752 806 1752 806 1752 540 c 0,13,14
 1752 388 1752 388 1711 273 c 128,-1,15
 1670 158 1670 158 1602 94 c 128,-1,16
 1534 30 1534 30 1456 -1 c 128,-1,17
 1378 -32 1378 -32 1292 -32 c 0,18,19
 1126 -32 1126 -32 1046 100 c 1,20,-1
 1046 -424 l 1,21,-1
 760 -424 l 1,22,-1
 760 100 l 1,23,24
 726 48 726 48 661 8 c 128,-1,25
 596 -32 596 -32 514 -32 c 0,26,27
 428 -32 428 -32 350 -2 c 128,-1,28
 272 28 272 28 204 93 c 128,-1,29
 136 158 136 158 96 273 c 128,-1,30
 56 388 56 388 56 540 c 0,0,1
348 540 m 0,31,32
 348 382 348 382 405 297 c 128,-1,33
 462 212 462 212 552 212 c 0,34,35
 656 212 656 212 710 297 c 128,-1,36
 764 382 764 382 764 540 c 2,37,-1
 764 552 l 2,38,39
 764 692 764 692 708 780 c 128,-1,40
 652 868 652 868 552 868 c 0,41,42
 456 868 456 868 402 779 c 128,-1,43
 348 690 348 690 348 540 c 0,31,32
1040 546 m 2,44,45
 1040 392 1040 392 1098 302 c 128,-1,46
 1156 212 1156 212 1250 212 c 0,47,48
 1342 212 1342 212 1400 296 c 128,-1,49
 1458 380 1458 380 1458 540 c 0,50,51
 1458 692 1458 692 1403 780 c 128,-1,52
 1348 868 1348 868 1250 868 c 0,53,54
 1158 868 1158 868 1099 779 c 128,-1,55
 1040 690 1040 690 1040 554 c 2,56,-1
 1040 546 l 2,44,45
EndSplineSet
EndChar

StartChar: uni023A
Encoding: 570 570 508
Width: 1340
GlyphClass: 2
Flags: W
LayerCount: 2
Fore
SplineSet
484 568 m 1,0,-1
 506 568 l 1,1,-1
 746 936 l 1,2,3
 736 968 736 968 722 1016 c 0,4,5
 690 1122 690 1122 674 1180 c 1,6,-1
 664 1180 l 1,7,8
 642 1096 642 1096 580 880 c 2,9,-1
 484 568 l 1,0,-1
708 568 m 1,10,-1
 854 568 l 1,11,-1
 808 724 l 1,12,-1
 708 568 l 1,10,-1
-8 0 m 1,13,-1
 512 1470 l 1,14,-1
 830 1470 l 1,15,-1
 922 1210 l 1,16,-1
 1160 1576 l 1,17,-1
 1358 1576 l 1,18,-1
 992 1010 l 1,19,-1
 1348 0 l 1,20,-1
 1034 0 l 1,21,-1
 930 328 l 1,22,-1
 552 328 l 1,23,-1
 214 -196 l 1,24,-1
 10 -196 l 1,25,-1
 138 0 l 1,26,-1
 -8 0 l 1,13,-1
EndSplineSet
EndChar

StartChar: uni023B
Encoding: 571 571 509
Width: 1342
GlyphClass: 2
Flags: W
LayerCount: 2
Fore
SplineSet
64 736 m 0,0,1
 64 1074 64 1074 245 1288 c 128,-1,2
 426 1502 426 1502 728 1502 c 0,3,4
 818 1502 818 1502 914 1476 c 1,5,-1
 948 1572 l 1,6,-1
 1164 1572 l 1,7,-1
 1092 1376 l 1,8,9
 1144 1338 1144 1338 1197 1266 c 128,-1,10
 1250 1194 1250 1194 1274 1128 c 1,11,-1
 1018 1044 l 1,12,13
 1012 1056 1012 1056 986 1094 c 1,14,-1
 666 230 l 1,15,16
 702 222 702 222 728 222 c 0,17,18
 840 222 840 222 924 296 c 128,-1,19
 1008 370 1008 370 1040 462 c 1,20,-1
 1310 376 l 1,21,22
 1282 312 1282 312 1242 252 c 128,-1,23
 1202 192 1202 192 1133 122 c 128,-1,24
 1064 52 1064 52 959 10 c 128,-1,25
 854 -32 854 -32 728 -32 c 0,26,27
 646 -32 646 -32 576 -16 c 1,28,-1
 548 -102 l 1,29,-1
 328 -102 l 1,30,-1
 388 60 l 1,31,32
 232 160 232 160 148 333 c 128,-1,33
 64 506 64 506 64 736 c 0,0,1
490 334 m 1,34,-1
 824 1232 l 1,35,36
 780 1246 780 1246 728 1246 c 0,37,38
 554 1246 554 1246 463 1100 c 128,-1,39
 372 954 372 954 372 736 c 0,40,41
 372 474 372 474 490 334 c 1,34,-1
EndSplineSet
EndChar

StartChar: uni023C
Encoding: 572 572 510
Width: 1044
GlyphClass: 2
Flags: W
LayerCount: 2
Fore
SplineSet
56 540 m 0,0,1
 56 790 56 790 192 951 c 128,-1,2
 328 1112 328 1112 570 1112 c 0,3,4
 628 1112 628 1112 686 1098 c 1,5,-1
 726 1210 l 1,6,-1
 924 1210 l 1,7,-1
 848 1008 l 1,8,9
 894 974 894 974 936 905 c 128,-1,10
 978 836 978 836 992 770 c 1,11,-1
 768 708 l 1,12,13
 756 734 756 734 748 746 c 1,14,-1
 548 214 l 2,15,16
 552 212 552 212 566 212 c 0,17,18
 710 212 710 212 774 390 c 1,19,-1
 1016 324 l 1,20,21
 1006 272 1006 272 972 213 c 128,-1,22
 938 154 938 154 884 98 c 128,-1,23
 830 42 830 42 745 5 c 128,-1,24
 660 -32 660 -32 562 -32 c 0,25,26
 508 -32 508 -32 458 -24 c 1,27,-1
 428 -106 l 1,28,-1
 230 -106 l 1,29,-1
 288 44 l 1,30,31
 168 122 168 122 112 258 c 128,-1,32
 56 394 56 394 56 540 c 0,0,1
396 330 m 1,33,-1
 596 864 l 1,34,35
 574 866 574 866 566 866 c 0,36,37
 462 866 462 866 407 773 c 128,-1,38
 352 680 352 680 352 540 c 0,39,40
 352 426 352 426 396 330 c 1,33,-1
EndSplineSet
EndChar

StartChar: uni023D
Encoding: 573 573 511
Width: 1106
GlyphClass: 2
Flags: W
LayerCount: 2
Fore
SplineSet
-2 704 m 1,0,-1
 -2 940 l 1,1,-1
 142 940 l 1,2,-1
 142 1470 l 1,3,-1
 440 1470 l 1,4,-1
 440 940 l 1,5,-1
 784 940 l 1,6,-1
 784 704 l 1,7,-1
 440 704 l 1,8,-1
 440 254 l 1,9,-1
 1086 254 l 1,10,-1
 1086 0 l 1,11,-1
 142 0 l 1,12,-1
 142 704 l 1,13,-1
 -2 704 l 1,0,-1
EndSplineSet
EndChar

StartChar: uni023E
Encoding: 574 574 512
Width: 1152
GlyphClass: 2
Flags: W
LayerCount: 2
Fore
SplineSet
726 1214 m 1,0,-1
 726 1066 l 1,1,-1
 808 1214 l 1,2,-1
 726 1214 l 1,0,-1
18 1214 m 1,3,-1
 18 1470 l 1,4,-1
 950 1470 l 1,5,-1
 1006 1572 l 1,6,-1
 1200 1572 l 1,7,-1
 1134 1452 l 1,8,-1
 1134 1214 l 1,9,-1
 1002 1214 l 1,10,-1
 726 712 l 1,11,-1
 726 0 l 1,12,-1
 428 0 l 1,13,-1
 428 172 l 1,14,-1
 274 -108 l 1,15,-1
 78 -108 l 1,16,-1
 428 526 l 1,17,-1
 428 1214 l 1,18,-1
 18 1214 l 1,3,-1
EndSplineSet
EndChar

StartChar: uni023F
Encoding: 575 575 513
Width: 976
GlyphClass: 2
Flags: W
LayerCount: 2
Fore
SplineSet
36 234 m 1,0,-1
 234 352 l 1,1,2
 342 198 342 198 510 198 c 0,3,4
 568 198 568 198 612 226 c 128,-1,5
 656 254 656 254 656 296 c 0,6,7
 656 326 656 326 639 350 c 128,-1,8
 622 374 622 374 586 393 c 128,-1,9
 550 412 550 412 517 423 c 128,-1,10
 484 434 484 434 430 452 c 128,-1,11
 376 470 376 470 346 482 c 0,12,13
 222 528 222 528 153 595 c 128,-1,14
 84 662 84 662 84 788 c 0,15,16
 84 938 84 938 212 1025 c 128,-1,17
 340 1112 340 1112 502 1112 c 0,18,19
 654 1112 654 1112 771 1041 c 128,-1,20
 888 970 888 970 952 856 c 1,21,-1
 762 744 l 1,22,23
 704 814 704 814 647 849 c 128,-1,24
 590 884 590 884 500 884 c 0,25,26
 446 884 446 884 411 856 c 128,-1,27
 376 828 376 828 376 782 c 0,28,29
 376 744 376 744 421 709 c 128,-1,30
 466 674 466 674 531 656 c 128,-1,31
 596 638 596 638 644 621 c 128,-1,32
 692 604 692 604 753 572 c 128,-1,33
 814 540 814 540 853 504 c 128,-1,34
 892 468 892 468 920 414 c 128,-1,35
 948 360 948 360 948 296 c 0,36,37
 948 150 948 150 831 59 c 128,-1,38
 714 -32 714 -32 508 -32 c 0,39,40
 440 -32 440 -32 360 -10 c 1,41,42
 364 -22 364 -22 376 -57 c 128,-1,43
 388 -92 388 -92 393 -103 c 128,-1,44
 398 -114 398 -114 411 -141 c 128,-1,45
 424 -168 424 -168 437 -178 c 128,-1,46
 450 -188 450 -188 472 -203 c 128,-1,47
 494 -218 494 -218 522 -223 c 128,-1,48
 550 -228 550 -228 586 -228 c 0,49,50
 672 -228 672 -228 722 -216 c 1,51,-1
 722 -416 l 1,52,53
 638 -430 638 -430 570 -430 c 0,54,55
 482 -430 482 -430 412 -403 c 128,-1,56
 342 -376 342 -376 299 -338 c 128,-1,57
 256 -300 256 -300 223 -241 c 128,-1,58
 190 -182 190 -182 176 -136 c 128,-1,59
 162 -90 162 -90 148 -28 c 0,60,61
 112 142 112 142 36 234 c 1,0,-1
EndSplineSet
EndChar

StartChar: uni0240
Encoding: 576 576 514
Width: 992
GlyphClass: 2
Flags: W
LayerCount: 2
Fore
SplineSet
40 0 m 1,0,-1
 40 188 l 1,1,-1
 554 838 l 1,2,-1
 78 838 l 1,3,-1
 78 1080 l 1,4,-1
 930 1080 l 1,5,-1
 930 902 l 1,6,-1
 364 186 l 1,7,8
 422 166 422 166 473 120 c 128,-1,9
 524 74 524 74 561 24 c 128,-1,10
 598 -26 598 -26 636 -75 c 128,-1,11
 674 -124 674 -124 720 -155 c 128,-1,12
 766 -186 766 -186 820 -186 c 0,13,14
 916 -186 916 -186 958 -176 c 1,15,-1
 958 -414 l 1,16,17
 900 -430 900 -430 804 -430 c 0,18,19
 710 -430 710 -430 636 -389 c 128,-1,20
 562 -348 562 -348 512 -289 c 128,-1,21
 462 -230 462 -230 417 -168 c 128,-1,22
 372 -106 372 -106 314 -57 c 128,-1,23
 256 -8 256 -8 190 0 c 1,24,-1
 40 0 l 1,0,-1
EndSplineSet
EndChar

StartChar: uni0241
Encoding: 577 577 515
Width: 1202
GlyphClass: 2
Flags: W
LayerCount: 2
Fore
SplineSet
106 1116 m 1,0,1
 144 1284 144 1284 280 1393 c 128,-1,2
 416 1502 416 1502 614 1502 c 0,3,4
 816 1502 816 1502 950 1384 c 128,-1,5
 1084 1266 1084 1266 1084 1076 c 0,6,7
 1084 988 1084 988 1050 915 c 128,-1,8
 1016 842 1016 842 967 793 c 128,-1,9
 918 744 918 744 870 697 c 128,-1,10
 822 650 822 650 788 592 c 128,-1,11
 754 534 754 534 754 464 c 2,12,-1
 754 0 l 1,13,-1
 456 0 l 1,14,-1
 456 490 l 2,15,16
 456 574 456 574 489 645 c 128,-1,17
 522 716 522 716 570 765 c 128,-1,18
 618 814 618 814 664 860 c 128,-1,19
 710 906 710 906 744 964 c 128,-1,20
 778 1022 778 1022 778 1086 c 0,21,22
 778 1158 778 1158 731 1203 c 128,-1,23
 684 1248 684 1248 618 1248 c 0,24,25
 536 1248 536 1248 473 1193 c 128,-1,26
 410 1138 410 1138 376 1036 c 1,27,-1
 106 1116 l 1,0,1
EndSplineSet
EndChar

StartChar: uni0250
Encoding: 592 592 516
Width: 1090
GlyphClass: 2
Flags: W
LayerCount: 2
Fore
SplineSet
386 568 m 1,0,1
 466 586 466 586 550 602 c 0,2,3
 648 620 648 620 697 656 c 128,-1,4
 746 692 746 692 746 760 c 0,5,6
 746 812 746 812 710 844 c 128,-1,7
 674 876 674 876 614 876 c 0,8,9
 522 876 522 876 454 811 c 128,-1,10
 386 746 386 746 386 656 c 2,11,-1
 386 568 l 1,0,1
96 422 m 2,12,-1
 96 1080 l 1,13,-1
 376 1080 l 1,14,-1
 376 972 l 1,15,16
 408 1024 408 1024 482 1068 c 128,-1,17
 556 1112 556 1112 656 1112 c 0,18,19
 832 1112 832 1112 936 1022 c 128,-1,20
 1040 932 1040 932 1040 786 c 0,21,22
 1040 628 1040 628 913 532 c 128,-1,23
 786 436 786 436 560 408 c 0,24,25
 462 394 462 394 386 376 c 1,26,-1
 386 310 l 2,27,28
 386 254 386 254 435 222 c 128,-1,29
 484 190 484 190 552 190 c 0,30,31
 714 190 714 190 840 324 c 1,32,-1
 1010 178 l 1,33,34
 924 76 924 76 805 22 c 128,-1,35
 686 -32 686 -32 552 -32 c 0,36,37
 306 -32 306 -32 201 85 c 128,-1,38
 96 202 96 202 96 422 c 2,12,-1
EndSplineSet
EndChar

StartChar: uni0251
Encoding: 593 593 517
Width: 1152
GlyphClass: 2
Flags: W
LayerCount: 2
Fore
SplineSet
350 540 m 0,0,1
 350 376 350 376 407 294 c 128,-1,2
 464 212 464 212 554 212 c 0,3,4
 630 212 630 212 691 289 c 128,-1,5
 752 366 752 366 752 540 c 0,6,7
 752 688 752 688 702 778 c 128,-1,8
 652 868 652 868 552 868 c 0,9,10
 456 868 456 868 403 781 c 128,-1,11
 350 694 350 694 350 540 c 0,0,1
56 540 m 0,12,13
 56 808 56 808 182 960 c 128,-1,14
 308 1112 308 1112 514 1112 c 0,15,16
 656 1112 656 1112 750 1002 c 1,17,-1
 750 1080 l 1,18,-1
 1036 1080 l 1,19,-1
 1036 0 l 1,20,-1
 756 0 l 1,21,-1
 756 108 l 1,22,23
 724 50 724 50 657 9 c 128,-1,24
 590 -32 590 -32 510 -32 c 0,25,26
 424 -32 424 -32 347 -1 c 128,-1,27
 270 30 270 30 202 96 c 128,-1,28
 134 162 134 162 95 276 c 128,-1,29
 56 390 56 390 56 540 c 0,12,13
EndSplineSet
EndChar

StartChar: uni0252
Encoding: 594 594 518
Width: 1152
GlyphClass: 2
Flags: W
LayerCount: 2
Fore
SplineSet
118 0 m 1,0,-1
 118 1080 l 1,1,-1
 402 1080 l 1,2,-1
 402 1004 l 1,3,4
 508 1112 508 1112 644 1112 c 0,5,6
 846 1112 846 1112 972 959 c 128,-1,7
 1098 806 1098 806 1098 540 c 0,8,9
 1098 388 1098 388 1057 272 c 128,-1,10
 1016 156 1016 156 949 92 c 128,-1,11
 882 28 882 28 805 -2 c 128,-1,12
 728 -32 728 -32 648 -32 c 0,13,14
 560 -32 560 -32 494 11 c 128,-1,15
 428 54 428 54 398 106 c 1,16,-1
 398 0 l 1,17,-1
 118 0 l 1,0,-1
400 540 m 0,18,19
 400 386 400 386 455 299 c 128,-1,20
 510 212 510 212 602 212 c 256,21,22
 694 212 694 212 748 296 c 128,-1,23
 802 380 802 380 802 540 c 0,24,25
 802 696 802 696 750 782 c 128,-1,26
 698 868 698 868 602 868 c 0,27,28
 502 868 502 868 451 778 c 128,-1,29
 400 688 400 688 400 540 c 0,18,19
EndSplineSet
EndChar

StartChar: uni0253
Encoding: 595 595 519
Width: 1166
GlyphClass: 2
Flags: W
LayerCount: 2
Fore
SplineSet
402 544 m 0,0,1
 402 388 402 388 458 300 c 128,-1,2
 514 212 514 212 612 212 c 0,3,4
 708 212 708 212 762 296 c 128,-1,5
 816 380 816 380 816 542 c 0,6,7
 816 690 816 690 762 779 c 128,-1,8
 708 868 708 868 612 868 c 0,9,10
 514 868 514 868 458 780 c 128,-1,11
 402 692 402 692 402 544 c 0,0,1
120 0 m 1,12,-1
 120 1234 l 2,13,14
 120 1398 120 1398 226 1485 c 128,-1,15
 332 1572 332 1572 494 1572 c 0,16,17
 554 1572 554 1572 684 1562 c 1,18,-1
 684 1306 l 1,19,20
 554 1318 554 1318 546 1318 c 0,21,22
 486 1318 486 1318 446 1282 c 128,-1,23
 406 1246 406 1246 406 1180 c 2,24,-1
 406 1004 l 1,25,26
 512 1112 512 1112 656 1112 c 0,27,28
 854 1112 854 1112 984 960 c 128,-1,29
 1114 808 1114 808 1114 542 c 0,30,31
 1114 394 1114 394 1073 279 c 128,-1,32
 1032 164 1032 164 964 98 c 128,-1,33
 896 32 896 32 818 0 c 128,-1,34
 740 -32 740 -32 656 -32 c 0,35,36
 568 -32 568 -32 502 10 c 128,-1,37
 436 52 436 52 398 106 c 1,38,-1
 398 0 l 1,39,-1
 120 0 l 1,12,-1
EndSplineSet
EndChar

StartChar: uni0254
Encoding: 596 596 520
Width: 1044
GlyphClass: 2
Flags: W
LayerCount: 2
Fore
SplineSet
30 324 m 1,0,-1
 272 390 l 1,1,2
 288 320 288 320 342 266 c 128,-1,3
 396 212 396 212 476 212 c 0,4,5
 570 212 570 212 633 296 c 128,-1,6
 696 380 696 380 696 538 c 0,7,8
 696 680 696 680 640 774 c 128,-1,9
 584 868 584 868 476 868 c 0,10,11
 406 868 406 868 362 819 c 128,-1,12
 318 770 318 770 300 704 c 1,13,-1
 58 770 l 1,14,15
 84 900 84 900 197 1006 c 128,-1,16
 310 1112 310 1112 482 1112 c 0,17,18
 706 1112 706 1112 849 958 c 128,-1,19
 992 804 992 804 992 538 c 0,20,21
 992 278 992 278 850 123 c 128,-1,22
 708 -32 708 -32 482 -32 c 0,23,24
 314 -32 314 -32 188 76 c 128,-1,25
 62 184 62 184 30 324 c 1,0,-1
EndSplineSet
EndChar

StartChar: uni0255
Encoding: 597 597 521
Width: 1048
GlyphClass: 2
Flags: W
LayerCount: 2
Fore
SplineSet
554 194 m 1,0,1
 602 158 602 158 658 158 c 256,2,3
 714 158 714 158 746 178 c 128,-1,4
 778 198 778 198 778 228 c 0,5,6
 778 256 778 256 753 273 c 128,-1,7
 728 290 728 290 692 290 c 0,8,9
 606 290 606 290 554 194 c 1,0,1
56 560 m 0,10,11
 56 792 56 792 191 952 c 128,-1,12
 326 1112 326 1112 568 1112 c 0,13,14
 660 1112 660 1112 738 1078 c 128,-1,15
 816 1044 816 1044 867 990 c 128,-1,16
 918 936 918 936 948 880 c 128,-1,17
 978 824 978 824 990 770 c 1,18,-1
 748 702 l 1,19,20
 702 868 702 868 568 868 c 0,21,22
 464 868 464 868 408 774 c 128,-1,23
 352 680 352 680 352 540 c 0,24,25
 352 420 352 420 394 328 c 1,26,27
 440 392 440 392 523 438 c 128,-1,28
 606 484 606 484 704 484 c 0,29,30
 828 484 828 484 914 417 c 128,-1,31
 1000 350 1000 350 1000 232 c 0,32,33
 1000 104 1000 104 908 36 c 128,-1,34
 816 -32 816 -32 654 -32 c 0,35,36
 552 -32 552 -32 472 -16 c 1,37,38
 448 -84 448 -84 444 -128 c 1,39,-1
 200 -74 l 1,40,41
 216 8 216 8 248 78 c 1,42,43
 56 242 56 242 56 560 c 0,10,11
EndSplineSet
EndChar

StartChar: uni0256
Encoding: 598 598 522
Width: 1152
GlyphClass: 2
Flags: W
LayerCount: 2
Fore
SplineSet
56 540 m 0,0,1
 56 812 56 812 188 962 c 128,-1,2
 320 1112 320 1112 520 1112 c 0,3,4
 670 1112 670 1112 760 1002 c 1,5,-1
 760 1514 l 1,6,-1
 1048 1514 l 1,7,-1
 1048 -52 l 2,8,9
 1048 -178 1048 -178 1164 -178 c 0,10,11
 1232 -178 1232 -178 1320 -162 c 1,12,-1
 1320 -412 l 1,13,14
 1168 -430 1168 -430 1106 -430 c 0,15,16
 962 -430 962 -430 864 -346 c 128,-1,17
 766 -262 766 -262 766 -70 c 2,18,-1
 766 104 l 1,19,20
 734 48 734 48 666 8 c 128,-1,21
 598 -32 598 -32 518 -32 c 0,22,23
 430 -32 430 -32 351 -1 c 128,-1,24
 272 30 272 30 204 96 c 128,-1,25
 136 162 136 162 96 276 c 128,-1,26
 56 390 56 390 56 540 c 0,0,1
350 540 m 256,27,28
 350 384 350 384 405 298 c 128,-1,29
 460 212 460 212 560 212 c 0,30,31
 656 212 656 212 710 301 c 128,-1,32
 764 390 764 390 764 540 c 0,33,34
 764 688 764 688 712 778 c 128,-1,35
 660 868 660 868 560 868 c 0,36,37
 462 868 462 868 406 782 c 128,-1,38
 350 696 350 696 350 540 c 256,27,28
EndSplineSet
EndChar

StartChar: uni0257
Encoding: 599 599 523
Width: 1152
GlyphClass: 2
Flags: W
LayerCount: 2
Fore
SplineSet
56 542 m 0,0,1
 56 808 56 808 186 960 c 128,-1,2
 316 1112 316 1112 520 1112 c 0,3,4
 674 1112 674 1112 760 1002 c 1,5,-1
 760 1216 l 2,6,7
 760 1388 760 1388 867 1480 c 128,-1,8
 974 1572 974 1572 1138 1572 c 0,9,10
 1200 1572 1200 1572 1338 1562 c 1,11,-1
 1338 1308 l 1,12,13
 1286 1316 1286 1316 1192 1316 c 0,14,15
 1130 1316 1130 1316 1089 1273 c 128,-1,16
 1048 1230 1048 1230 1048 1160 c 2,17,-1
 1048 0 l 1,18,-1
 770 0 l 1,19,-1
 770 108 l 1,20,21
 740 52 740 52 671 10 c 128,-1,22
 602 -32 602 -32 518 -32 c 0,23,24
 430 -32 430 -32 351 0 c 128,-1,25
 272 32 272 32 204 97 c 128,-1,26
 136 162 136 162 96 277 c 128,-1,27
 56 392 56 392 56 542 c 0,0,1
350 542 m 0,28,29
 350 380 350 380 406 296 c 128,-1,30
 462 212 462 212 560 212 c 0,31,32
 652 212 652 212 708 299 c 128,-1,33
 764 386 764 386 764 542 c 0,34,35
 764 690 764 690 712 779 c 128,-1,36
 660 868 660 868 560 868 c 0,37,38
 456 868 456 868 403 780 c 128,-1,39
 350 692 350 692 350 542 c 0,28,29
EndSplineSet
EndChar

StartChar: uni0258
Encoding: 600 600 524
Width: 1120
GlyphClass: 2
Flags: W
LayerCount: 2
Fore
SplineSet
60 440 m 1,0,1
 54 492 54 492 54 544 c 0,2,3
 54 798 54 798 200 955 c 128,-1,4
 346 1112 346 1112 556 1112 c 0,5,6
 774 1112 774 1112 920 960 c 128,-1,7
 1066 808 1066 808 1066 544 c 256,8,9
 1066 280 1066 280 919 124 c 128,-1,10
 772 -32 772 -32 544 -32 c 0,11,12
 362 -32 362 -32 242 51 c 128,-1,13
 122 134 122 134 68 254 c 1,14,-1
 306 340 l 1,15,16
 336 276 336 276 396 236 c 128,-1,17
 456 196 456 196 536 196 c 0,18,19
 646 196 646 196 710 267 c 128,-1,20
 774 338 774 338 774 440 c 1,21,-1
 60 440 l 1,0,1
346 636 m 1,22,-1
 772 636 l 1,23,24
 770 738 770 738 713 813 c 128,-1,25
 656 888 656 888 556 888 c 256,26,27
 456 888 456 888 401 814 c 128,-1,28
 346 740 346 740 346 636 c 1,22,-1
EndSplineSet
EndChar

StartChar: uni025A
Encoding: 602 602 526
Width: 1326
GlyphClass: 2
Flags: W
LayerCount: 2
Fore
SplineSet
58 462 m 1,0,-1
 746 760 l 1,1,2
 678 884 678 884 548 884 c 0,3,4
 390 884 390 884 304 742 c 1,5,-1
 66 826 l 1,6,7
 122 948 122 948 242 1030 c 128,-1,8
 362 1112 362 1112 550 1112 c 0,9,10
 690 1112 690 1112 804 1047 c 128,-1,11
 918 982 918 982 980 872 c 1,12,-1
 1146 946 l 1,13,14
 1166 872 1166 872 1212 825 c 128,-1,15
 1258 778 1258 778 1308 778 c 0,16,17
 1374 778 1374 778 1408 792 c 1,18,-1
 1408 566 l 1,19,20
 1346 546 1346 546 1282 546 c 256,21,22
 1218 546 1218 546 1166 575 c 128,-1,23
 1114 604 1114 604 1090 650 c 1,24,-1
 1060 638 l 1,25,26
 1066 586 1066 586 1066 536 c 0,27,28
 1066 282 1066 282 925 125 c 128,-1,29
 784 -32 784 -32 556 -32 c 0,30,31
 438 -32 438 -32 340 17 c 128,-1,32
 242 66 242 66 185 142 c 128,-1,33
 128 218 128 218 95 301 c 128,-1,34
 62 384 62 384 58 462 c 1,0,-1
362 342 m 1,35,36
 378 272 378 272 434 232 c 128,-1,37
 490 192 490 192 556 192 c 0,38,39
 626 192 626 192 677 234 c 128,-1,40
 728 276 728 276 750 346 c 0,41,42
 778 416 778 416 778 508 c 0,43,44
 778 514 778 514 778 520 c 1,45,-1
 362 342 l 1,35,36
EndSplineSet
EndChar

StartChar: uni025B
Encoding: 603 603 527
Width: 1024
GlyphClass: 2
Flags: W
LayerCount: 2
Fore
SplineSet
56 322 m 0,0,1
 56 408 56 408 99 471 c 128,-1,2
 142 534 142 534 206 568 c 1,3,-1
 208 570 l 1,4,5
 94 662 94 662 94 794 c 0,6,7
 94 936 94 936 214 1024 c 128,-1,8
 334 1112 334 1112 526 1112 c 0,9,10
 830 1112 830 1112 978 828 c 1,11,-1
 744 734 l 1,12,13
 710 792 710 792 652 830 c 128,-1,14
 594 868 594 868 530 868 c 0,15,16
 386 868 386 868 386 770 c 0,17,18
 386 724 386 724 429 692 c 128,-1,19
 472 660 472 660 544 660 c 2,20,-1
 688 660 l 1,21,-1
 688 446 l 1,22,-1
 544 446 l 2,23,24
 444 446 444 446 397 411 c 128,-1,25
 350 376 350 376 350 324 c 0,26,27
 350 266 350 266 409 239 c 128,-1,28
 468 212 468 212 534 212 c 0,29,30
 608 212 608 212 672 248 c 128,-1,31
 736 284 736 284 770 338 c 1,32,-1
 994 240 l 1,33,34
 940 120 940 120 818 44 c 128,-1,35
 696 -32 696 -32 532 -32 c 0,36,37
 328 -32 328 -32 192 62 c 128,-1,38
 56 156 56 156 56 322 c 0,0,1
EndSplineSet
EndChar

StartChar: uni025C
Encoding: 604 604 528
Width: 1024
GlyphClass: 2
Flags: W
LayerCount: 2
Fore
SplineSet
28 240 m 1,0,-1
 254 338 l 1,1,2
 288 284 288 284 351 248 c 128,-1,3
 414 212 414 212 490 212 c 0,4,5
 554 212 554 212 614 239 c 128,-1,6
 674 266 674 266 674 324 c 0,7,8
 674 376 674 376 628 411 c 128,-1,9
 582 446 582 446 482 446 c 2,10,-1
 338 446 l 1,11,-1
 338 660 l 1,12,-1
 482 660 l 2,13,14
 552 660 552 660 595 692 c 128,-1,15
 638 724 638 724 638 770 c 0,16,17
 638 868 638 868 494 868 c 0,18,19
 428 868 428 868 370 830 c 128,-1,20
 312 792 312 792 280 734 c 1,21,-1
 44 828 l 1,22,23
 192 1112 192 1112 498 1112 c 0,24,25
 690 1112 690 1112 810 1024 c 128,-1,26
 930 936 930 936 930 794 c 0,27,28
 930 660 930 660 816 570 c 1,29,-1
 818 568 l 1,30,31
 882 534 882 534 925 471 c 128,-1,32
 968 408 968 408 968 322 c 0,33,34
 968 156 968 156 832 62 c 128,-1,35
 696 -32 696 -32 494 -32 c 0,36,37
 328 -32 328 -32 205 44 c 128,-1,38
 82 120 82 120 28 240 c 1,0,-1
EndSplineSet
EndChar

StartChar: uni025D
Encoding: 605 605 529
Width: 1242
GlyphClass: 2
Flags: W
LayerCount: 2
Fore
SplineSet
28 240 m 1,0,-1
 254 338 l 1,1,2
 284 288 284 288 348 250 c 128,-1,3
 412 212 412 212 492 212 c 256,4,5
 572 212 572 212 623 243 c 128,-1,6
 674 274 674 274 674 328 c 0,7,8
 674 380 674 380 625 413 c 128,-1,9
 576 446 576 446 480 446 c 2,10,-1
 338 446 l 1,11,-1
 338 660 l 1,12,-1
 480 660 l 2,13,14
 552 660 552 660 595 692 c 128,-1,15
 638 724 638 724 638 770 c 0,16,17
 638 868 638 868 496 868 c 0,18,19
 364 868 364 868 280 734 c 1,20,-1
 44 828 l 1,21,22
 76 884 76 884 111 928 c 128,-1,23
 146 972 146 972 200 1017 c 128,-1,24
 254 1062 254 1062 329 1087 c 128,-1,25
 404 1112 404 1112 498 1112 c 0,26,27
 740 1112 740 1112 862 980 c 1,28,-1
 1018 1074 l 1,29,30
 1040 1000 1040 1000 1090 949 c 128,-1,31
 1140 898 1140 898 1190 898 c 0,32,33
 1252 898 1252 898 1290 914 c 1,34,-1
 1290 686 l 1,35,36
 1228 666 1228 666 1166 666 c 0,37,38
 1102 666 1102 666 1045 696 c 128,-1,39
 988 726 988 726 964 770 c 1,40,-1
 926 748 l 2,41,42
 924 744 924 744 921 727 c 128,-1,43
 918 710 918 710 916 704 c 0,44,45
 888 622 888 622 818 570 c 1,46,-1
 818 568 l 1,47,48
 880 534 880 534 924 473 c 128,-1,49
 968 412 968 412 968 326 c 0,50,51
 968 160 968 160 834 64 c 128,-1,52
 700 -32 700 -32 492 -32 c 0,53,54
 324 -32 324 -32 202 45 c 128,-1,55
 80 122 80 122 28 240 c 1,0,-1
EndSplineSet
EndChar

StartChar: uni025E
Encoding: 606 606 530
Width: 1112
GlyphClass: 2
Flags: W
LayerCount: 2
Fore
SplineSet
56 540 m 0,0,1
 56 630 56 630 73 710 c 128,-1,2
 90 790 90 790 129 864 c 128,-1,3
 168 938 168 938 229 993 c 128,-1,4
 290 1048 290 1048 385 1080 c 128,-1,5
 480 1112 480 1112 598 1112 c 0,6,7
 768 1112 768 1112 896 1033 c 128,-1,8
 1024 954 1024 954 1024 796 c 0,9,10
 1024 654 1024 654 924 574 c 1,11,12
 964 550 964 550 990 525 c 128,-1,13
 1016 500 1016 500 1040 448 c 128,-1,14
 1064 396 1064 396 1064 328 c 0,15,16
 1064 248 1064 248 1036 185 c 128,-1,17
 1008 122 1008 122 963 82 c 128,-1,18
 918 42 918 42 855 16 c 128,-1,19
 792 -10 792 -10 728 -21 c 128,-1,20
 664 -32 664 -32 596 -32 c 0,21,22
 446 -32 446 -32 337 15 c 128,-1,23
 228 62 228 62 169 145 c 128,-1,24
 110 228 110 228 83 326 c 128,-1,25
 56 424 56 424 56 540 c 0,0,1
352 540 m 0,26,27
 352 358 352 358 423 285 c 128,-1,28
 494 212 494 212 600 212 c 0,29,30
 768 212 768 212 768 328 c 0,31,32
 768 376 768 376 720 411 c 128,-1,33
 672 446 672 446 592 446 c 2,34,-1
 512 446 l 1,35,-1
 512 670 l 1,36,-1
 592 670 l 2,37,38
 654 670 654 670 692 699 c 128,-1,39
 730 728 730 728 730 776 c 256,40,41
 730 824 730 824 693 847 c 128,-1,42
 656 870 656 870 600 870 c 0,43,44
 504 870 504 870 428 793 c 128,-1,45
 352 716 352 716 352 540 c 0,26,27
EndSplineSet
EndChar

StartChar: uni025F
Encoding: 607 607 531
Width: 546
GlyphClass: 2
Flags: W
LayerCount: 2
Fore
SplineSet
-44 476 m 1,0,-1
 -44 710 l 1,1,-1
 136 710 l 1,2,-1
 136 1080 l 1,3,-1
 424 1080 l 1,4,-1
 424 710 l 1,5,-1
 596 710 l 1,6,-1
 596 476 l 1,7,-1
 424 476 l 1,8,-1
 424 14 l 2,9,10
 424 -196 424 -196 329 -303 c 128,-1,11
 234 -410 234 -410 54 -410 c 2,12,-1
 -24 -410 l 1,13,-1
 -24 -162 l 1,14,-1
 8 -162 l 2,15,16
 76 -162 76 -162 106 -118 c 128,-1,17
 136 -74 136 -74 136 26 c 2,18,-1
 136 476 l 1,19,-1
 -44 476 l 1,0,-1
EndSplineSet
EndChar

StartChar: uni0260
Encoding: 608 608 532
Width: 1168
GlyphClass: 2
Flags: W
LayerCount: 2
Fore
SplineSet
62 562 m 0,0,1
 62 814 62 814 191 963 c 128,-1,2
 320 1112 320 1112 516 1112 c 0,3,4
 664 1112 664 1112 744 988 c 1,5,-1
 744 1216 l 2,6,7
 744 1390 744 1390 852 1481 c 128,-1,8
 960 1572 960 1572 1126 1572 c 0,9,10
 1198 1572 1198 1572 1334 1562 c 1,11,-1
 1334 1308 l 1,12,13
 1268 1318 1268 1318 1182 1318 c 0,14,15
 1122 1318 1122 1318 1077 1274 c 128,-1,16
 1032 1230 1032 1230 1032 1162 c 2,17,-1
 1032 164 l 2,18,19
 1032 -130 1032 -130 914 -280 c 128,-1,20
 796 -430 796 -430 530 -430 c 0,21,22
 258 -430 258 -430 96 -216 c 1,23,-1
 282 -82 l 1,24,25
 380 -202 380 -202 532 -202 c 0,26,27
 626 -202 626 -202 684 -135 c 128,-1,28
 742 -68 742 -68 744 42 c 2,29,-1
 748 114 l 1,30,31
 716 68 716 68 651 40 c 128,-1,32
 586 12 586 12 524 12 c 0,33,34
 322 12 322 12 192 160 c 128,-1,35
 62 308 62 308 62 562 c 0,0,1
358 564 m 0,36,37
 358 406 358 406 413 331 c 128,-1,38
 468 256 468 256 552 256 c 0,39,40
 642 256 642 256 693 335 c 128,-1,41
 744 414 744 414 744 564 c 0,42,43
 744 704 744 704 693 786 c 128,-1,44
 642 868 642 868 552 868 c 0,45,46
 464 868 464 868 411 792 c 128,-1,47
 358 716 358 716 358 564 c 0,36,37
EndSplineSet
EndChar

StartChar: uni0262
Encoding: 610 610 534
Width: 1094
GlyphClass: 2
Flags: W
LayerCount: 2
Fore
SplineSet
56 534 m 0,0,1
 56 798 56 798 192 955 c 128,-1,2
 328 1112 328 1112 570 1112 c 0,3,4
 874 1112 874 1112 1008 816 c 1,5,-1
 770 720 l 1,6,7
 744 778 744 778 693 823 c 128,-1,8
 642 868 642 868 570 868 c 0,9,10
 466 868 466 868 408 781 c 128,-1,11
 350 694 350 694 350 534 c 0,12,13
 350 382 350 382 411 298 c 128,-1,14
 472 214 472 214 572 214 c 0,15,16
 712 214 712 214 746 366 c 1,17,-1
 748 412 l 1,18,-1
 534 412 l 1,19,-1
 534 628 l 1,20,-1
 1018 628 l 1,21,-1
 1018 0 l 1,22,-1
 802 0 l 1,23,-1
 796 66 l 1,24,25
 762 26 762 26 695 -3 c 128,-1,26
 628 -32 628 -32 556 -32 c 0,27,28
 342 -32 342 -32 199 115 c 128,-1,29
 56 262 56 262 56 534 c 0,0,1
EndSplineSet
EndChar

StartChar: uni0263
Encoding: 611 611 535
Width: 1072
GlyphClass: 2
Flags: W
LayerCount: 2
Fore
SplineSet
16 1080 m 1,0,-1
 326 1080 l 1,1,-1
 534 244 l 1,2,-1
 536 244 l 1,3,-1
 560 324 l 1,4,-1
 744 1080 l 1,5,-1
 1058 1080 l 1,6,-1
 732 126 l 1,7,8
 790 82 790 82 827 14 c 128,-1,9
 864 -54 864 -54 864 -124 c 0,10,11
 864 -258 864 -258 774 -344 c 128,-1,12
 684 -430 684 -430 536 -430 c 0,13,14
 394 -430 394 -430 300 -346 c 128,-1,15
 206 -262 206 -262 206 -124 c 0,16,17
 206 16 206 16 336 122 c 1,18,-1
 16 1080 l 1,0,-1
444 -122 m 0,19,20
 444 -166 444 -166 470 -198 c 128,-1,21
 496 -230 496 -230 536 -230 c 0,22,23
 580 -230 580 -230 606 -198 c 128,-1,24
 632 -166 632 -166 632 -122 c 0,25,26
 632 -86 632 -86 606 -41 c 128,-1,27
 580 4 580 4 536 30 c 1,28,29
 492 4 492 4 468 -39 c 128,-1,30
 444 -82 444 -82 444 -122 c 0,19,20
EndSplineSet
Substitution2: "'sups' Superscript lookup 5 subtable" uni02E0
Substitution2: "'aalt' Access All Alternates lookup 0 subtable" uni02E0
EndChar

StartChar: uni0264
Encoding: 612 612 536
Width: 984
GlyphClass: 2
Flags: W
LayerCount: 2
Fore
SplineSet
494 590 m 1,0,1
 396 462 396 462 396 354 c 0,2,3
 396 294 396 294 421 253 c 128,-1,4
 446 212 446 212 494 212 c 0,5,6
 538 212 538 212 563 253 c 128,-1,7
 588 294 588 294 588 354 c 0,8,9
 588 472 588 472 494 590 c 1,0,1
14 848 m 1,10,-1
 14 1088 l 1,11,12
 114 1112 114 1112 180 1112 c 0,13,14
 350 1112 350 1112 494 992 c 1,15,16
 624 1112 624 1112 814 1112 c 0,17,18
 884 1112 884 1112 972 1090 c 1,19,-1
 972 846 l 1,20,21
 898 866 898 866 816 866 c 0,22,23
 744 866 744 866 668 804 c 1,24,25
 738 710 738 710 770 661 c 128,-1,26
 802 612 802 612 833 527 c 128,-1,27
 864 442 864 442 864 350 c 0,28,29
 864 180 864 180 768 74 c 128,-1,30
 672 -32 672 -32 494 -32 c 0,31,32
 312 -32 312 -32 220 76 c 128,-1,33
 128 184 128 184 128 350 c 0,34,35
 128 476 128 476 181 583 c 128,-1,36
 234 690 234 690 324 804 c 1,37,38
 242 866 242 866 166 866 c 0,39,40
 140 866 140 866 14 848 c 1,10,-1
EndSplineSet
EndChar

StartChar: uni0265
Encoding: 613 613 537
Width: 1124
GlyphClass: 2
Flags: W
LayerCount: 2
Fore
SplineSet
96 388 m 2,0,-1
 96 1080 l 1,1,-1
 384 1080 l 1,2,-1
 384 418 l 2,3,4
 384 212 384 212 524 212 c 0,5,6
 606 212 606 212 663 292 c 128,-1,7
 720 372 720 372 720 474 c 2,8,-1
 720 1080 l 1,9,-1
 1006 1080 l 1,10,-1
 1006 -424 l 1,11,-1
 720 -424 l 1,12,-1
 720 70 l 1,13,-1
 718 70 l 1,14,15
 626 -32 626 -32 464 -32 c 0,16,17
 398 -32 398 -32 339 -12 c 128,-1,18
 280 8 280 8 223 52 c 128,-1,19
 166 96 166 96 131 182 c 128,-1,20
 96 268 96 268 96 388 c 2,0,-1
EndSplineSet
EndChar

StartChar: uni0266
Encoding: 614 614 538
Width: 1124
GlyphClass: 2
Flags: W
LayerCount: 2
Fore
SplineSet
122 0 m 1,0,-1
 122 1220 l 2,1,2
 122 1390 122 1390 229 1481 c 128,-1,3
 336 1572 336 1572 498 1572 c 0,4,5
 594 1572 594 1572 702 1564 c 1,6,-1
 702 1310 l 1,7,8
 622 1318 622 1318 554 1318 c 0,9,10
 492 1318 492 1318 449 1278 c 128,-1,11
 406 1238 406 1238 406 1166 c 2,12,-1
 406 1010 l 1,13,-1
 408 1010 l 1,14,15
 520 1112 520 1112 658 1112 c 0,16,17
 728 1112 728 1112 790 1092 c 128,-1,18
 852 1072 852 1072 907 1025 c 128,-1,19
 962 978 962 978 994 894 c 128,-1,20
 1026 810 1026 810 1026 692 c 2,21,-1
 1026 0 l 1,22,-1
 740 0 l 1,23,-1
 740 660 l 2,24,25
 740 868 740 868 606 868 c 0,26,27
 518 868 518 868 462 790 c 128,-1,28
 406 712 406 712 406 606 c 2,29,-1
 406 0 l 1,30,-1
 122 0 l 1,0,-1
EndSplineSet
Substitution2: "'sups' Superscript lookup 5 subtable" uni02B1
Substitution2: "'aalt' Access All Alternates lookup 0 subtable" uni02B1
EndChar

StartChar: uni0267
Encoding: 615 615 539
Width: 1126
GlyphClass: 2
Flags: W
LayerCount: 2
Fore
SplineSet
122 0 m 1,0,-1
 122 1220 l 2,1,2
 122 1390 122 1390 229 1481 c 128,-1,3
 336 1572 336 1572 498 1572 c 0,4,5
 594 1572 594 1572 702 1564 c 1,6,-1
 702 1310 l 1,7,8
 652 1318 652 1318 554 1318 c 0,9,10
 494 1318 494 1318 450 1276 c 128,-1,11
 406 1234 406 1234 406 1164 c 2,12,-1
 406 1010 l 1,13,-1
 408 1010 l 1,14,15
 520 1112 520 1112 658 1112 c 0,16,17
 726 1112 726 1112 785 1094 c 128,-1,18
 844 1076 844 1076 901 1032 c 128,-1,19
 958 988 958 988 992 901 c 128,-1,20
 1026 814 1026 814 1026 692 c 2,21,-1
 1026 -14 l 2,22,23
 1026 -230 1026 -230 930 -329 c 128,-1,24
 834 -428 834 -428 640 -428 c 0,25,26
 558 -428 558 -428 440 -414 c 1,27,-1
 440 -170 l 1,28,29
 522 -184 522 -184 582 -184 c 0,30,31
 668 -184 668 -184 704 -146 c 128,-1,32
 740 -108 740 -108 740 4 c 2,33,-1
 740 660 l 2,34,35
 740 868 740 868 606 868 c 0,36,37
 518 868 518 868 462 790 c 128,-1,38
 406 712 406 712 406 606 c 2,39,-1
 406 0 l 1,40,-1
 122 0 l 1,0,-1
EndSplineSet
EndChar

